<svg width="190" height="190" viewBox="0 0 190 190" fill="none" xmlns="http://www.w3.org/2000/svg">
<path d="M95 183C143.601 183 183 143.601 183 95C183 46.3989 143.601 7 95 7C46.3989 7 7 46.3989 7 95C7 143.601 46.3989 183 95 183Z" fill="#C10230"/>
<path fill-rule="evenodd" clip-rule="evenodd" d="M111.276 147.686L60.9931 147.426C59.7864 147.427 58.6027 147.097 57.5707 146.472C56.5387 145.846 55.698 144.95 55.1402 143.88C54.5823 142.81 54.3285 141.608 54.4067 140.403C54.4848 139.199 54.8917 138.04 55.5832 137.051L117.353 48.4168C118.032 47.4636 118.905 46.6641 119.913 46.0704C120.922 45.4766 122.044 45.102 123.207 44.9708L175.084 39.5978C176.297 39.4653 177.524 39.6743 178.626 40.2012C179.727 40.7282 180.66 41.5522 181.318 42.5805C181.977 43.6087 182.335 44.8005 182.353 46.0215C182.371 47.2425 182.048 48.4442 181.42 49.4914L129.544 137.384C127.671 140.554 124.997 143.174 121.79 144.982C118.583 146.79 114.957 147.723 111.276 147.686Z" fill="#878787" stroke="#1D1D1B" stroke-width="3.24234" stroke-linecap="round" stroke-linejoin="round"/>
<path fill-rule="evenodd" clip-rule="evenodd" d="M111.573 134.457L67.4408 133.79C66.6826 133.769 65.9438 133.546 65.3005 133.144C64.6573 132.742 64.133 132.176 63.7818 131.504C63.4306 130.832 63.2651 130.078 63.3026 129.32C63.34 128.563 63.579 127.829 63.9948 127.194L113.055 54.1973C114.199 52.4983 115.708 51.075 117.47 50.0304C119.232 48.9858 121.205 48.346 123.245 48.1574L168.303 43.9702C169.086 43.8987 169.874 44.0475 170.578 44.3998C171.282 44.7521 171.873 45.2939 172.285 45.9642C172.697 46.6345 172.914 47.4066 172.911 48.1935C172.908 48.9803 172.685 49.7507 172.268 50.4178L123.504 127.973C122.242 129.989 120.48 131.645 118.39 132.781C116.299 133.917 113.951 134.495 111.573 134.457Z" fill="#AFDDFE" stroke="#1D1D1B" stroke-width="3.24234" stroke-linecap="round" stroke-linejoin="round"/>
<path d="M76.0374 140.275L94.3052 140.386" stroke="#1D1D1B" stroke-width="3.24234" stroke-linecap="round" stroke-linejoin="round"/>
<path d="M71.4054 76.7634C73.3952 73.0876 74.4394 68.9746 74.4438 64.7948C74.4324 63.9027 74.3705 63.012 74.2585 62.1269C73.3692 50.1212 66.8477 43.2292 55.9537 42.7475H55.2867C54.307 42.6827 53.3231 42.7449 52.3594 42.9327C51.2964 43.1482 50.2188 43.2845 49.1356 43.3404H48.6169H48.2834C47.3864 43.1251 46.4614 43.0501 45.5414 43.1181C44.8024 43.2707 44.151 43.7027 43.723 44.3241C43.2949 44.9454 43.1233 45.7081 43.244 46.4529C43.2761 47.0824 43.2761 47.7132 43.244 48.3427C43.244 52.4187 43.244 58.5326 43.0587 64.7948C43.0587 65.5729 43.0587 66.3141 43.0587 67.0923C43.0587 67.8704 43.0587 68.6855 43.0587 69.5377C43.0587 70.39 43.0587 71.1682 43.0587 72.0204C43.0587 72.8727 43.0587 73.762 43.0587 74.6513C43.244 81.6175 43.5404 88.9172 43.8739 96.291L36.463 96.6246C35.957 96.6124 35.4535 96.7 34.9813 96.8824C34.5091 97.0649 34.0774 97.3386 33.711 97.6878C33.3445 98.037 33.0504 98.455 32.8455 98.9179C32.6406 99.3808 32.5289 99.8795 32.5167 100.386C32.5046 100.892 32.5923 101.395 32.7747 101.867C32.9571 102.34 33.2307 102.771 33.58 103.138C33.9292 103.504 34.3472 103.798 34.8101 104.003C35.273 104.208 35.7717 104.32 36.2778 104.332H37.1671L44.578 103.998C44.578 108.111 44.8003 111.743 44.8003 114.818C44.7876 117.349 45.2397 119.861 46.1342 122.229C46.1935 122.389 46.2993 122.527 46.438 122.626C46.5767 122.726 46.742 122.781 46.9124 122.785H49.2468C49.8312 122.785 50.4101 122.672 50.9513 122.452C52.7299 121.822 53.7675 120.08 54.138 117.005C53.8786 114.67 53.6934 112.41 53.6192 110.224C53.5451 108.037 53.3969 105.925 53.3598 103.739L65.4025 103.183C65.911 103.159 66.4098 103.035 66.8703 102.817C67.3307 102.6 67.744 102.295 68.0863 101.918C68.4287 101.541 68.6935 101.101 68.8656 100.622C69.0377 100.143 69.1138 99.6342 69.0895 99.1257C69.0651 98.6172 68.9409 98.1185 68.7238 97.6581C68.5067 97.1976 68.2011 96.7843 67.8243 96.442C67.4475 96.0996 67.007 95.8347 66.5279 95.6626C66.0488 95.4905 65.5405 95.4145 65.032 95.4388L53.3228 95.9575C53.3228 94.92 53.3228 93.8826 53.3228 92.7709C53.3228 91.6593 53.3228 90.6958 53.3228 89.5842C62.4382 86.9163 67.9593 83.0256 71.4054 76.7634ZM53.2116 81.21C53.2116 80.1354 53.2116 79.0608 53.2116 78.0232C53.2116 76.9857 53.2116 75.133 53.2116 73.762C53.2116 68.4262 53.2116 63.0533 53.2116 57.5322C53.2116 55.0125 53.2116 52.3446 53.2116 49.6026C53.9429 49.4509 54.688 49.3764 55.4349 49.3803C57.0124 49.3413 58.5683 49.7528 59.9202 50.5666C61.2722 51.3804 62.3642 52.5627 63.0681 53.975C64.7383 57.1774 65.6031 60.7384 65.5878 64.3501C65.6211 68.1518 64.6222 71.8914 62.6976 75.1701C61.7223 76.8685 60.3498 78.3052 58.6977 79.3571C57.0456 80.409 55.1632 81.0448 53.2116 81.21Z" fill="white"/>
<path d="M123.651 89.8066L75.4065 90.7701" stroke="#1D1D1B" stroke-width="6.06009" stroke-linecap="round" stroke-linejoin="round"/>
<path d="M105.754 99.7372L126.32 89.5843L105.087 81.0618" stroke="#1D1D1B" stroke-width="6.06009" stroke-linecap="round" stroke-linejoin="round"/>
</svg>
