<svg width="190" height="190" viewBox="0 0 190 190" fill="none" xmlns="http://www.w3.org/2000/svg">
<path d="M148.163 49H16.4831C11.3717 49 7.22803 53.8298 7.22803 59.7878V129.632C7.22803 135.59 11.3717 140.42 16.4831 140.42H148.163C153.275 140.42 157.418 135.59 157.418 129.632V59.7878C157.418 53.8298 153.275 49 148.163 49Z" fill="#0044FF" stroke="#1D1D1B" stroke-width="2.79857" stroke-linecap="round" stroke-linejoin="round"/>
<path fill-rule="evenodd" clip-rule="evenodd" d="M44.6539 83.4154C42.4411 83.1844 40.2104 83.6384 38.2685 84.715C36.3265 85.7916 34.7686 87.4381 33.8089 89.428C32.8492 91.4179 32.5348 93.6536 32.909 95.8278C33.2831 98.002 34.3274 100.008 35.8983 101.57C37.4693 103.132 39.4897 104.173 41.6819 104.551C43.8741 104.929 46.1305 104.624 48.1409 103.679C50.1513 102.734 51.8171 101.194 52.9092 99.2727C54.0013 97.3511 54.4662 95.1413 54.24 92.9471C53.991 90.5081 52.9018 88.2287 51.1558 86.4926C49.4098 84.7565 47.1136 83.6698 44.6539 83.4154ZM44.305 99.6824C43.1148 99.8406 41.9046 99.6253 40.8443 99.0665C39.7841 98.5078 38.9271 97.6337 38.3939 96.5673C37.8606 95.5008 37.6779 94.2955 37.8714 93.1208C38.0648 91.946 38.6248 90.8609 39.4726 90.0179C40.3203 89.175 41.4132 88.6165 42.5977 88.421C43.7822 88.2256 44.9987 88.4029 46.0762 88.9282C47.1537 89.4534 48.0382 90.3002 48.6052 91.3494C49.1721 92.3987 49.3932 93.5976 49.2373 94.7778C49.0736 96.0192 48.5017 97.1725 47.6101 98.0591C46.7184 98.9458 45.5568 99.5163 44.305 99.6824ZM60.0004 83.8378C59.6269 83.8387 59.2582 83.9221 58.9213 84.082C58.5844 84.2419 58.2877 84.4742 58.0527 84.7621C57.8178 85.05 57.6506 85.3862 57.5632 85.7462C57.4758 86.1062 57.4705 86.481 57.5477 86.8433C57.784 88.017 58.89 88.8189 60.0948 88.8189H67.0865L56.2058 103.092C56.1253 103.198 56.0761 103.323 56.0635 103.455C56.051 103.586 56.0756 103.719 56.1348 103.837C56.1939 103.956 56.2851 104.055 56.3983 104.125C56.5114 104.195 56.6419 104.233 56.7753 104.233H73.8427C75.0467 104.233 76.1535 103.431 76.3898 102.257C76.467 101.895 76.4618 101.52 76.3745 101.16C76.2872 100.801 76.12 100.464 75.8852 100.176C75.6504 99.8886 75.3538 99.6562 75.017 99.4962C74.6802 99.3362 74.3116 99.2526 73.9381 99.2516H65.4192L76.2916 84.9893C76.3729 84.8829 76.4226 84.7562 76.4353 84.6233C76.4479 84.4905 76.423 84.3568 76.3632 84.2372C76.3035 84.1176 76.2113 84.0169 76.097 83.9463C75.9827 83.8758 75.8509 83.8382 75.7163 83.8378H60.0004ZM128.201 83.8952C127.636 84.0284 127.134 84.3488 126.777 84.8033C126.421 85.2579 126.231 85.8194 126.241 86.3951V94.6885L112.684 83.9944C112.577 83.9108 112.449 83.8586 112.314 83.8438C112.179 83.8291 112.043 83.8524 111.921 83.9111C111.799 83.9697 111.696 84.0614 111.624 84.1755C111.552 84.2896 111.514 84.4215 111.514 84.5561V101.68C111.505 102.256 111.694 102.817 112.051 103.272C112.407 103.727 112.91 104.047 113.475 104.18C113.842 104.26 114.222 104.257 114.588 104.172C114.954 104.087 115.295 103.922 115.588 103.688C115.881 103.455 116.117 103.159 116.279 102.823C116.441 102.487 116.525 102.119 116.524 101.747V93.3816L130.081 104.076C130.187 104.159 130.315 104.212 130.45 104.226C130.585 104.241 130.721 104.218 130.844 104.159C130.966 104.1 131.069 104.009 131.14 103.895C131.212 103.781 131.25 103.649 131.25 103.514V86.3278C131.25 85.9554 131.166 85.5878 131.004 85.2519C130.842 84.9159 130.606 84.6204 130.314 84.3869C130.021 84.1535 129.679 83.9881 129.314 83.903C128.948 83.8179 128.568 83.8153 128.201 83.8952ZM92.9023 88.3422C98.6365 88.3422 102.921 91.346 102.921 94.0329C102.921 96.7199 98.6365 99.7237 92.9023 99.7237C87.1681 99.7237 82.8835 96.7199 82.8835 94.0329C82.8835 91.346 87.1681 88.3422 92.9023 88.3422ZM92.9023 83.3612C84.6022 83.3612 77.8739 88.1391 77.8739 94.0329C77.8739 99.9267 84.6022 104.705 92.9023 104.705C101.202 104.705 107.93 99.9267 107.93 94.0329C107.93 88.1391 101.202 83.3612 92.9023 83.3612Z" fill="white"/>
</svg>
