<svg width="117" height="130" viewBox="0 0 117 130" fill="none" xmlns="http://www.w3.org/2000/svg">
<path d="M100.992 22.508L96.1393 18.7159C95.3959 18.1341 94.3203 18.2662 93.7385 19.0096L91.7617 21.5389C91.1798 22.2822 91.312 23.3578 92.0572 23.9397L92.874 24.5784L89.0947 29.4149L92.3141 31.9313L95.3684 28.0217L96.0934 27.0948L96.9101 27.7336C97.6535 28.3154 98.7291 28.1833 99.3109 27.4399L101.288 24.9106C101.87 24.1673 101.737 23.0917 100.994 22.5098L100.992 22.508Z" fill="#721185" stroke="#262626" stroke-width="2" stroke-miterlimit="10"/>
<path d="M66.2852 1.00184H47.2642C45.3975 1.00184 43.7933 2.11596 43.0757 3.71282C42.8169 4.28732 42.6719 4.92239 42.6719 5.59234V5.68228C42.6719 6.31735 42.8004 6.92122 43.0335 7.47002C43.7309 9.11827 45.3627 10.2746 47.2642 10.2746H50.6653V12.4221V20.4596H62.8822V10.2746H66.2833C68.8181 10.2746 70.8738 8.21889 70.8738 5.68411V5.59234C70.8738 3.05572 68.8181 1 66.2833 1L66.2852 1.00184Z" fill="#721185" stroke="#262626" stroke-width="2" stroke-miterlimit="10"/>
<path d="M59.2094 16C28.1661 16 3 41.1661 3 72.2112C3 103.256 28.1661 128.421 59.2094 128.421C90.2526 128.421 115.419 103.254 115.419 72.2112C115.419 41.1679 90.2544 16 59.2094 16Z" fill="#C1022F" stroke="#262626" stroke-width="2" stroke-miterlimit="10"/>
<path d="M56.6063 120.313C84.179 120.313 106.531 97.9606 106.531 70.388C106.531 42.8153 84.179 20.4633 56.6063 20.4633C29.0337 20.4633 6.68164 42.8153 6.68164 70.388C6.68164 97.9606 29.0337 120.313 56.6063 120.313Z" fill="#FFD300"/>
<path d="M46.785 3.49622C46.4528 3.49622 46.1812 3.76603 46.1812 4.10008V7.18C46.1812 7.51222 46.451 7.78387 46.785 7.78387C47.1191 7.78387 47.3889 7.51405 47.3889 7.18V4.10008C47.3889 3.76786 47.1191 3.49622 46.785 3.49622Z" fill="white"/>
<path d="M49.2411 3.49622C48.9089 3.49622 48.6372 3.76603 48.6372 4.10008V7.18C48.6372 7.51222 48.907 7.78387 49.2411 7.78387C49.5751 7.78387 49.8449 7.51405 49.8449 7.18V4.10008C49.8449 3.76786 49.5751 3.49622 49.2411 3.49622Z" fill="white"/>
<path d="M51.6966 3.49622C51.3644 3.49622 51.0928 3.76603 51.0928 4.10008V7.18C51.0928 7.51222 51.3626 7.78387 51.6966 7.78387C52.0307 7.78387 52.3005 7.51405 52.3005 7.18V4.10008C52.3005 3.76786 52.0307 3.49622 51.6966 3.49622Z" fill="white"/>
<path d="M54.1507 3.49622C53.8185 3.49622 53.5469 3.76603 53.5469 4.10008V7.18C53.5469 7.51222 53.8167 7.78387 54.1507 7.78387C54.4848 7.78387 54.7546 7.51405 54.7546 7.18V4.10008C54.7546 3.76786 54.4848 3.49622 54.1507 3.49622Z" fill="white"/>
<path d="M56.6063 3.49622C56.2741 3.49622 56.0024 3.76603 56.0024 4.10008V7.18C56.0024 7.51222 56.2723 7.78387 56.6063 7.78387C56.9404 7.78387 57.2102 7.51405 57.2102 7.18V4.10008C57.2102 3.76786 56.9404 3.49622 56.6063 3.49622Z" fill="white"/>
<path d="M59.0614 3.49622C58.7292 3.49622 58.4575 3.76603 58.4575 4.10008V7.18C58.4575 7.51222 58.7273 7.78387 59.0614 7.78387C59.3954 7.78387 59.6653 7.51405 59.6653 7.18V4.10008C59.6653 3.76786 59.3954 3.49622 59.0614 3.49622Z" fill="white"/>
<path d="M61.516 3.49622C61.1838 3.49622 60.9121 3.76603 60.9121 4.10008V7.18C60.9121 7.51222 61.1819 7.78387 61.516 7.78387C61.85 7.78387 62.1198 7.51405 62.1198 7.18V4.10008C62.1198 3.76786 61.85 3.49622 61.516 3.49622Z" fill="white"/>
<path d="M63.972 3.49622C63.6398 3.49622 63.3682 3.76603 63.3682 4.10008V7.18C63.3682 7.51222 63.638 7.78387 63.972 7.78387C64.3061 7.78387 64.5759 7.51405 64.5759 7.18V4.10008C64.5759 3.76786 64.3061 3.49622 63.972 3.49622Z" fill="white"/>
<path d="M66.4271 3.49622C66.0949 3.49622 65.8232 3.76603 65.8232 4.10008V7.18C65.8232 7.51222 66.0931 7.78387 66.4271 7.78387C66.7612 7.78387 67.031 7.51405 67.031 7.18V4.10008C67.031 3.76786 66.7612 3.49622 66.4271 3.49622Z" fill="white"/>
<path d="M57.2094 13.5895C26.1661 13.5895 1 38.7556 1 69.8007C1 100.846 26.1661 126.01 57.2094 126.01C88.2526 126.01 113.419 100.844 113.419 69.8007C113.419 38.7574 88.2544 13.5895 57.2094 13.5895ZM57.2094 117.919C30.6336 117.919 9.0889 96.3746 9.0889 69.7988C9.0889 43.2231 30.6336 21.6802 57.2094 21.6802C83.7851 21.6802 105.33 43.2249 105.33 69.8007C105.33 96.3764 83.7851 117.921 57.2094 117.921V117.919Z" fill="#721185" stroke="#262626" stroke-width="2" stroke-miterlimit="10"/>
</svg>
