<svg width="80" height="80" viewBox="0 0 80 80" fill="none" xmlns="http://www.w3.org/2000/svg">
<path d="M39.523 6.69756C39.523 6.69756 39.5303 6.69756 39.5322 6.69756C40.0626 6.69756 40.4976 6.2754 40.4976 5.74495V0.952547C40.4976 0.425768 40.0718 -6.10352e-05 39.545 -6.10352e-05H39.5009C38.9742 -6.10352e-05 38.5483 0.425768 38.5483 0.952547V5.74495C38.5483 6.2754 38.9815 6.69756 39.5138 6.69756C39.5175 6.69756 39.5211 6.69756 39.523 6.69756Z" fill="#262626"/>
<path d="M10.756 21.7906L6.60789 19.3954C6.1527 19.1329 5.57085 19.2889 5.30655 19.7441L5.28452 19.7826C5.02205 20.2378 5.17806 20.8197 5.63326 21.084L9.78142 23.4793C10.2384 23.7436 10.8185 23.5839 11.0846 23.1269C11.0901 23.1177 11.0956 23.1085 11.0993 23.1012C11.3654 22.6441 11.2149 22.0568 10.756 21.7925V21.7906Z" fill="#262626"/>
<path d="M69.2652 23.4774L73.4133 21.0821C73.8685 20.8196 74.0245 20.2359 73.7621 19.7807L73.74 19.7422C73.4776 19.287 72.8939 19.131 72.4387 19.3935L68.2905 21.7888C67.8317 22.0531 67.6812 22.6404 67.9473 23.0974C67.9528 23.1066 67.9583 23.1158 67.962 23.1231C68.2263 23.5783 68.8081 23.738 69.2652 23.4755V23.4774Z" fill="#262626"/>
<path d="M6.69774 39.525C6.69774 39.525 6.69774 39.5176 6.69774 39.5158C6.69774 38.9854 6.27742 38.5504 5.74514 38.5504H0.95273C0.425951 38.5504 0.00012207 38.9762 0.00012207 39.503V39.547C0.00012207 40.0738 0.425951 40.4996 0.95273 40.4996H5.74514C6.27559 40.4996 6.69774 40.0664 6.69774 39.5342C6.69774 39.5305 6.69774 39.5268 6.69774 39.525Z" fill="#262626"/>
<path d="M57.2579 10.7578L59.6531 6.6096C59.9156 6.1544 59.7596 5.57256 59.3044 5.30825L59.2659 5.28623C58.8107 5.02376 58.2288 5.17977 57.9645 5.63497L55.5692 9.78312C55.3049 10.2402 55.4646 10.8202 55.9216 11.0863C55.9308 11.0918 55.94 11.0973 55.9473 11.101C56.4044 11.3671 56.9917 11.2166 57.256 10.7578H57.2579Z" fill="#262626"/>
<path d="M23.4778 9.78312L21.0825 5.63497C20.8201 5.17977 20.2364 5.02376 19.7812 5.28623L19.7426 5.30825C19.2874 5.57073 19.1314 6.1544 19.3939 6.6096L21.7892 10.7578C22.0535 11.2166 22.6408 11.3671 23.0979 11.101C23.107 11.0955 23.1162 11.09 23.1236 11.0863C23.5788 10.822 23.7403 10.2402 23.476 9.78312H23.4778Z" fill="#262626"/>
<path d="M68.2905 57.2573L72.4387 59.6526C72.8939 59.9151 73.4757 59.7591 73.74 59.3039L73.7621 59.2653C74.0245 58.8101 73.8685 58.2283 73.4133 57.964L69.2652 55.5687C68.8081 55.3044 68.2281 55.4641 67.962 55.9211C67.9565 55.9303 67.951 55.9394 67.9473 55.9468C67.6812 56.4038 67.8317 56.9912 68.2905 57.2555V57.2573Z" fill="#262626"/>
<path d="M73.3019 38.5504C72.7714 38.5504 72.3492 38.9835 72.3492 39.5158C72.3492 39.5195 72.3492 39.5232 72.3492 39.525C72.3492 39.5268 72.3492 39.5323 72.3492 39.5342C72.3492 40.0646 72.7714 40.4996 73.3019 40.4996H78.0943C78.621 40.4996 79.0469 40.0738 79.0469 39.547V39.503C79.0469 38.9762 78.621 38.5504 78.0943 38.5504H73.3019Z" fill="#262626"/>
<path d="M55.5691 69.2668L57.9644 73.415C58.2268 73.8702 58.8105 74.0262 59.2657 73.7637L59.3043 73.7417C59.7594 73.4792 59.9155 72.8955 59.653 72.4403L57.2577 68.2922C56.9934 67.8333 56.406 67.6828 55.949 67.949C55.9398 67.9545 55.9307 67.96 55.9233 67.9636C55.4681 68.2279 55.3066 68.8098 55.5709 69.2668H55.5691Z" fill="#262626"/>
<path d="M21.7892 68.2922L19.3939 72.4403C19.1314 72.8955 19.2874 73.4774 19.7426 73.7417L19.7812 73.7637C20.2364 74.0262 20.8182 73.8702 21.0825 73.415L23.4778 69.2668C23.7421 68.8098 23.5824 68.2298 23.1254 67.9636C23.1162 67.9581 23.107 67.9526 23.0997 67.949C22.6427 67.6828 22.0553 67.8333 21.791 68.2922H21.7892Z" fill="#262626"/>
<path d="M39.523 72.3505C39.523 72.3505 39.5156 72.3505 39.5138 72.3505C38.9833 72.3505 38.5483 72.7726 38.5483 73.3031V78.0955C38.5483 78.6223 38.9742 79.0481 39.5009 79.0481H39.545C40.0718 79.0481 40.4976 78.6223 40.4976 78.0955V73.3031C40.4976 72.7726 40.0644 72.3505 39.5322 72.3505C39.5285 72.3505 39.5248 72.3505 39.523 72.3505Z" fill="#262626"/>
<path d="M9.78142 55.5705L5.63326 57.9658C5.17806 58.2283 5.02205 58.812 5.28452 59.2672L5.30655 59.3057C5.56902 59.7609 6.1527 59.9169 6.60789 59.6545L10.756 57.2592C11.2149 56.9949 11.3654 56.4075 11.0993 55.9505C11.0938 55.9413 11.0883 55.9321 11.0846 55.9248C10.8203 55.4696 10.2384 55.3081 9.78142 55.5724V55.5705Z" fill="#262626"/>
</svg>
