<svg width="117" height="130" viewBox="0 0 117 130" fill="none" xmlns="http://www.w3.org/2000/svg">
<path d="M100.992 22.508L96.1389 18.7159C95.3955 18.1341 94.3199 18.2662 93.7381 19.0096L91.7613 21.5389C91.1795 22.2822 91.3116 23.3578 92.0568 23.9397L92.8736 24.5784L89.0944 29.4149L92.3138 31.9313L95.368 28.0217L96.093 27.0948L96.9098 27.7336C97.6531 28.3154 98.7287 28.1833 99.3106 27.4399L101.287 24.9106C101.869 24.1673 101.737 23.0917 100.994 22.5098L100.992 22.508Z" fill="#721185" stroke="#262626" stroke-width="2" stroke-miterlimit="10"/>
<path d="M66.2849 1.00184H47.264C45.3973 1.00184 43.7931 2.11596 43.0754 3.71282C42.8166 4.28732 42.6716 4.92239 42.6716 5.59234V5.68228C42.6716 6.31735 42.8001 6.92122 43.0332 7.47002C43.7307 9.11827 45.3624 10.2746 47.264 10.2746H50.6651V12.4221V20.4596H62.882V10.2746H66.2831C68.8179 10.2746 70.8736 8.21889 70.8736 5.68411V5.59234C70.8736 3.05572 68.8179 1 66.2831 1L66.2849 1.00184Z" fill="#721185" stroke="#262626" stroke-width="2" stroke-miterlimit="10"/>
<path d="M59.2094 16C28.1661 16 3 41.1661 3 72.2112C3 103.256 28.1661 128.421 59.2094 128.421C90.2526 128.421 115.419 103.254 115.419 72.2112C115.419 41.1679 90.2544 16 59.2094 16Z" fill="#C1022F" stroke="#262626" stroke-width="2" stroke-miterlimit="10"/>
<path d="M56.6061 120.313C84.1788 120.313 106.531 97.9606 106.531 70.388C106.531 42.8153 84.1788 20.4633 56.6061 20.4633C29.0334 20.4633 6.6814 42.8153 6.6814 70.388C6.6814 97.9606 29.0334 120.313 56.6061 120.313Z" fill="#F6D0A9"/>
<path d="M46.7849 3.49622C46.4527 3.49622 46.181 3.76603 46.181 4.10008V7.18C46.181 7.51222 46.4508 7.78387 46.7849 7.78387C47.119 7.78387 47.3888 7.51405 47.3888 7.18V4.10008C47.3888 3.76786 47.119 3.49622 46.7849 3.49622Z" fill="white"/>
<path d="M49.2408 3.49622C48.9086 3.49622 48.637 3.76603 48.637 4.10008V7.18C48.637 7.51222 48.9068 7.78387 49.2408 7.78387C49.5749 7.78387 49.8447 7.51405 49.8447 7.18V4.10008C49.8447 3.76786 49.5749 3.49622 49.2408 3.49622Z" fill="white"/>
<path d="M51.6966 3.49622C51.3644 3.49622 51.0928 3.76603 51.0928 4.10008V7.18C51.0928 7.51222 51.3626 7.78387 51.6966 7.78387C52.0307 7.78387 52.3005 7.51405 52.3005 7.18V4.10008C52.3005 3.76786 52.0307 3.49622 51.6966 3.49622Z" fill="white"/>
<path d="M54.1505 3.49622C53.8183 3.49622 53.5466 3.76603 53.5466 4.10008V7.18C53.5466 7.51222 53.8164 7.78387 54.1505 7.78387C54.4846 7.78387 54.7544 7.51405 54.7544 7.18V4.10008C54.7544 3.76786 54.4846 3.49622 54.1505 3.49622Z" fill="white"/>
<path d="M56.6063 3.49622C56.2741 3.49622 56.0024 3.76603 56.0024 4.10008V7.18C56.0024 7.51222 56.2723 7.78387 56.6063 7.78387C56.9404 7.78387 57.2102 7.51405 57.2102 7.18V4.10008C57.2102 3.76786 56.9404 3.49622 56.6063 3.49622Z" fill="white"/>
<path d="M59.0611 3.49622C58.7289 3.49622 58.4573 3.76603 58.4573 4.10008V7.18C58.4573 7.51222 58.7271 7.78387 59.0611 7.78387C59.3952 7.78387 59.665 7.51405 59.665 7.18V4.10008C59.665 3.76786 59.3952 3.49622 59.0611 3.49622Z" fill="white"/>
<path d="M61.516 3.49622C61.1838 3.49622 60.9121 3.76603 60.9121 4.10008V7.18C60.9121 7.51222 61.1819 7.78387 61.516 7.78387C61.85 7.78387 62.1198 7.51405 62.1198 7.18V4.10008C62.1198 3.76786 61.85 3.49622 61.516 3.49622Z" fill="white"/>
<path d="M63.9719 3.49622C63.6397 3.49622 63.368 3.76603 63.368 4.10008V7.18C63.368 7.51222 63.6379 7.78387 63.9719 7.78387C64.306 7.78387 64.5758 7.51405 64.5758 7.18V4.10008C64.5758 3.76786 64.306 3.49622 63.9719 3.49622Z" fill="white"/>
<path d="M66.4267 3.49622C66.0945 3.49622 65.8229 3.76603 65.8229 4.10008V7.18C65.8229 7.51222 66.0927 7.78387 66.4267 7.78387C66.7608 7.78387 67.0306 7.51405 67.0306 7.18V4.10008C67.0306 3.76786 66.7608 3.49622 66.4267 3.49622Z" fill="white"/>
<path d="M57.2094 13.5895C26.1661 13.5895 1 38.7556 1 69.8007C1 100.846 26.1661 126.01 57.2094 126.01C88.2526 126.01 113.419 100.844 113.419 69.8007C113.419 38.7574 88.2544 13.5895 57.2094 13.5895ZM57.2094 117.919C30.6336 117.919 9.0889 96.3746 9.0889 69.7988C9.0889 43.2231 30.6336 21.6802 57.2094 21.6802C83.7851 21.6802 105.33 43.2249 105.33 69.8007C105.33 96.3764 83.7851 117.921 57.2094 117.921V117.919Z" fill="#721185" stroke="#262626" stroke-width="2" stroke-miterlimit="10"/>
</svg>
