<svg width="117" height="130" viewBox="0 0 117 130" fill="none" xmlns="http://www.w3.org/2000/svg">
<path d="M100.992 22.508L96.1388 18.7159C95.3954 18.1341 94.3198 18.2662 93.738 19.0096L91.7612 21.5389C91.1793 22.2822 91.3115 23.3578 92.0567 23.9397L92.8735 24.5784L89.0942 29.4149L92.3136 31.9313L95.3679 28.0217L96.0929 27.0948L96.9097 27.7336C97.653 28.3154 98.7286 28.1833 99.3104 27.4399L101.287 24.9106C101.869 24.1673 101.737 23.0917 100.994 22.5098L100.992 22.508Z" fill="#721185" stroke="#262626" stroke-width="2" stroke-miterlimit="10"/>
<path d="M66.2849 1.00184H47.264C45.3973 1.00184 43.7931 2.11596 43.0754 3.71282C42.8166 4.28732 42.6716 4.92239 42.6716 5.59234V5.68228C42.6716 6.31735 42.8001 6.92122 43.0332 7.47002C43.7307 9.11827 45.3624 10.2746 47.264 10.2746H50.6651V12.4221V20.4596H62.882V10.2746H66.2831C68.8179 10.2746 70.8736 8.21889 70.8736 5.68411V5.59234C70.8736 3.05572 68.8179 1 66.2831 1L66.2849 1.00184Z" fill="#721185" stroke="#262626" stroke-width="2" stroke-miterlimit="10"/>
<path d="M59.2094 16C28.1661 16 3 41.1661 3 72.2112C3 103.256 28.1661 128.421 59.2094 128.421C90.2526 128.421 115.419 103.254 115.419 72.2112C115.419 41.1679 90.2544 16 59.2094 16Z" fill="#C1022F" stroke="#262626" stroke-width="2" stroke-miterlimit="10"/>
<path d="M56.6061 120.313C84.1788 120.313 106.531 97.9606 106.531 70.388C106.531 42.8153 84.1788 20.4633 56.6061 20.4633C29.0335 20.4633 6.6814 42.8153 6.6814 70.388C6.6814 97.9606 29.0335 120.313 56.6061 120.313Z" fill="#E42350"/>
<path d="M56.605 37.5607C56.605 37.5607 56.6123 37.5607 56.6142 37.5607C57.1446 37.5607 57.5796 37.1385 57.5796 36.6081V31.8157C57.5796 31.2889 57.1538 30.8631 56.627 30.8631H56.583C56.0562 30.8631 55.6304 31.2889 55.6304 31.8157V36.6081C55.6304 37.1385 56.0635 37.5607 56.5958 37.5607C56.5995 37.5607 56.6032 37.5607 56.605 37.5607Z" fill="#262626"/>
<path d="M27.8382 52.6538L23.69 50.2585C23.2348 49.996 22.653 50.1521 22.3887 50.6073L22.3667 50.6458C22.1042 51.101 22.2602 51.6828 22.7154 51.9472L26.8636 54.3424C27.3206 54.6067 27.9006 54.4471 28.1668 53.99C28.1723 53.9808 28.1778 53.9717 28.1814 53.9643C28.4476 53.5073 28.2971 52.92 27.8382 52.6556V52.6538Z" fill="#262626"/>
<path d="M86.3473 54.3405L90.4955 51.9452C90.9507 51.6827 91.1067 51.099 90.8442 50.6438L90.8222 50.6053C90.5597 50.1501 89.976 49.9941 89.5209 50.2566L85.3727 52.6518C84.9138 52.9162 84.7633 53.5035 85.0295 53.9605C85.035 53.9697 85.0405 53.9789 85.0441 53.9862C85.3085 54.4414 85.8903 54.6011 86.3473 54.3386V54.3405Z" fill="#262626"/>
<path d="M23.7799 70.3881C23.7799 70.3881 23.7799 70.3807 23.7799 70.3789C23.7799 69.8485 23.3596 69.4135 22.8273 69.4135H18.0349C17.5081 69.4135 17.0823 69.8393 17.0823 70.3661V70.4101C17.0823 70.9369 17.5081 71.3627 18.0349 71.3627H22.8273C23.3577 71.3627 23.7799 70.9295 23.7799 70.3973C23.7799 70.3936 23.7799 70.3899 23.7799 70.3881Z" fill="#262626"/>
<path d="M74.34 41.6209L76.7353 37.4727C76.9978 37.0175 76.8418 36.4357 76.3866 36.1714L76.348 36.1494C75.8928 35.8869 75.311 36.0429 75.0467 36.4981L72.6514 40.6463C72.3871 41.1033 72.5468 41.6833 73.0038 41.9494C73.013 41.9549 73.0221 41.9604 73.0295 41.9641C73.4865 42.2303 74.0739 42.0798 74.3382 41.6209H74.34Z" fill="#262626"/>
<path d="M40.56 40.6463L38.1647 36.4981C37.9022 36.0429 37.3185 35.8869 36.8633 36.1494L36.8248 36.1714C36.3696 36.4339 36.2136 37.0175 36.476 37.4727L38.8713 41.6209C39.1356 42.0798 39.723 42.2303 40.18 41.9641C40.1892 41.9586 40.1984 41.9531 40.2057 41.9494C40.6609 41.6851 40.8224 41.1033 40.5581 40.6463H40.56Z" fill="#262626"/>
<path d="M85.3727 88.1204L89.5209 90.5157C89.976 90.7782 90.5579 90.6222 90.8222 90.167L90.8442 90.1284C91.1067 89.6732 90.9507 89.0914 90.4955 88.8271L86.3473 86.4318C85.8903 86.1675 85.3103 86.3272 85.0441 86.7842C85.0386 86.7934 85.0331 86.8025 85.0295 86.8099C84.7633 87.2669 84.9138 87.8543 85.3727 88.1186V88.1204Z" fill="#262626"/>
<path d="M90.384 69.4135C89.8536 69.4135 89.4314 69.8466 89.4314 70.3789C89.4314 70.3826 89.4314 70.3862 89.4314 70.3881C89.4314 70.3899 89.4314 70.3954 89.4314 70.3973C89.4314 70.9277 89.8536 71.3627 90.384 71.3627H95.1764C95.7032 71.3627 96.129 70.9369 96.129 70.4101V70.3661C96.129 69.8393 95.7032 69.4135 95.1764 69.4135H90.384Z" fill="#262626"/>
<path d="M72.6511 100.13L75.0464 104.278C75.3089 104.733 75.8925 104.889 76.3477 104.627L76.3863 104.605C76.8415 104.342 76.9975 103.759 76.735 103.304L74.3397 99.1553C74.0754 98.6965 73.4881 98.546 73.031 98.8121C73.0219 98.8176 73.0127 98.8231 73.0053 98.8268C72.5502 99.0911 72.3886 99.673 72.6529 100.13H72.6511Z" fill="#262626"/>
<path d="M38.8713 99.1553L36.476 103.304C36.2136 103.759 36.3696 104.341 36.8248 104.605L36.8633 104.627C37.3185 104.889 37.9004 104.733 38.1647 104.278L40.56 100.13C40.8243 99.673 40.6646 99.0929 40.2076 98.8268C40.1984 98.8213 40.1892 98.8158 40.1819 98.8121C39.7248 98.546 39.1375 98.6965 38.8732 99.1553H38.8713Z" fill="#262626"/>
<path d="M56.605 103.214C56.605 103.214 56.5977 103.214 56.5958 103.214C56.0654 103.214 55.6304 103.636 55.6304 104.166V108.959C55.6304 109.485 56.0562 109.911 56.583 109.911H56.627C57.1538 109.911 57.5796 109.485 57.5796 108.959V104.166C57.5796 103.636 57.1465 103.214 56.6142 103.214C56.6105 103.214 56.6068 103.214 56.605 103.214Z" fill="#262626"/>
<path d="M26.8636 86.4337L22.7154 88.829C22.2602 89.0915 22.1042 89.6751 22.3667 90.1303L22.3887 90.1689C22.6512 90.6241 23.2348 90.7801 23.69 90.5176L27.8382 88.1223C28.2971 87.858 28.4476 87.2707 28.1814 86.8136C28.1759 86.8045 28.1704 86.7953 28.1668 86.7879C27.9024 86.3327 27.3206 86.1712 26.8636 86.4355V86.4337Z" fill="#262626"/>
<path d="M46.7848 3.49622C46.4526 3.49622 46.1809 3.76603 46.1809 4.10008V7.18C46.1809 7.51222 46.4507 7.78387 46.7848 7.78387C47.1188 7.78387 47.3886 7.51405 47.3886 7.18V4.10008C47.3886 3.76786 47.1188 3.49622 46.7848 3.49622Z" fill="white"/>
<path d="M49.2406 3.49622C48.9084 3.49622 48.6367 3.76603 48.6367 4.10008V7.18C48.6367 7.51222 48.9065 7.78387 49.2406 7.78387C49.5746 7.78387 49.8445 7.51405 49.8445 7.18V4.10008C49.8445 3.76786 49.5746 3.49622 49.2406 3.49622Z" fill="white"/>
<path d="M51.6966 3.49622C51.3644 3.49622 51.0928 3.76603 51.0928 4.10008V7.18C51.0928 7.51222 51.3626 7.78387 51.6966 7.78387C52.0307 7.78387 52.3005 7.51405 52.3005 7.18V4.10008C52.3005 3.76786 52.0307 3.49622 51.6966 3.49622Z" fill="white"/>
<path d="M54.1503 3.49622C53.818 3.49622 53.5464 3.76603 53.5464 4.10008V7.18C53.5464 7.51222 53.8162 7.78387 54.1503 7.78387C54.4843 7.78387 54.7541 7.51405 54.7541 7.18V4.10008C54.7541 3.76786 54.4843 3.49622 54.1503 3.49622Z" fill="white"/>
<path d="M56.6063 3.49622C56.2741 3.49622 56.0024 3.76603 56.0024 4.10008V7.18C56.0024 7.51222 56.2723 7.78387 56.6063 7.78387C56.9404 7.78387 57.2102 7.51405 57.2102 7.18V4.10008C57.2102 3.76786 56.9404 3.49622 56.6063 3.49622Z" fill="white"/>
<path d="M59.0611 3.49622C58.7289 3.49622 58.4573 3.76603 58.4573 4.10008V7.18C58.4573 7.51222 58.7271 7.78387 59.0611 7.78387C59.3952 7.78387 59.665 7.51405 59.665 7.18V4.10008C59.665 3.76786 59.3952 3.49622 59.0611 3.49622Z" fill="white"/>
<path d="M61.516 3.49622C61.1838 3.49622 60.9121 3.76603 60.9121 4.10008V7.18C60.9121 7.51222 61.1819 7.78387 61.516 7.78387C61.85 7.78387 62.1198 7.51405 62.1198 7.18V4.10008C62.1198 3.76786 61.85 3.49622 61.516 3.49622Z" fill="white"/>
<path d="M63.9718 3.49622C63.6396 3.49622 63.3679 3.76603 63.3679 4.10008V7.18C63.3679 7.51222 63.6377 7.78387 63.9718 7.78387C64.3058 7.78387 64.5757 7.51405 64.5757 7.18V4.10008C64.5757 3.76786 64.3058 3.49622 63.9718 3.49622Z" fill="white"/>
<path d="M66.4266 3.49622C66.0944 3.49622 65.8228 3.76603 65.8228 4.10008V7.18C65.8228 7.51222 66.0926 7.78387 66.4266 7.78387C66.7607 7.78387 67.0305 7.51405 67.0305 7.18V4.10008C67.0305 3.76786 66.7607 3.49622 66.4266 3.49622Z" fill="white"/>
<path d="M57.2094 13.5895C26.1661 13.5895 1 38.7556 1 69.8007C1 100.846 26.1661 126.01 57.2094 126.01C88.2526 126.01 113.419 100.844 113.419 69.8007C113.419 38.7574 88.2544 13.5895 57.2094 13.5895ZM57.2094 117.919C30.6336 117.919 9.0889 96.3746 9.0889 69.7988C9.0889 43.2231 30.6336 21.6802 57.2094 21.6802C83.7851 21.6802 105.33 43.2249 105.33 69.8007C105.33 96.3764 83.7851 117.921 57.2094 117.921V117.919Z" fill="#721185" stroke="#262626" stroke-width="2" stroke-miterlimit="10"/>
</svg>
