<svg width="1000" height="210" viewBox="0 0 1000 210" fill="none" xmlns="http://www.w3.org/2000/svg">
<g clip-path="url(#clip0_105_435)">
<path d="M244.924 104.993H244.399C242.6 100.491 239.877 96.4116 236.405 93.0159C232.932 89.6201 228.787 86.9824 224.233 85.2712C219.678 83.5599 214.816 82.8127 209.955 83.0773C205.095 83.3419 200.343 84.6125 196.003 86.8078C182.906 67.5299 161.771 55 137.915 55C114.346 55 93.3546 67.213 80.3047 86.0791C75.6399 83.9833 70.5701 82.931 65.4525 82.9962C60.3348 83.0614 55.2938 84.2425 50.6844 86.4565C46.0749 88.6705 42.0092 91.8634 38.7735 95.8104C35.5378 99.7574 33.2108 104.363 31.9564 109.301C23.6052 109.952 15.7651 113.562 9.85923 119.475C3.95339 125.388 0.373236 133.213 -0.231388 141.529C-0.836013 149.845 1.57496 158.102 6.56392 164.799C11.5529 171.497 18.7892 176.193 26.9593 178.034C30.4311 179.916 34.1975 181.202 38.0994 181.835C40.3642 186.826 43.7789 191.216 48.0665 194.648C52.3541 198.08 57.394 200.458 62.7775 201.589C68.1609 202.72 73.7364 202.572 79.0517 201.157C84.3671 199.743 89.2726 197.101 93.3705 193.447C106.581 204.88 123.724 210.782 141.209 209.917C158.694 209.052 175.164 201.486 187.171 188.805C191.436 192.379 196.496 194.888 201.932 196.122C207.367 197.356 213.02 197.281 218.421 195.902C223.821 194.523 228.812 191.88 232.979 188.194C237.146 184.507 240.369 179.883 242.378 174.707C243.174 174.707 243.97 174.834 244.797 174.834C254.102 174.834 263.026 171.155 269.605 164.606C276.184 158.057 279.881 149.175 279.881 139.913C279.881 130.652 276.184 121.77 269.605 115.221C263.026 108.672 254.102 104.993 244.797 104.993H244.924Z" fill="#D8F2FF"/>
</g>
<g clip-path="url(#clip1_105_435)">
<path d="M886.564 117.639H886.138C884.679 113.98 882.472 110.664 879.657 107.903C876.842 105.143 873.481 102.999 869.789 101.608C866.096 100.216 862.154 99.6091 858.214 99.8242C854.273 100.039 850.421 101.072 846.903 102.857C836.284 87.1856 819.15 77 799.81 77C780.702 77 763.684 86.928 753.104 102.264C749.322 100.561 745.212 99.7052 741.063 99.7582C736.914 99.8112 732.827 100.771 729.09 102.571C725.354 104.371 722.057 106.966 719.434 110.175C716.811 113.383 714.924 117.127 713.907 121.142C707.137 121.671 700.781 124.605 695.993 129.412C691.205 134.219 688.303 140.58 687.812 147.34C687.322 154.1 689.277 160.812 693.321 166.256C697.366 171.701 703.233 175.518 709.856 177.015C712.671 178.545 715.724 179.59 718.888 180.105C720.724 184.162 723.492 187.73 726.968 190.52C730.444 193.31 734.53 195.243 738.895 196.162C743.259 197.082 747.779 196.962 752.088 195.812C756.398 194.662 760.375 192.514 763.697 189.544C774.407 198.838 788.305 203.636 802.48 202.932C816.655 202.229 830.008 196.079 839.742 185.771C843.2 188.676 847.302 190.715 851.709 191.719C856.116 192.722 860.699 192.661 865.077 191.54C869.455 190.419 873.501 188.27 876.879 185.274C880.258 182.277 882.87 178.518 884.499 174.31C885.144 174.31 885.79 174.413 886.46 174.413C894.004 174.413 901.238 171.423 906.573 166.099C911.907 160.775 914.903 153.555 914.903 146.026C914.903 138.498 911.907 131.277 906.573 125.954C901.238 120.63 894.004 117.639 886.46 117.639H886.564Z" fill="#D8F2FF"/>
</g>
<g clip-path="url(#clip2_105_435)">
<path d="M572.564 40.6393H572.138C570.679 36.9795 568.472 33.6636 565.657 30.9032C562.842 28.1428 559.481 25.9986 555.789 24.6075C552.096 23.2165 548.154 22.6091 544.214 22.8242C540.273 23.0392 536.421 24.0721 532.903 25.8567C522.284 10.1856 505.15 0 485.81 0C466.702 0 449.684 9.92801 439.104 25.2643C435.322 23.5606 431.212 22.7052 427.063 22.7582C422.914 22.8112 418.827 23.7713 415.09 25.5711C411.354 27.3708 408.057 29.9664 405.434 33.1749C402.811 36.3835 400.924 40.127 399.907 44.1418C393.137 44.6709 386.781 47.6051 381.993 52.4119C377.205 57.2187 374.303 63.5795 373.812 70.3398C373.322 77.1 375.277 83.8116 379.321 89.2563C383.366 94.7011 389.233 98.5181 395.856 100.015C398.671 101.545 401.724 102.59 404.888 103.105C406.724 107.162 409.492 110.73 412.968 113.52C416.444 116.31 420.53 118.243 424.895 119.162C429.259 120.082 433.779 119.962 438.088 118.812C442.398 117.662 446.375 115.514 449.697 112.544C460.407 121.838 474.305 126.636 488.48 125.932C502.655 125.229 516.008 119.079 525.742 108.771C529.2 111.676 533.302 113.715 537.709 114.719C542.116 115.722 546.699 115.661 551.077 114.54C555.455 113.419 559.501 111.27 562.879 108.274C566.258 105.277 568.87 101.518 570.499 97.3103C571.144 97.3103 571.79 97.4134 572.46 97.4134C580.004 97.4134 587.238 94.4226 592.573 89.099C597.907 83.7754 600.903 76.5551 600.903 69.0264C600.903 61.4977 597.907 54.2773 592.573 48.9537C587.238 43.6301 580.004 40.6393 572.46 40.6393H572.564Z" fill="#D8F2FF"/>
</g>
<defs>
<clipPath id="clip0_105_435">
<rect width="280" height="155" fill="white" transform="translate(0 55)"/>
</clipPath>
<clipPath id="clip1_105_435">
<rect width="227" height="126" fill="white" transform="translate(688 77)"/>
</clipPath>
<clipPath id="clip2_105_435">
<rect width="227" height="126" fill="white" transform="translate(374)"/>
</clipPath>
</defs>
</svg>
