<svg width="1000" height="230" viewBox="0 0 1000 230" fill="none" xmlns="http://www.w3.org/2000/svg">
<g clip-path="url(#clip0_105_436)">
<path d="M22.0397 31.56H22.3697C23.5004 28.7178 25.2113 26.1428 27.3932 23.9991C29.575 21.8554 32.18 20.1902 35.0416 19.1099C37.9033 18.0296 40.9587 17.5579 44.0129 17.7249C47.0671 17.892 50.0529 18.6941 52.7797 20.08C61.0097 7.90999 74.2897 0 89.2797 0C104.09 0 117.28 7.70996 125.48 19.62C128.411 18.2969 131.597 17.6326 134.812 17.6737C138.028 17.7149 141.196 18.4605 144.092 19.8582C146.988 21.2558 149.543 23.2715 151.576 25.7632C153.609 28.2549 155.072 31.1621 155.86 34.28C161.107 34.6908 166.034 36.9695 169.745 40.7024C173.456 44.4353 175.705 49.3751 176.085 54.625C176.465 59.8749 174.95 65.087 171.815 69.3153C168.68 73.5437 164.133 76.5079 159 77.67C156.818 78.8585 154.452 79.6698 152 80.07C150.577 83.2208 148.431 85.9918 145.737 88.1584C143.043 90.325 139.876 91.8261 136.493 92.5401C133.11 93.254 129.607 93.1607 126.267 92.2676C122.927 91.3746 119.845 89.707 117.27 87.4C108.969 94.6177 98.1967 98.3436 87.21 97.7975C76.2234 97.2513 65.8741 92.4754 58.3297 84.47C55.6498 86.7262 52.4699 88.3097 49.0545 89.089C45.639 89.8682 42.0869 89.8206 38.6937 88.95C35.3004 88.0794 32.1641 86.4111 29.5457 84.0838C26.9272 81.7566 24.9024 78.8377 23.6397 75.57C23.1397 75.57 22.6397 75.65 22.1197 75.65C16.273 75.65 10.6658 73.3274 6.53156 69.1931C2.39732 65.0589 0.0747223 59.4517 0.0747223 53.605C0.0747223 47.7583 2.39732 42.1511 6.53156 38.0168C10.6658 33.8826 16.273 31.56 22.1197 31.56H22.0397Z" fill="#41C0F0" fill-opacity="0.37"/>
</g>
<g clip-path="url(#clip1_105_436)">
<path d="M361.311 144.639H361.735C363.187 140.98 365.385 137.664 368.188 134.903C370.99 132.143 374.336 129.999 378.012 128.608C381.688 127.216 385.613 126.609 389.536 126.824C393.459 127.039 397.295 128.072 400.797 129.857C411.369 114.186 428.428 104 447.683 104C466.707 104 483.649 113.928 494.183 129.264C497.948 127.561 502.04 126.705 506.17 126.758C510.301 126.811 514.37 127.771 518.09 129.571C521.811 131.371 525.093 133.966 527.704 137.175C530.316 140.383 532.194 144.127 533.207 148.142C539.947 148.671 546.275 151.605 551.042 156.412C555.809 161.219 558.699 167.58 559.187 174.34C559.675 181.1 557.729 187.812 553.702 193.256C549.675 198.701 543.834 202.518 537.24 204.015C534.438 205.545 531.398 206.59 528.248 207.105C526.42 211.162 523.664 214.73 520.203 217.52C516.743 220.31 512.675 222.243 508.33 223.162C503.984 224.082 499.484 223.962 495.194 222.812C490.904 221.662 486.944 219.514 483.637 216.544C472.974 225.838 459.137 230.636 445.024 229.932C430.911 229.229 417.617 223.079 407.926 212.771C404.484 215.676 400.399 217.715 396.012 218.719C391.625 219.722 387.062 219.661 382.703 218.54C378.345 217.419 374.316 215.27 370.953 212.274C367.589 209.277 364.988 205.518 363.366 201.31C362.724 201.31 362.082 201.413 361.414 201.413C353.903 201.413 346.701 198.423 341.39 193.099C336.08 187.775 333.096 180.555 333.096 173.026C333.096 165.498 336.08 158.277 341.39 152.954C346.701 147.63 353.903 144.639 361.414 144.639H361.311Z" fill="#41C0F0" fill-opacity="0.37"/>
</g>
<g clip-path="url(#clip2_105_436)">
<path d="M703.311 62.6393H703.735C705.187 58.9795 707.385 55.6636 710.188 52.9032C712.99 50.1428 716.336 47.9986 720.012 46.6075C723.688 45.2165 727.613 44.6091 731.536 44.8242C735.459 45.0392 739.295 46.0721 742.797 47.8567C753.369 32.1856 770.428 22 789.683 22C808.707 22 825.649 31.928 836.183 47.2643C839.948 45.5606 844.04 44.7052 848.17 44.7582C852.301 44.8112 856.37 45.7713 860.09 47.5711C863.811 49.3708 867.093 51.9664 869.704 55.1749C872.316 58.3835 874.194 62.127 875.207 66.1418C881.947 66.6709 888.275 69.6051 893.042 74.4119C897.809 79.2187 900.699 85.5795 901.187 92.3398C901.675 99.1 899.729 105.812 895.702 111.256C891.675 116.701 885.834 120.518 879.24 122.015C876.438 123.545 873.398 124.59 870.248 125.105C868.42 129.162 865.664 132.73 862.203 135.52C858.743 138.31 854.675 140.243 850.33 141.162C845.984 142.082 841.484 141.962 837.194 140.812C832.904 139.662 828.944 137.514 825.637 134.544C814.974 143.838 801.137 148.636 787.024 147.932C772.911 147.229 759.617 141.079 749.926 130.771C746.484 133.676 742.399 135.715 738.012 136.719C733.625 137.722 729.062 137.661 724.703 136.54C720.345 135.419 716.316 133.27 712.953 130.274C709.589 127.277 706.988 123.518 705.366 119.31C704.724 119.31 704.082 119.413 703.414 119.413C695.903 119.413 688.701 116.423 683.39 111.099C678.08 105.775 675.096 98.5551 675.096 91.0264C675.096 83.4977 678.08 76.2773 683.39 70.9537C688.701 65.6301 695.903 62.6393 703.414 62.6393H703.311Z" fill="#41C0F0" fill-opacity="0.37"/>
</g>
<defs>
<clipPath id="clip0_105_436">
<rect width="175.94" height="97.85" fill="white" transform="matrix(-1 0 0 1 175.94 0)"/>
</clipPath>
<clipPath id="clip1_105_436">
<rect width="226" height="126" fill="white" transform="matrix(-1 0 0 1 559 104)"/>
</clipPath>
<clipPath id="clip2_105_436">
<rect width="226" height="126" fill="white" transform="matrix(-1 0 0 1 901 22)"/>
</clipPath>
</defs>
</svg>
