<svg width="585" height="353" viewBox="0 0 585 353" fill="none" xmlns="http://www.w3.org/2000/svg">
<path opacity="0.3" d="M263.846 124.287H264.069C264.833 122.37 265.989 120.633 267.464 119.187C268.939 117.742 270.699 116.618 272.633 115.89C274.567 115.161 276.633 114.843 278.697 114.956C280.761 115.068 282.779 115.609 284.622 116.544C290.184 108.335 299.16 103 309.291 103C319.301 103 328.216 108.2 333.758 116.234C335.739 115.341 337.892 114.893 340.066 114.921C342.239 114.949 344.38 115.452 346.338 116.394C348.295 117.337 350.022 118.697 351.396 120.377C352.77 122.058 353.759 124.019 354.291 126.122C357.838 126.399 361.168 127.936 363.676 130.454C366.184 132.972 367.704 136.304 367.961 139.845C368.218 143.386 367.194 146.901 365.075 149.753C362.957 152.605 359.883 154.605 356.414 155.389C354.939 156.19 353.34 156.737 351.682 157.007C350.721 159.133 349.27 161.002 347.45 162.463C345.629 163.924 343.488 164.937 341.202 165.418C338.916 165.9 336.548 165.837 334.29 165.235C332.033 164.632 329.95 163.508 328.209 161.951C322.599 166.82 315.318 169.333 307.893 168.965C300.467 168.596 293.472 165.375 288.373 159.975C286.562 161.497 284.413 162.565 282.104 163.091C279.796 163.616 277.395 163.584 275.102 162.997C272.808 162.41 270.688 161.284 268.919 159.715C267.149 158.145 265.78 156.176 264.927 153.972C264.589 153.972 264.251 154.026 263.9 154.026C259.948 154.026 256.158 152.459 253.364 149.671C250.57 146.882 249 143.1 249 139.157C249 135.213 250.57 131.431 253.364 128.642C256.158 125.854 259.948 124.287 263.9 124.287H263.846Z" fill="white"/>
<path opacity="0.5" d="M285.247 247.993H284.722C282.923 243.491 280.2 239.412 276.727 236.016C273.255 232.62 269.11 229.982 264.555 228.271C260.001 226.56 255.139 225.813 250.278 226.077C245.417 226.342 240.666 227.613 236.326 229.808C223.228 210.53 202.094 198 178.238 198C154.669 198 133.677 210.213 120.627 229.079C115.963 226.983 110.893 225.931 105.775 225.996C100.658 226.061 95.6165 227.243 91.0071 229.457C86.3977 231.671 82.3319 234.863 79.0962 238.81C75.8605 242.757 73.5336 247.363 72.2792 252.302C63.9279 252.952 56.0878 256.562 50.182 262.475C44.2761 268.388 40.696 276.213 40.0914 284.529C39.4867 292.845 41.8977 301.102 46.8867 307.8C51.8756 314.497 59.1119 319.193 67.282 321.034C70.7539 322.916 74.5202 324.202 78.4222 324.835C80.687 329.827 84.1016 334.216 88.3892 337.648C92.6769 341.08 97.7168 343.458 103.1 344.589C108.484 345.72 114.059 345.572 119.374 344.157C124.69 342.743 129.595 340.101 133.693 336.447C146.904 347.88 164.047 353.782 181.532 352.917C199.017 352.052 215.487 344.486 227.493 331.805C231.758 335.379 236.819 337.888 242.255 339.122C247.69 340.356 253.343 340.281 258.743 338.902C264.144 337.523 269.135 334.88 273.302 331.194C277.469 327.507 280.691 322.883 282.701 317.707C283.497 317.707 284.292 317.834 285.12 317.834C294.425 317.834 303.348 314.155 309.928 307.606C316.507 301.057 320.203 292.175 320.203 282.913C320.203 273.652 316.507 264.77 309.928 258.221C303.348 251.672 294.425 247.993 285.12 247.993H285.247Z" fill="white"/>
<path opacity="0.4" d="M631.247 224.993H630.722C628.923 220.491 626.2 216.412 622.727 213.016C619.255 209.62 615.11 206.982 610.555 205.271C606.001 203.56 601.139 202.813 596.278 203.077C591.417 203.342 586.666 204.613 582.326 206.808C569.228 187.53 548.094 175 524.238 175C500.669 175 479.677 187.213 466.627 206.079C461.963 203.983 456.893 202.931 451.775 202.996C446.658 203.061 441.617 204.243 437.007 206.457C432.398 208.671 428.332 211.863 425.096 215.81C421.861 219.757 419.534 224.363 418.279 229.302C409.928 229.952 402.088 233.562 396.182 239.475C390.276 245.388 386.696 253.213 386.091 261.529C385.487 269.845 387.898 278.102 392.887 284.8C397.876 291.497 405.112 296.193 413.282 298.034C416.754 299.916 420.52 301.202 424.422 301.835C426.687 306.827 430.102 311.216 434.389 314.648C438.677 318.08 443.717 320.458 449.1 321.589C454.484 322.72 460.059 322.572 465.374 321.157C470.69 319.743 475.595 317.101 479.693 313.447C492.904 324.88 510.047 330.782 527.532 329.917C545.017 329.052 561.487 321.486 573.493 308.805C577.758 312.379 582.819 314.888 588.255 316.122C593.69 317.356 599.343 317.281 604.743 315.902C610.144 314.523 615.135 311.88 619.302 308.194C623.469 304.507 626.691 299.883 628.701 294.707C629.497 294.707 630.292 294.834 631.12 294.834C640.425 294.834 649.348 291.155 655.928 284.606C662.507 278.057 666.203 269.175 666.203 259.913C666.203 250.652 662.507 241.77 655.928 235.221C649.348 228.672 640.425 224.993 631.12 224.993H631.247Z" fill="white"/>
<path opacity="0.3" d="M518.784 47.8352H518.525C517.639 45.5987 516.298 43.5723 514.588 41.8854C512.878 40.1984 510.836 38.8881 508.593 38.038C506.35 37.1879 503.956 36.8167 501.562 36.9481C499.168 37.0796 496.828 37.7108 494.69 38.8014C488.24 29.2246 477.831 23.0001 466.082 23.0001C454.474 23.0001 444.136 29.0672 437.709 38.4394C435.412 37.3982 432.915 36.8755 430.394 36.9079C427.874 36.9402 425.391 37.527 423.121 38.6268C420.851 39.7267 418.848 41.3128 417.255 43.2736C415.661 45.2344 414.515 47.5221 413.897 49.9756C409.784 50.2989 405.923 52.0921 403.015 55.0296C400.106 57.967 398.343 61.8542 398.045 65.9855C397.747 70.1167 398.935 74.2182 401.392 77.5456C403.849 80.8729 407.413 83.2055 411.436 84.12C413.146 85.0552 415.001 85.6937 416.923 86.0086C418.038 88.488 419.72 90.6686 421.832 92.3736C423.943 94.0785 426.425 95.2597 429.077 95.8216C431.728 96.3834 434.474 96.3099 437.092 95.6072C439.71 94.9044 442.126 93.5921 444.144 91.7767C450.65 97.4565 459.093 100.388 467.704 99.9587C476.316 99.5289 484.427 95.7707 490.34 89.4711C492.441 91.2465 494.933 92.4926 497.61 93.1058C500.287 93.719 503.071 93.6815 505.731 92.9965C508.391 92.3114 510.849 90.9986 512.901 89.1672C514.953 87.3358 516.54 85.0389 517.53 82.4675C517.922 82.4675 518.314 82.5304 518.721 82.5304C523.304 82.5304 527.699 80.7027 530.939 77.4494C534.18 74.1961 536 69.7837 536 65.1828C536 60.582 534.18 56.1695 530.939 52.9162C527.699 49.6629 523.304 47.8352 518.721 47.8352H518.784Z" fill="white"/>
<path opacity="0.4" d="M182.927 37.0915H182.535C181.193 33.7512 179.162 30.7248 176.572 28.2054C173.982 25.686 170.89 23.7289 167.493 22.4593C164.096 21.1897 160.469 20.6353 156.843 20.8316C153.218 21.0279 149.674 21.9706 146.437 23.5994C136.668 9.29641 120.904 6.10352e-05 103.11 6.10352e-05C85.5298 6.10352e-05 69.8727 9.06134 60.139 23.0588C56.6595 21.5038 52.878 20.7231 49.0609 20.7714C45.2437 20.8198 41.4836 21.6961 38.0455 23.3387C34.6074 24.9814 31.5748 27.3503 29.1614 30.2787C26.7479 33.2072 25.0122 36.6239 24.0766 40.2882C17.8475 40.7711 11.9997 43.4491 7.5946 47.8363C3.18951 52.2235 0.51913 58.029 0.0681485 64.199C-0.382833 70.3691 1.41548 76.4948 5.13668 81.4642C8.85788 86.4336 14.2553 89.9173 20.3493 91.2831C22.9389 92.6799 25.7482 93.6335 28.6586 94.1037C30.3479 97.8068 32.8948 101.063 36.0929 103.61C39.291 106.156 43.0502 107.92 47.0656 108.759C51.0811 109.599 55.2397 109.489 59.2044 108.439C63.169 107.39 66.828 105.43 69.8846 102.718C79.7384 111.201 92.5251 115.58 105.567 114.938C118.608 114.296 130.893 108.683 139.849 99.2749C143.03 101.927 146.805 103.788 150.859 104.703C154.913 105.619 159.13 105.563 163.158 104.54C167.186 103.517 170.909 101.556 174.017 98.8211C177.125 96.0859 179.528 92.6554 181.027 88.815C181.621 88.815 182.214 88.9091 182.832 88.9091C189.772 88.9091 196.428 86.1794 201.335 81.3205C206.243 76.4617 209 69.8717 209 63.0003C209 56.1289 206.243 49.5388 201.335 44.68C196.428 39.8212 189.772 37.0915 182.832 37.0915H182.927Z" fill="white"/>
</svg>
