<svg width="28" height="34" viewBox="-40 -43 74 87" fill="none" xmlns="http://www.w3.org/2000/svg">
<path fill-rule="evenodd" clip-rule="evenodd" d="M5.37251 15.653C5.37251 15.653 -0.818624 4.81009 2.01749 3.9973C4.8536 3.18452 10.6642 18.2816 10.6642 18.2816L13.1372 17.5552C13.1372 17.5552 10.353 0.261943 14.0365 0.00254236C17.72 -0.256858 16.0599 19.3019 16.0599 19.3019H18.3079C18.3079 19.3019 21.7667 5.01755 23.8419 4.15288C25.9171 3.28822 25.2252 10.4823 23.2365 16.0162C22.373 18.63 21.2852 21.1641 19.9853 23.5906H10.5951L5.37251 15.653Z" fill="#377938"/>
<path fill-rule="evenodd" clip-rule="evenodd" d="M9.36689 23.0029C6.35652 20.4965 3.73918 17.5528 1.60218 14.2698C-2.04671 8.70136 1.16994 8.87423 4.9399 13.2322C7.41004 16.1777 9.60408 19.3442 11.4941 22.6917C9.31265 17.6313 7.73372 12.332 6.79019 6.90283C5.32026 -1.89948 8.81368 -0.585219 11.0618 4.60279C13.3099 9.7908 14.5205 22.4149 14.5205 22.4149C14.5864 16.9886 14.9848 11.5713 15.7136 6.19375C16.8031 -0.412314 19.7085 0.175706 20.1408 6.34943C20.2193 11.7652 19.8082 17.1769 18.9129 22.5187C20.4453 18.635 22.2782 14.8767 24.3949 11.278C27.404 6.40127 28.8739 8.23442 27.4559 12.5232C25.8265 16.2056 23.8335 19.7163 21.5069 23.0029H9.36689Z" fill="#40AB35"/>
<path fill-rule="evenodd" clip-rule="evenodd" d="M15.2103 23.0027V33.6381H9.46902C8.158 30.2383 7.42161 26.6442 7.29004 23.0027H15.2103Z" fill="#7E7E7D"/>
<path fill-rule="evenodd" clip-rule="evenodd" d="M15.2104 23.0027V33.6381H20.9866C22.3088 30.2409 23.0513 26.6458 23.1829 23.0027H15.2104Z" fill="#7E7E7D"/>
</svg>
 