<svg width="31" height="34" viewBox="0 -43 74 87" fill="none" xmlns="http://www.w3.org/2000/svg">
<g clip-path="url(#clip0_1_7707)">
<path d="M23.3604 31.1314C23.226 31.1318 23.0941 31.0943 22.9801 31.0232C22.866 30.9521 22.7744 30.8503 22.7158 30.7295C21.6799 29.0644 22.4741 26.6069 22.7158 23.9887C22.9575 21.3705 26.3762 20.6471 27.5732 16.5935C28.7703 12.5398 31.878 10.4843 30.7615 6.02874C30.278 4.20289 31.0032 2.13588 29.6104 -3.05176e-05C28.6089 1.01172 27.9663 2.32227 27.7803 3.73207C27.4747 3.60807 27.1459 3.55107 26.8162 3.56494C26.4865 3.57881 26.1637 3.66323 25.8696 3.81246C25.7095 3.12685 25.3982 2.48552 24.9581 1.93523C24.5181 1.38494 23.9604 0.939539 23.3259 0.631541C21.254 3.33014 23.0036 6.90149 21.8066 8.01538C20.1376 9.69196 18.3534 8.96848 16.9491 8.8881C12.0918 8.57804 4.93245 6.02872 0.477967 6.51103C-7.6483 6.51103 -10.7561 14.3772 -17.5241 7.93499C-18.1572 7.3034 -19.9068 6.90147 -19.9874 7.70531C-20.3097 11.1503 -14.6581 15.4796 -7.01525 14.136C-7.32602 17.1561 -6.77355 20.8079 -9.47846 23.1849C-9.75383 23.4548 -9.97283 23.7764 -10.123 24.1312C-10.2731 24.4859 -10.3514 24.8668 -10.3533 25.2519C-10.3376 27.7601 -9.67989 30.2227 -8.44251 32.4061C-8.24767 32.7433 -7.97009 33.0257 -7.63586 33.2265C-7.30163 33.4274 -6.92169 33.5402 -6.53176 33.5544C-4.37934 33.6348 -3.98803 33.0032 -4.70167 31.8893C-4.83552 31.6994 -5.00646 31.5384 -5.20426 31.416C-5.40206 31.2937 -5.62264 31.2125 -5.85269 31.1773C-6.6469 31.097 -7.52174 28.7199 -6.48582 27.2041C-4.33339 24.0347 -3.30891 25.0567 0.915364 21.7265C1.3988 20.9342 1.39882 20.1418 0.512532 16.3293C0.512532 16.249 0.51247 16.1686 0.593042 16.1686C0.673614 16.1686 0.754203 16.1686 0.754203 16.2489C0.995919 17.2825 1.79012 20.2911 1.46784 21.405C1.7787 21.3135 2.09939 21.2595 2.42314 21.2442L13.9334 21.405C18.5376 21.2442 18.7103 27.6864 20.2297 31.74C20.3851 32.1512 20.6727 32.4993 21.0476 32.73C21.4225 32.9606 21.8634 33.0607 22.3014 33.0147L23.6482 32.9343C23.7665 32.9196 23.8803 32.8804 23.9825 32.8191C24.0846 32.7578 24.1726 32.6757 24.241 32.5783C24.3093 32.4809 24.3564 32.3703 24.3792 32.2536C24.402 32.1369 24.4 32.0167 24.3733 31.9008C24.4424 31.5104 24.1316 31.2692 23.487 31.1888L23.3604 31.1314ZM23.6712 2.53779C24.2352 2.37702 24.3849 3.68613 24.2352 4.1225L24.1546 4.20289C23.9129 4.20289 23.5906 4.28326 23.5101 4.44403C23.4438 4.64768 23.4164 4.8619 23.4294 5.0756C23.4294 5.15599 23.2798 5.15599 23.2798 5.0756C23.1186 4.60479 23.1993 2.69855 23.6712 2.53779Z" fill="#EF7900"/>
<path d="M30.2778 6.27953C30.1342 6.19198 29.973 6.13699 29.8059 6.11841C29.6942 6.08154 29.5743 6.0771 29.4602 6.10562C29.3461 6.13415 29.2425 6.19444 29.1614 6.27953V6.27953C29.06 6.36807 28.9795 6.47802 28.9257 6.60143C28.872 6.72484 28.8463 6.85863 28.8506 6.99317C28.8506 7.07374 28.9311 7.23491 29.0117 7.23491C29.2426 7.31653 29.4945 7.31653 29.7253 7.23491C29.9954 7.05676 30.2136 6.81059 30.3583 6.52124C30.3635 6.4775 30.359 6.4332 30.3451 6.39141C30.3312 6.34963 30.3082 6.31141 30.2778 6.27953V6.27953ZM29.2419 6.6824C29.2419 6.15293 29.8865 6.15293 29.8865 6.6824C29.8865 7.21187 29.2419 7.21187 29.2419 6.6824Z" fill="#1E282B"/>
<path d="M28.8503 9.46783V8.98438C29.0115 8.83475 29.1611 8.75418 29.2417 8.59304C29.3222 8.43189 29.4028 8.19016 29.092 8.10959H28.2864C28.0562 8.10959 27.9756 8.35132 28.1367 8.59304C28.2207 8.7629 28.3582 8.90041 28.528 8.98438V9.46783C28.2588 9.47471 28.0028 9.58617 27.8144 9.77859V9.77859C27.7621 9.84832 27.7339 9.93313 27.7339 10.0203C27.7782 10.0599 27.8355 10.0818 27.8949 10.0818C27.9544 10.0818 28.0118 10.0599 28.0561 10.0203C28.2318 9.87529 28.4488 9.78944 28.6761 9.77497C28.9035 9.76051 29.1295 9.81815 29.3222 9.93972C29.4027 10.0203 29.4834 9.93974 29.564 9.85917C29.6446 9.7786 29.5639 9.70952 29.4833 9.62895C29.2837 9.53771 29.0693 9.48314 28.8503 9.46783Z" fill="#1E282B"/>
<path d="M25.5009 6.39461C25.3245 6.50473 25.1654 6.64051 25.029 6.79748C24.9894 6.85505 24.9683 6.92326 24.9683 6.99313C24.9683 7.06301 24.9894 7.13125 25.029 7.18882C25.1733 7.35504 25.3497 7.4906 25.5474 7.58747C25.7451 7.68435 25.9602 7.74056 26.18 7.75281C26.521 7.73015 26.8504 7.61908 27.1354 7.43053C27.1977 7.38634 27.2407 7.32003 27.2557 7.24513C27.2707 7.17023 27.2565 7.09241 27.2159 7.02766C26.698 6.3946 26.2261 5.96873 25.5009 6.39461ZM26.1456 7.54564C26.0315 7.56452 25.9142 7.54787 25.8099 7.49794C25.7056 7.448 25.6192 7.36717 25.5623 7.26645C25.5055 7.16573 25.4809 7.04998 25.4921 6.93486C25.5032 6.81974 25.5494 6.71084 25.6246 6.6229C25.6997 6.53495 25.8001 6.47223 25.912 6.44323C26.024 6.41422 26.1422 6.42034 26.2505 6.46075C26.3589 6.50117 26.4521 6.57393 26.5178 6.66916C26.5834 6.76439 26.6182 6.87748 26.6174 6.99313C26.6096 7.11685 26.5577 7.23367 26.4711 7.32237C26.3845 7.41108 26.2691 7.4658 26.1456 7.47658V7.54564Z" fill="#1E282B"/>
</g>
<defs>
<clipPath id="clip0_1_7707">
<rect width="31" height="34" fill="white" transform="translate(-0.000488281 -3.05176e-05)"/>
</clipPath>
</defs>
</svg>
