<svg width="26" height="42" viewBox="-40 -38 74 87" fill="none" xmlns="http://www.w3.org/2000/svg">
<path d="M17.564 26.1293C24.889 18.3579 27.485 9.59438 24.178 4.53471C23.0205 2.69934 20.0443 -0.276961 16.2083 0.0206666C14.8593 0.139904 13.5646 0.608116 12.4514 1.37926C11.3381 2.15041 10.4447 3.19796 9.85891 4.41895C8.85029 6.63463 11.0493 9.61091 12.0083 12.951C13.6618 18.6886 13.48 22.5743 14.5713 26.1789L17.564 26.1293Z" fill="#45B068"/>
<path d="M9.14844 25.6997L9.51216 27.9815L9.76022 29.5523L10.0248 31.2058L10.2067 32.264L11.7443 41.8047H22.4591C23.1536 37.9851 23.5503 34.6451 23.7983 32.016C23.7983 31.6026 23.7984 31.1893 23.8976 30.809C23.9968 30.4287 23.8975 29.7177 23.9967 29.2547C24.0959 28.7917 24.0795 27.9485 24.096 27.4359C24.096 26.328 24.096 25.7824 24.096 25.7824L9.14844 25.6997Z" fill="#005422"/>
<path d="M9.5127 27.9813L9.76076 29.5521C10.3006 29.5417 10.8315 29.4118 11.3151 29.1718C11.9104 28.8907 12.456 28.1962 13.1174 28.1466C13.7923 28.2346 14.4406 28.4658 15.0189 28.8246C15.7035 29.1311 16.4678 29.2122 17.2015 29.056C17.9125 28.9072 18.5573 28.5269 19.2683 28.3451C20.0185 28.223 20.7877 28.3757 21.4345 28.775C22.2289 29.1653 23.1165 29.3257 23.9973 29.238C23.9973 28.527 24.08 27.9317 24.0966 27.4191C23.2698 28.2293 21.6659 27.0553 20.7896 26.8073C20.0936 26.601 19.3526 26.601 18.6565 26.8073C18.0289 27.0652 17.3887 27.2914 16.7384 27.4853C16.1559 27.5181 15.5777 27.3677 15.0849 27.0553C14.4699 26.7195 13.7847 26.5326 13.0843 26.5097C11.6788 26.6089 10.8686 27.9978 9.5127 27.9813Z" fill="#45B068"/>
<path d="M10.0239 31.1891L10.2058 32.2474C10.4575 32.1946 10.7017 32.1113 10.9332 31.9993C11.5781 31.6851 12.1238 30.9742 12.8679 30.9246C13.5645 31.0182 14.2345 31.2547 14.8356 31.619C15.4769 31.9129 16.1953 31.994 16.8859 31.8505C17.5969 31.7017 18.2418 31.3214 18.9363 31.1395C19.7577 31.0064 20.5997 31.1643 21.3172 31.5859C22.082 31.9748 22.9478 32.1191 23.7974 31.9993C23.7974 31.5859 23.7975 31.1726 23.8967 30.7923C22.9542 31.5033 21.4164 30.3955 20.4904 30.1144C19.8427 29.9242 19.1541 29.9242 18.5063 30.1144C17.8797 30.3748 17.2393 30.6011 16.5882 30.7923C15.2324 31.0569 14.1575 29.7671 12.7851 29.8332C12.1701 29.9151 11.594 30.1802 11.1316 30.5939C10.7979 30.8524 10.4237 31.0536 10.0239 31.1891Z" fill="#45B068"/>
<path d="M14.67 19.9453L4.89805 16.3738C0.880077 13.0668 -0.260959 9.09843 1.0453 7.36226C2.07046 6.0064 4.78225 5.82454 6.7003 6.81664C7.82652 7.45796 8.7065 8.4568 9.20072 9.65488C9.69493 10.853 9.77512 12.1818 9.4286 13.4306L13.6614 16.8533L14.67 19.9453Z" fill="#45B068"/>
<path d="M23.5331 5.79159L25.4843 5.08055C25.7819 4.96481 25.6497 4.48533 25.3521 4.60108L23.4009 5.31206C23.0867 5.42781 23.2189 5.90733 23.5331 5.79159Z" fill="#005422"/>
<path d="M23.9461 7.42852H25.5996C25.6654 7.42852 25.7285 7.40237 25.775 7.35586C25.8215 7.30935 25.8477 7.24629 25.8477 7.18051C25.8477 7.11473 25.8215 7.05162 25.775 7.00511C25.7285 6.95859 25.6654 6.9325 25.5996 6.9325H23.9461C23.8803 6.9325 23.8174 6.95859 23.7709 7.00511C23.7244 7.05162 23.6982 7.11473 23.6982 7.18051C23.6982 7.24629 23.7244 7.30935 23.7709 7.35586C23.8174 7.40237 23.8803 7.42852 23.9461 7.42852Z" fill="#005422"/>
<path d="M11.6777 6.68425C12.2582 6.79776 12.8165 7.0044 13.3311 7.29608C13.3605 7.31237 13.3927 7.32268 13.426 7.32651C13.4593 7.33034 13.4931 7.3276 13.5253 7.31838C13.5576 7.30917 13.5877 7.29367 13.6139 7.27282C13.6402 7.25197 13.662 7.22614 13.6783 7.19683C13.6946 7.16751 13.705 7.13532 13.7088 7.10201C13.7126 7.0687 13.7099 7.03495 13.7007 7.0027C13.6915 6.97046 13.676 6.94031 13.6551 6.91405C13.6343 6.88778 13.6085 6.86589 13.5792 6.84961C13.0235 6.53781 12.42 6.31995 11.7933 6.20477C11.4792 6.20477 11.3469 6.61811 11.6611 6.68425H11.6777Z" fill="#005422"/>
<path d="M14.7525 11.8267H15.8933C15.959 11.8267 16.0222 11.8006 16.0687 11.754C16.1152 11.7075 16.1413 11.6445 16.1413 11.5787C16.1413 11.5129 16.1152 11.4498 16.0687 11.4033C16.0222 11.3568 15.959 11.3306 15.8933 11.3306H14.7525C14.6867 11.3306 14.6236 11.3568 14.5771 11.4033C14.5305 11.4498 14.5044 11.5129 14.5044 11.5787C14.5044 11.6445 14.5305 11.7075 14.5771 11.754C14.6236 11.8006 14.6867 11.8267 14.7525 11.8267Z" fill="#005422"/>
<path d="M19.5157 14.4887H19.681C19.7385 14.4542 19.7807 14.3991 19.7991 14.3347C19.8175 14.2702 19.8109 14.2012 19.7803 14.1415C19.7432 14.0869 19.687 14.0481 19.6227 14.0328C19.5584 14.0175 19.4907 14.0268 19.433 14.0589L19.2677 14.1415C19.2107 14.1744 19.1691 14.2286 19.152 14.2922C19.135 14.3558 19.1439 14.4235 19.1768 14.4805C19.2097 14.5375 19.2638 14.5791 19.3274 14.5962C19.391 14.6132 19.4587 14.6043 19.5157 14.5714V14.4887Z" fill="#005422"/>
<path d="M22.921 15.2328C23.3669 15.497 23.8312 15.7291 24.3101 15.9273C24.6077 16.0595 24.8721 15.6296 24.5745 15.4973C24.0902 15.2993 23.6206 15.0672 23.1691 14.8029C22.888 14.6375 22.6234 15.084 22.921 15.2328Z" fill="#005422"/>
<path d="M22.1447 18.9202L22.7896 19.4824C23.0376 19.6974 23.4013 19.3501 23.1533 19.1351L22.4919 18.5565C22.2604 18.3581 21.8967 18.7053 22.1447 18.9202Z" fill="#005422"/>
<path d="M12.9516 21.483C13.2759 21.431 13.6081 21.4711 13.9106 21.5988C14.1917 21.7145 14.4563 21.2846 14.1587 21.1523C13.7369 20.971 13.2706 20.9192 12.8192 21.0035C12.5051 21.0035 12.6375 21.5491 12.9516 21.483Z" fill="#005422"/>
<path d="M18.9036 22.6571C18.9605 22.6425 19.0109 22.6095 19.0469 22.5631C19.0829 22.5166 19.1024 22.4596 19.1024 22.4008C19.1024 22.3421 19.0829 22.285 19.0469 22.2386C19.0109 22.1922 18.9605 22.1591 18.9036 22.1445C18.8467 22.1591 18.7963 22.1922 18.7603 22.2386C18.7243 22.285 18.7046 22.3421 18.7046 22.4008C18.7046 22.4596 18.7243 22.5166 18.7603 22.5631C18.7963 22.6095 18.8467 22.6425 18.9036 22.6571Z" fill="#005422"/>
<path d="M8.53566 11.5621H10.3214C10.3871 11.5621 10.4502 11.5359 10.4968 11.4894C10.5433 11.4429 10.5694 11.3798 10.5694 11.3141C10.5694 11.2483 10.5433 11.1852 10.4968 11.1387C10.4502 11.0921 10.3871 11.066 10.3214 11.066H8.53566C8.46988 11.066 8.40677 11.0921 8.36026 11.1387C8.31375 11.1852 8.2876 11.2483 8.2876 11.3141C8.2876 11.3798 8.31375 11.4429 8.36026 11.4894C8.40677 11.5359 8.46988 11.5621 8.53566 11.5621Z" fill="#005422"/>
<path d="M7.89216 8.61906C8.13446 8.21168 8.34455 7.78601 8.52049 7.34589C8.65277 7.06479 8.20631 6.8002 8.09057 7.09782C7.91462 7.53795 7.70453 7.96367 7.46223 8.37104C7.28035 8.6356 7.72681 8.88361 7.89216 8.61906Z" fill="#005422"/>
<path d="M4.98049 8.56939C5.04627 8.56939 5.10937 8.54324 5.15589 8.49673C5.2024 8.45021 5.22855 8.38716 5.22855 8.32138C5.22855 8.2556 5.2024 8.19249 5.15589 8.14598C5.10937 8.09946 5.04627 8.07336 4.98049 8.07336C4.91471 8.07336 4.8516 8.09946 4.80508 8.14598C4.75857 8.19249 4.73242 8.2556 4.73242 8.32138C4.73242 8.38716 4.75857 8.45021 4.80508 8.49673C4.8516 8.54324 4.91471 8.56939 4.98049 8.56939Z" fill="#005422"/>
<path d="M0.120115 8.66866L1.6743 9.13163C1.97192 9.2143 2.10433 8.73481 1.8067 8.6356L0.268872 8.25528C0.209857 8.25433 0.152271 8.27314 0.105178 8.30872C0.0580858 8.3443 0.0241076 8.3946 0.00889971 8.45163C-0.00630822 8.50865 -0.00191102 8.56914 0.0212121 8.62344C0.0443351 8.67775 0.0850131 8.72275 0.136666 8.75131L0.120115 8.66866Z" fill="#005422"/>
<path d="M0.996926 12.9511L2.03863 12.7197C2.3528 12.7197 2.22059 12.1575 1.90643 12.2401L0.86472 12.4716C0.550557 12.4716 0.682764 13.0173 0.996926 12.9511Z" fill="#005422"/>
<path d="M3.27771 14.3566C3.34349 14.3566 3.4066 14.3304 3.45311 14.2839C3.49962 14.2374 3.52577 14.1743 3.52577 14.1086C3.5259 14.0412 3.50041 13.9763 3.45432 13.9271C3.40823 13.8779 3.34497 13.8482 3.27771 13.844C3.2437 13.8439 3.21003 13.8508 3.17881 13.8643C3.14758 13.8778 3.11951 13.8975 3.09625 13.9224C3.07299 13.9472 3.05522 13.9765 3.04377 14.0085C3.03233 14.0406 3.02758 14.0746 3.02985 14.1086C3.02985 14.1743 3.056 14.2374 3.10251 14.2839C3.14902 14.3304 3.21193 14.3566 3.27771 14.3566Z" fill="#005422"/>
<path d="M7.18084 16.8039C7.18733 17.0422 7.14207 17.279 7.04843 17.4983C6.89962 17.7794 7.32954 18.0439 7.47835 17.7463C7.61748 17.4514 7.69084 17.1299 7.69332 16.8039C7.67875 16.7469 7.64566 16.6965 7.59926 16.6604C7.55285 16.6244 7.49572 16.6049 7.43698 16.6049C7.37823 16.6049 7.3213 16.6244 7.2749 16.6604C7.22849 16.6965 7.19541 16.7469 7.18084 16.8039Z" fill="#005422"/>
</svg>
