<svg width="27" height="22" viewBox="-35 -57 74 87" fill="none" xmlns="http://www.w3.org/2000/svg">
<g clip-path="url(#clip0_1_7663)">
<path d="M16.7097 10.9526C15.956 11.5 15.0186 11.7402 14.0911 11.6238C13.5755 11.538 13.0753 11.3784 12.6062 11.15C10.2111 10.0445 8.25519 8.1572 5.89209 6.97271C6.91213 6.43194 8.00289 6.03333 9.13336 5.78821C11.4326 5.19597 13.8755 4.71428 16.1508 5.40129C17.1647 5.70926 18.1946 6.41205 18.2345 7.54127C18.2842 8.19014 18.171 8.84113 17.905 9.43628C17.639 10.0314 17.2283 10.5523 16.7097 10.9526Z" fill="#E08D51"/>
<path d="M6.33904 19.7257C4.99018 20.831 3.37137 21.5662 1.64478 21.8578C1.57018 21.8857 1.48785 21.8857 1.41325 21.8578C1.39488 21.8501 1.37824 21.8388 1.36427 21.8247C1.35031 21.8106 1.3393 21.7939 1.33188 21.7755C1.32446 21.7572 1.32078 21.7376 1.32104 21.7178C1.32131 21.698 1.32552 21.6785 1.33342 21.6604C0.942233 21.8341 0.367425 22.1816 0.0800212 21.9131C-0.207383 21.6446 0.0800248 21.4077 0.239694 21.1945C0.393597 20.9883 0.576389 20.8049 0.782568 20.6496C2.7613 19.0996 4.88369 17.7379 7.12142 16.5829C8.07013 16.0551 9.04536 15.5754 10.0434 15.1457C10.2749 15.043 10.5782 14.972 10.7459 15.1457C11.1052 15.5405 10.3866 15.9827 10.1871 16.2433C9.86405 16.63 9.50887 16.9892 9.12526 17.3173C8.23803 18.1659 7.3081 18.9697 6.33904 19.7257Z" fill="#F5B682"/>
<path d="M24.166 1.67412L27.0001 1.64253L24.9244 3.77462L24.166 1.67412Z" fill="#1B1C20"/>
<path d="M16.0629 14.901L16.3503 18.4624C16.3503 18.8019 16.4062 19.1415 16.4301 19.4732C16.4301 19.498 16.4252 19.5227 16.4155 19.5457C16.4059 19.5687 16.3918 19.5896 16.374 19.6072C16.3562 19.6248 16.3351 19.6387 16.3118 19.6482C16.2886 19.6578 16.2637 19.6627 16.2385 19.6627C16.2134 19.6627 16.1885 19.6578 16.1652 19.6482C16.142 19.6387 16.1208 19.6248 16.103 19.6072C16.0852 19.5896 16.0711 19.5687 16.0615 19.5457C16.0519 19.5227 16.0469 19.498 16.0469 19.4732L15.7595 15.9118C15.7595 15.5722 15.7116 15.2326 15.6797 14.8931C15.6797 14.8428 15.6999 14.7946 15.7358 14.7591C15.7717 14.7235 15.8205 14.7036 15.8713 14.7036C15.9221 14.7036 15.9708 14.7235 16.0068 14.7591C16.0427 14.7946 16.0629 14.8428 16.0629 14.8931V14.901Z" fill="#1B1C20"/>
<path d="M12.5661 14.3166C12.7896 15.667 12.9572 17.0331 13.077 18.3913C13.077 18.7703 13.1409 19.1809 13.1648 19.5363C13.1608 19.5859 13.138 19.6321 13.101 19.6658C13.064 19.6995 13.0155 19.7181 12.9652 19.7179C12.9404 19.718 12.9159 19.713 12.8931 19.7034C12.8702 19.6938 12.8496 19.6797 12.8325 19.662C12.8153 19.6443 12.802 19.6233 12.7932 19.6003C12.7845 19.5774 12.7805 19.5529 12.7816 19.5284C12.6938 18.186 12.5581 16.8672 12.3665 15.5406C12.3186 15.1616 12.2547 14.7904 12.1908 14.4114C12.181 14.3623 12.1903 14.3114 12.217 14.2689C12.2437 14.2263 12.2857 14.1954 12.3345 14.1824C12.3832 14.1703 12.4347 14.1776 12.478 14.2027C12.5213 14.2278 12.5529 14.2687 12.5661 14.3166Z" fill="#1B1C20"/>
<path d="M10.7222 19.8521C11.3181 19.7525 11.9221 19.7075 12.5264 19.7179C13.2722 19.7265 14.0094 19.8766 14.6979 20.1601C14.4169 19.8434 14.0273 19.6409 13.6042 19.5915C12.9903 19.4692 12.3579 19.4692 11.744 19.5915C11.3943 19.6388 11.0514 19.7263 10.7222 19.8521Z" fill="#1B1C20"/>
<path d="M14.3145 19.8047C14.9099 19.7012 15.5143 19.6562 16.1187 19.6705C16.8645 19.6791 17.6016 19.8292 18.2902 20.1127C18.0134 19.7894 17.6221 19.5832 17.1965 19.5362C16.5822 19.4178 15.9506 19.4178 15.3363 19.5362C14.9863 19.5862 14.6434 19.6763 14.3145 19.8047Z" fill="#1B1C20"/>
<path d="M15.967 5.59081C16.1236 5.41445 16.2552 5.21788 16.3582 5.00646C16.4493 4.75046 16.5135 4.48584 16.5498 4.2168C16.7151 3.21788 17.1731 2.28888 17.867 1.54494C18.561 0.801005 19.4603 0.274837 20.4537 0.0316004C21.1434 -0.0938016 21.8541 -0.0436478 22.5189 0.177373C23.1837 0.398393 23.7807 0.783 24.2538 1.29504C24.7106 1.82107 25.0088 2.46337 25.1147 3.14882C25.2206 3.83428 25.1297 4.53537 24.8526 5.17229C24.5883 5.71823 24.1822 6.18499 23.6759 6.52489C23.1696 6.8648 22.5811 7.06567 21.9705 7.10697C22.0996 8.17842 22.0347 9.26404 21.7789 10.313C21.4613 11.2632 20.9534 12.1403 20.2853 12.892C19.6173 13.6436 18.803 14.2544 17.891 14.6877C16.0597 15.5372 14.1078 16.1044 12.103 16.3697C10.4947 16.7266 8.83561 16.8014 7.20117 16.5908L15.967 5.59081Z" fill="#E94D00"/>
<path d="M17.9072 14.7193C17.1408 15.1069 16.3389 15.4216 15.5122 15.659L15.9673 15.3668C16.2929 15.1476 16.5951 14.8962 16.8694 14.6166C17.193 14.2483 17.4618 13.8361 17.6677 13.3926C18.8307 11.0775 19.1548 8.43767 18.5858 5.91454C19.2342 6.27323 19.9159 6.5694 20.6216 6.79895C20.925 6.90161 21.2363 6.98847 21.5557 7.06744C21.796 7.10355 22.0393 7.11679 22.2822 7.10693H21.9628C22.0919 8.17839 22.027 9.26401 21.7712 10.313C21.4601 11.2668 20.9575 12.1488 20.2936 12.9059C19.6296 13.6631 18.818 14.2798 17.9072 14.7193Z" fill="#F5B682"/>
<path d="M17.412 10.163C17.1543 11.0537 16.5557 11.81 15.7435 12.2714C15.2794 12.5134 14.7817 12.6864 14.2666 12.7847C11.6879 13.3453 8.97352 13.0137 6.37891 13.4796C6.85671 12.4395 7.47728 11.4696 8.22308 10.5973C9.69203 8.7495 11.3446 6.90169 13.572 6.08834C14.5619 5.7251 15.8153 5.66193 16.5418 6.53845C16.9772 7.02511 17.2845 7.61055 17.4363 8.24283C17.5881 8.87511 17.5797 9.53467 17.412 10.163Z" fill="#F5B682"/>
<path d="M23.2638 2.59015C23.2174 2.76995 23.1031 2.92534 22.9445 3.02445C22.7999 3.12613 22.6269 3.18076 22.4495 3.18076C22.2721 3.18076 22.0991 3.12613 21.9545 3.02445C21.8165 2.91135 21.721 2.75561 21.6833 2.58229C21.6457 2.40897 21.6681 2.22816 21.7469 2.06897C21.8369 1.91988 21.974 1.80426 22.1371 1.74002C22.3002 1.67579 22.4801 1.6665 22.6491 1.71361C22.8299 1.7799 22.9859 1.89951 23.0958 2.05627C23.2057 2.21302 23.2644 2.39937 23.2638 2.59015Z" fill="white"/>
<path d="M22.0182 2.04529C21.926 2.15946 21.8818 2.30434 21.8948 2.44988C21.9077 2.59542 21.9768 2.73045 22.0878 2.82695C22.1987 2.92345 22.3429 2.97401 22.4905 2.96814C22.638 2.96228 22.7777 2.90046 22.8804 2.79548C22.9758 2.68265 23.0239 2.53802 23.015 2.39122C23.0061 2.24443 22.9408 2.10656 22.8325 2.00582C22.7185 1.90578 22.5694 1.85389 22.4172 1.86127C22.265 1.86865 22.1218 1.9347 22.0182 2.04529Z" fill="#1B1C20"/>
<path d="M22.537 2.26642C22.4781 2.24313 22.4124 2.24313 22.3534 2.26642C22.3534 2.26642 22.3055 2.32168 22.2656 2.32958C22.2435 2.33192 22.2213 2.3259 22.2036 2.31271C22.1858 2.29952 22.1737 2.28015 22.1698 2.25851C22.1582 2.21718 22.1582 2.1735 22.1698 2.13217C22.188 2.09043 22.2154 2.05323 22.2499 2.02319C22.2844 1.99315 22.3252 1.97103 22.3694 1.95844C22.4139 1.94672 22.4606 1.94672 22.5051 1.95844C22.5929 1.95844 22.7446 2.02161 22.7526 2.13217C22.7606 2.24272 22.6408 2.3138 22.537 2.26642Z" fill="white"/>
</g>
<defs>
<clipPath id="clip0_1_7663">
<rect width="27" height="22" fill="white"/>
</clipPath>
</defs>
</svg>
