<svg width="822" height="488" viewBox="0 0 822 488" fill="none" xmlns="http://www.w3.org/2000/svg">
<path d="M19.2106 376.633C21.1356 378.137 23.6488 378.525 26.107 377.692C27.7518 377.137 29.2593 376.049 30.4147 374.59C30.4297 374.64 30.4513 374.684 30.4796 374.724C32.0523 376.648 34.3908 377.579 36.8982 377.282C38.7673 377.057 40.5964 376.141 42.0484 374.692C42.1474 374.592 42.2181 374.452 42.2253 374.307C42.2372 374.169 42.197 374.027 42.1149 373.926C40.5422 372.002 38.2036 371.071 35.6963 371.368C34.2985 371.539 32.9162 372.099 31.7015 372.979C32.439 370.508 32.2327 367.946 31.0948 365.875C30.1836 364.222 28.7238 363.008 26.9885 362.448C26.7329 362.37 26.4413 362.536 26.3454 362.824C25.4063 365.448 25.5804 368.232 26.7975 370.458C27.1241 371.046 27.5192 371.575 27.9714 372.045C26.6484 371.743 25.234 371.806 23.8312 372.28C22.0004 372.897 20.3376 374.175 19.1415 375.872C18.9652 376.117 18.9952 376.455 19.2059 376.626" fill="#97C124"/>
<path d="M30.6953 373.463C30.9704 373.428 31.1913 373.641 31.193 373.94C31.202 378 28.1613 381.663 24.4117 382.111C24.1367 382.146 23.9157 381.933 23.914 381.635C23.9124 381.336 24.1333 381.07 24.4083 381.035C27.6032 380.65 30.202 377.52 30.1964 374.056C30.1947 373.757 30.4156 373.491 30.6906 373.456" fill="#262626"/>
<path d="M24.5561 186.848C25.8355 193.773 32.4824 197.203 39.6668 195.885C46.8513 194.568 51.834 188.996 50.5546 182.071C49.2753 175.147 42.7029 169.182 35.5522 173.59C27.7562 171.83 23.2768 179.923 24.5561 186.848Z" fill="#ED7100"/>
<path d="M32.4182 170.856C32.4182 170.856 32.3968 170.814 32.3861 170.793C32.3647 170.75 32.3487 170.719 32.3379 170.671C32.3379 170.671 32.3325 170.66 32.3272 170.65C32.3165 170.629 32.3164 170.602 32.3216 170.586C32.3162 170.549 32.3161 170.523 32.3265 170.491C32.3265 170.491 32.3316 170.422 32.342 170.39C32.342 170.39 32.3473 170.374 32.3525 170.358C32.3577 170.342 32.3736 170.321 32.3788 170.305C32.3946 170.284 32.4104 170.263 32.4103 170.236C32.4209 170.231 32.4367 170.209 32.442 170.193C32.5 170.124 32.7852 169.847 32.9977 169.953C35.0759 171.201 36.6325 173.257 37.0934 175.774C37.1476 176.065 36.9419 176.342 36.6505 176.396C36.3485 176.455 36.0668 176.266 36.0126 175.974C35.6112 173.76 34.2465 171.952 32.4128 170.846" fill="#262626"/>
<path d="M36.4823 176.694C37.6003 176.488 38.5787 175.874 39.2325 174.96C39.4011 174.715 39.3415 174.386 39.0969 174.218C38.8523 174.049 38.5027 174.119 38.334 174.364C37.8489 175.034 37.1244 175.493 36.2978 175.645C35.4713 175.797 34.6275 175.625 33.9311 175.167C33.6865 174.998 33.3369 175.068 33.1682 175.313C32.9995 175.557 33.0592 175.886 33.3037 176.055C34.2394 176.671 35.3644 176.9 36.4929 176.689" fill="#262626"/>
<path d="M804.033 153.927C798.979 161.677 789.176 162.461 781.136 157.22C773.11 151.985 769.877 142.703 774.938 134.939C779.992 127.19 790.983 123.296 797.424 132.262C807.758 134.073 809.081 146.156 804.027 153.906" fill="#97C124"/>
<path d="M794.61 135.473C794.243 135.228 794.133 134.763 794.371 134.41C798.14 128.64 806.065 127.118 812.05 131.017C812.417 131.262 812.527 131.727 812.289 132.08C812.058 132.419 811.58 132.521 811.227 132.283C805.969 128.854 799.007 130.191 795.693 135.263C795.462 135.602 794.984 135.704 794.631 135.466" fill="#262626"/>
<path d="M794.677 135.95C793.321 135.062 792.38 133.72 792.025 132.171C791.928 131.749 792.188 131.355 792.617 131.279C793.032 131.196 793.454 131.47 793.537 131.885C793.802 133.032 794.497 134.034 795.514 134.691C796.518 135.341 797.718 135.581 798.879 135.358C799.293 135.275 799.716 135.55 799.799 135.965C799.896 136.387 799.636 136.781 799.207 136.857C797.639 137.149 796.033 136.838 794.677 135.95Z" fill="#262626"/>
<path d="M803.535 128.267C805.99 124.496 804.82 119.373 800.911 116.81C800.558 116.572 800.066 116.668 799.849 117.014C797.394 120.785 798.564 125.908 802.473 128.471C802.826 128.709 803.318 128.613 803.535 128.267Z" fill="#97C124"/>
<path d="M746.644 70.4006L743.743 78.1541L739.317 71.1538L731 70.8182L736.325 64.4647L734.083 56.5065L741.806 59.5768L748.738 55L748.186 63.2448L754.706 68.3783L746.644 70.4006Z" fill="#C1022F"/>
<path opacity="0.2" d="M140.818 18.6238L137.514 28L132.473 19.5347L123 19.1287L129.065 11.4455L126.511 1.82178L135.308 5.53465L143.203 0L142.574 9.9703L150 16.1782L140.818 18.6238Z" fill="white"/>
<path opacity="0.2" d="M802.438 467.615L798.277 479L791.928 468.721L780 468.228L787.637 458.898L784.421 447.212L795.499 451.721L805.441 445L804.649 457.107L814 464.645L802.438 467.615Z" fill="white"/>
<path opacity="0.2" d="M810.438 219.615L806.277 231L799.928 220.721L788 220.228L795.637 210.898L792.421 199.212L803.499 203.721L813.441 197L812.649 209.107L822 216.645L810.438 219.615Z" fill="white"/>
<path d="M28.2324 293.136L28.3806 298.942L23.6594 295.553L18.1563 297.523L19.9537 291.99L16.4029 287.405L22.2382 287.37L25.5489 282.57L27.3557 288.077L32.9495 289.7L28.2324 293.136Z" fill="white"/>
<path d="M9.4193 259.851L11.2884 262.906L7.7226 262.552L5.39109 265.301L4.6452 261.792L1.33524 260.438L4.44054 258.62L4.72864 255.036L7.39137 257.42L10.879 256.562L9.4193 259.851Z" fill="white"/>
<path d="M803.232 341.136L803.381 346.942L798.659 343.553L793.156 345.523L794.954 339.99L791.403 335.405L797.238 335.37L800.549 330.57L802.356 336.077L807.95 337.7L803.232 341.136Z" fill="white"/>
<path opacity="0.3" d="M714.232 23.1361L714.381 28.9417L709.659 25.5535L704.156 27.523L705.954 21.9904L702.403 17.4047L708.238 17.3697L711.549 12.5698L713.356 18.0769L718.95 19.7004L714.232 23.1361Z" fill="white"/>
<path d="M784.419 307.851L786.288 310.906L782.723 310.552L780.391 313.301L779.645 309.792L776.335 308.438L779.441 306.62L779.729 303.036L782.391 305.42L785.879 304.562L784.419 307.851Z" fill="white"/>
<path d="M580.387 59.8514L582.256 62.9059L578.691 62.5522L576.359 65.3006L575.613 61.792L572.303 60.4379L575.409 58.6202L575.697 55.0362L578.359 57.42L581.847 56.5623L580.387 59.8514Z" fill="white"/>
<path opacity="0.2" d="M753.697 454.601L748.19 469L739.788 456L724 455.376L734.108 443.577L729.852 428.798L744.513 434.5L757.672 426L756.623 441.312L769 450.845L753.697 454.601Z" fill="#CD3429"/>
<path opacity="0.2" d="M795.527 410.707L796.811 418.558L789.735 414.886L782.59 418.639L784.013 410.777L778.312 405.25L786.27 404.058L789.895 396.893L793.388 404.013L801.326 405.118L795.527 410.707Z" fill="#CD3429"/>
<path opacity="0.2" d="M49.6975 60.6008L44.1899 75L35.7875 61.9997L20 61.3763L30.1078 49.5771L25.8519 34.7978L40.5129 40.4997L53.6718 32L52.6235 47.3116L65 56.8451L49.6975 60.6008Z" fill="#CD3429"/>
<path opacity="0.2" d="M87.38 16.1605L88.4046 22.425L82.7582 19.495L77.0566 22.4899L78.192 16.2164L73.6425 11.8059L79.9935 10.8541L82.8862 5.13701L85.673 10.8185L92.0075 11.7006L87.38 16.1605Z" fill="#CD3429"/>
<path opacity="0.2" d="M68.7001 462.875L79.8784 465.34L71.2006 472.843L72.4115 484.394L62.66 478.304L52.2345 482.981L54.8798 471.706L47.2336 463.044L58.6116 462.168L64.3181 452.145L68.7001 462.875Z" fill="#CD3429"/>
<path opacity="0.2" d="M22.6391 430.904L28.216 429.139L26.2926 434.677L29.7797 439.479L23.9082 439.275L20.4895 444.009L18.7795 438.344L13.1824 436.464L17.994 433.169L17.9585 427.276L22.6391 430.904Z" fill="#CD3429"/>
<path d="M149.798 113.551L148.723 116.346L147.082 113.823L144 113.702L145.973 111.412L145.142 108.543L148.005 109.65L150.574 108L150.369 110.972L152.785 112.822L149.798 113.551Z" fill="#FFDC37"/>
<path d="M359.244 22.9669L357.895 26.4745L355.836 23.3077L351.968 23.1558L354.445 20.2816L353.402 16.6815L356.994 18.0705L360.218 16L359.961 19.7298L362.994 22.0521L359.244 22.9669Z" fill="#FFDC37"/>
<path d="M774.276 35.9669L772.927 39.4745L770.868 36.3077L767 36.1558L769.477 33.2816L768.434 29.6815L772.026 31.0705L775.25 29L774.993 32.7298L778.026 35.0521L774.276 35.9669Z" fill="#C1022F"/>
<path opacity="0.7" d="M104.56 96.5438L107.445 100.288L102.721 100.299L100.057 104.201L98.5798 99.7138L94.0489 98.3832L97.8598 95.5952L97.727 90.8726L101.556 93.635L106.005 92.0511L104.56 96.5438Z" fill="white"/>
<path d="M113.852 69.4547L116.324 74.0837L111.147 73.2378L107.522 77.0209L106.722 71.8435L102 69.5569L106.685 67.196L107.391 62L111.091 65.7274L116.25 64.7978L113.852 69.4547Z" fill="#FFDC37"/>
<path d="M283.874 39.3559L286.977 45.1654L280.479 44.1038L275.929 48.8518L274.926 42.354L269 39.4842L274.88 36.5211L275.766 30L280.409 34.6779L286.884 33.5114L283.874 39.3559Z" fill="#FFDC37"/>
<!-- <path d="M650.634 111.982L651.876 116.004L654.31 112.568L658.527 112.628L656.007 109.253L657.366 105.259L653.376 106.607L650.002 104.087L650.053 108.298L646.615 110.723L650.634 111.982Z" fill="#ED7100"/> -->
</svg>
