<svg width="45" height="25" viewBox="-10 -55 74 87" fill="none" xmlns="http://www.w3.org/2000/svg">
<path fill-rule="evenodd" clip-rule="evenodd" d="M3.61524 10.5343C3.61524 10.5343 -0.55133 3.23709 1.35734 2.69009C3.26601 2.14309 7.17646 12.3033 7.17646 12.3033L8.84079 11.8144C8.84079 11.8144 6.96706 0.176234 9.44601 0.00166022C11.925 -0.172913 10.8077 12.9899 10.8077 12.9899H12.3206C12.3206 12.9899 14.6484 3.37671 16.0449 2.7948C17.4415 2.21288 16.9759 7.05445 15.6375 10.7787C15.0564 12.5377 14.3243 14.2432 13.4495 15.8762H7.13001L3.61524 10.5343Z" fill="#377938"/>
<path fill-rule="evenodd" clip-rule="evenodd" d="M6.30381 15.4807C4.27787 13.7939 2.51643 11.8128 1.07825 9.60338C-1.37742 5.85586 0.787359 5.9722 3.3245 8.90504C4.98688 10.8874 6.46344 13.0184 7.73544 15.2712C6.26731 11.8656 5.20471 8.29924 4.56973 4.64548C3.58048 -1.27839 5.93151 -0.393904 7.44448 3.09757C8.95745 6.58904 9.77213 15.0849 9.77213 15.0849C9.8165 11.4331 10.0846 7.78733 10.5751 4.16827C11.3083 -0.277541 13.2636 0.11819 13.5546 4.27304C13.6074 7.91778 13.3307 11.5598 12.7281 15.1548C13.7595 12.5411 14.993 10.0118 16.4175 7.58991C18.4426 4.30793 19.4318 5.54162 18.4775 8.42791C17.3809 10.9062 16.0397 13.2688 14.4739 15.4807H6.30381Z" fill="#40AB35"/>
<path fill-rule="evenodd" clip-rule="evenodd" d="M10.2365 15.4805V22.638H6.37268C5.49038 20.35 4.9948 17.9311 4.90625 15.4805H10.2365Z" fill="#7E7E7D"/>
<path fill-rule="evenodd" clip-rule="evenodd" d="M10.2368 15.4805V22.6379H14.1241C15.0139 20.3517 15.5136 17.9322 15.6022 15.4805H10.2368Z" fill="#7E7E7D"/>
</svg>
