<svg width="668" height="484" viewBox="0 0 668 484" fill="none" xmlns="http://www.w3.org/2000/svg">
<rect x="0.968" y="0.968" width="665.984" height="482.064" rx="238.128" fill="#F9EDDB" stroke="#E0AF7B" stroke-width="1.936"/>
<path d="M241.36 46.2216H424.274C424.82 46.2216 425.437 46.2216 425.938 46.2216L427.468 46.2663L430.518 46.3468C432.548 46.4184 434.588 46.3916 436.618 46.5436L442.701 47.0088L445.742 47.2413L448.765 47.6349L454.812 48.3952C470.877 50.8282 486.593 55.3096 501.594 61.5174C509.009 64.8181 516.389 68.244 523.366 72.4212C526.935 74.3623 530.298 76.6522 533.733 78.8258L535.012 79.6487L536.255 80.5343L538.742 82.3054L541.229 84.0675C542.061 84.6489 542.893 85.2393 543.671 85.8833C546.846 88.4147 550.12 90.8388 553.135 93.5759C554.655 94.9177 556.238 96.2057 557.714 97.5922L562.124 101.805C562.849 102.512 563.618 103.183 564.316 103.925L566.418 106.135C567.813 107.61 569.235 109.06 570.613 110.553L574.602 115.169L576.597 117.477L578.475 119.874L582.25 124.668L585.783 129.633L587.555 132.111C588.136 132.942 588.655 133.819 589.209 134.669L592.501 139.794C596.634 146.78 600.605 153.891 603.852 161.334C607.296 168.695 609.997 176.361 612.511 184.081L614.166 189.939L614.997 192.864L615.677 195.834L617.055 201.765C617.466 203.75 617.779 205.763 618.146 207.758C618.96 211.738 619.363 215.79 619.899 219.815C620.212 221.828 620.284 223.858 620.454 225.889C620.597 227.919 620.785 229.941 620.91 231.972C621.16 240.102 621.259 248.26 620.552 256.364C620.382 258.386 620.284 260.425 620.06 262.438L619.291 268.485L618.915 271.508L618.379 274.505L617.314 280.498C616.921 282.492 616.411 284.451 615.972 286.437C615.498 288.405 615.123 290.409 614.514 292.35C613.387 296.25 612.377 300.185 610.981 303.996C608.512 311.733 605.239 319.184 601.857 326.564L599.076 331.985L597.689 334.695C597.206 335.589 596.678 336.457 596.177 337.343L593.145 342.629C592.09 344.364 590.963 346.055 589.871 347.772C581.123 361.476 570.47 373.927 558.6 385.028C557.16 386.468 555.585 387.756 554.056 389.089C552.508 390.404 551.006 391.781 549.431 393.06L544.637 396.826C543.832 397.443 543.054 398.105 542.231 398.696L539.744 400.458L534.771 403.982L529.636 407.265L527.078 408.911L524.439 410.431L519.162 413.473C504.868 421.183 489.661 427.194 473.936 431.228C458.175 435.146 441.958 437.168 425.67 437.239H242.755C242.21 437.239 241.592 437.239 241.091 437.239L239.562 437.194L236.512 437.114C234.481 437.042 232.442 437.069 230.411 436.917L224.329 436.452L221.287 436.22L218.264 435.826L212.217 435.066C196.152 432.633 180.436 428.151 165.435 421.943C158.02 418.643 150.641 415.217 143.664 411.04C140.094 409.099 136.731 406.809 133.296 404.635L132.017 403.812L130.774 402.927L128.287 401.155L125.801 399.393C124.969 398.812 124.137 398.222 123.359 397.578C120.183 395.046 116.909 392.622 113.895 389.885C112.374 388.543 110.791 387.255 109.315 385.869L104.905 381.656C104.181 380.949 103.411 380.278 102.714 379.536L100.612 377.326C99.2163 375.85 97.794 374.401 96.4165 372.907L92.4271 368.292L90.4324 365.984L88.5539 363.587L84.7792 358.792L81.2459 353.828L79.4749 351.35C78.8934 350.518 78.3746 349.642 77.82 348.792L74.5283 343.667C70.3958 336.681 66.4242 329.569 63.1772 322.127C59.7334 314.766 57.0321 307.1 54.5186 299.38L52.8638 293.521L52.0319 290.596L51.3521 287.627L49.9746 281.696C49.5631 279.71 49.25 277.698 48.8833 275.703C48.0693 271.723 47.6668 267.671 47.1301 263.645C46.817 261.633 46.7454 259.602 46.5755 257.572C46.4324 255.541 46.2445 253.52 46.1193 251.489C45.8688 243.358 45.7704 235.201 46.4771 227.097C46.647 225.075 46.7454 223.036 46.9691 221.023L47.7383 214.976L48.114 211.953L48.6507 208.956L49.7152 202.963C50.1087 200.968 50.6186 199.01 51.0569 197.024C51.531 195.056 51.9067 193.052 52.5149 191.111C53.642 187.211 54.6527 183.275 56.0481 179.465C58.5169 171.728 61.7908 164.276 65.172 156.897L67.9538 151.476L69.3403 148.766C69.8233 147.872 70.3511 147.004 70.852 146.118L73.8843 140.832C74.9398 139.097 76.0668 137.406 77.1581 135.689C85.9062 121.985 96.5596 109.534 108.43 98.433C109.87 96.9929 111.444 95.7048 112.974 94.372C114.521 93.0571 116.024 91.6796 117.598 90.4005L122.393 86.6347C123.198 86.0175 123.976 85.3556 124.799 84.7652L127.285 83.0031L132.259 79.4788L137.393 76.196L139.951 74.5501L142.59 73.0295L147.868 69.9882C162.162 62.2777 177.368 56.2667 193.093 52.2326C208.854 48.3147 225.071 46.2932 241.36 46.2216V2.27529C221.493 2.34684 201.6 4.81564 182.279 9.64589C162.985 14.5835 144.316 21.9541 126.811 31.4178L120.335 35.1389L117.106 37.0084L113.957 39.021L107.678 43.0551L101.587 47.3666L98.5454 49.5312C97.5346 50.2558 96.5775 51.0519 95.5936 51.8122L89.7257 56.4277C87.7936 57.9931 85.951 59.6569 84.0546 61.2759C82.1852 62.9128 80.2709 64.505 78.4999 66.2493C63.9733 79.8276 50.9585 95.0697 40.2336 111.841C38.9008 113.943 37.5232 116.019 36.2352 118.148L32.5141 124.615C31.8969 125.697 31.2618 126.77 30.6714 127.862L28.963 131.18L25.5639 137.826C21.3866 146.861 17.4151 156.011 14.3649 165.493C12.6743 170.18 11.3952 174.992 10.0355 179.787C9.31101 182.166 8.82798 184.617 8.24656 187.032C7.70093 189.465 7.09267 191.88 6.60965 194.322L5.29475 201.675L4.64177 205.351L4.16769 209.055L3.22847 216.461C2.95118 218.93 2.81701 221.417 2.61127 223.894C1.77045 233.805 1.84201 243.752 2.18192 253.681C2.32504 256.159 2.53971 258.636 2.71861 261.123C2.92435 263.601 3.04063 266.087 3.40737 268.547C4.04246 273.485 4.57021 278.431 5.5452 283.315C5.99245 285.766 6.39497 288.217 6.89588 290.659L8.56858 297.94L9.41835 301.581L10.4291 305.177L12.4775 312.359C15.5367 321.832 18.891 331.233 23.0862 340.259C27.0935 349.382 31.9148 358.104 37.0044 366.655L41.0296 372.943C41.7095 373.981 42.3535 375.045 43.0691 376.065L45.2248 379.106L49.5631 385.18L54.1697 391.048L56.4775 393.982L58.9105 396.808L63.7944 402.444C65.4761 404.277 67.2114 406.057 68.9199 407.864L71.496 410.557C72.3458 411.46 73.276 412.292 74.1705 413.16L79.5732 418.303C81.3891 420.002 83.3122 421.586 85.1728 423.223C88.876 426.55 92.8475 429.547 96.7475 432.624C97.7135 433.411 98.7243 434.135 99.744 434.851L102.785 437.016L105.827 439.171L107.347 440.254L108.913 441.264C113.108 443.939 117.24 446.712 121.605 449.109C130.157 454.208 139.191 458.448 148.297 462.464C166.679 470.112 185.982 475.595 205.67 478.565L213.076 479.513L216.779 479.978L220.5 480.273L227.933 480.837C230.411 481.007 232.898 480.998 235.385 481.087L239.106 481.177L240.966 481.221C241.601 481.239 242.111 481.221 242.693 481.221H425.607C445.474 481.15 465.367 478.681 484.688 473.851C503.982 468.913 522.65 461.543 540.155 452.079L546.632 448.358L549.861 446.488L553.009 444.476L559.289 440.442L565.38 436.13L568.421 433.965C569.432 433.241 570.389 432.445 571.373 431.684L577.241 427.069C579.173 425.504 581.016 423.84 582.912 422.221C584.782 420.584 586.696 418.992 588.467 417.247C602.993 403.669 616.008 388.427 626.733 371.655C628.066 369.553 629.444 367.478 630.732 365.349L634.453 358.882C635.07 357.8 635.705 356.726 636.295 355.635L638.004 352.316L641.403 345.67C645.58 336.636 649.552 327.485 652.602 318.004C654.292 313.316 655.572 308.504 656.931 303.71C657.656 301.33 658.139 298.879 658.72 296.464C659.266 294.031 659.874 291.616 660.357 289.174L661.672 281.821L662.325 278.145L662.799 274.442L663.738 267.036C664.016 264.567 664.15 262.08 664.355 259.602C665.196 249.691 665.125 239.745 664.785 229.816C664.642 227.338 664.427 224.86 664.248 222.374C664.042 219.896 663.926 217.409 663.559 214.949C662.924 210.012 662.397 205.065 661.422 200.181C660.974 197.73 660.572 195.28 660.071 192.838L658.398 185.556L657.548 181.916L656.538 178.32L654.489 171.137C651.43 161.665 648.076 152.263 643.881 143.238C639.873 134.114 635.052 125.393 629.962 116.842L625.937 110.553C625.257 109.516 624.613 108.451 623.898 107.432L621.742 104.39L617.404 98.3167L612.797 92.4489L610.489 89.515L608.056 86.6884L603.172 81.0531C601.491 79.2194 599.755 77.4393 598.047 75.6325L595.471 72.94C594.621 72.0366 593.691 71.2047 592.796 70.3371L587.394 65.1938C585.578 63.4942 583.655 61.911 581.794 60.2741C578.091 56.9466 574.119 53.95 570.219 50.873C569.253 50.0858 568.242 49.3613 567.223 48.6457L564.181 46.481L561.14 44.3253L559.62 43.243L558.054 42.2322C553.859 39.5577 549.727 36.7847 545.361 34.3875C536.81 29.2978 527.776 25.049 518.67 21.0328C500.288 13.3849 480.985 7.90163 461.297 4.93192L453.891 3.98376L450.188 3.51863L446.466 3.22345L439.033 2.65992C436.556 2.48996 434.069 2.49891 431.582 2.40946L427.861 2.32001L426.001 2.27529C425.365 2.2574 424.856 2.27529 424.274 2.27529H241.36V46.2216Z" fill="#F4E0C7"/>
<path d="M241.36 11.2649C222.227 11.3364 203.085 13.7158 184.488 18.3582C165.928 23.1169 147.966 30.2013 131.114 39.3072L124.888 42.8851L121.776 44.6831L118.752 46.6152L112.705 50.4972L106.847 54.6477L103.922 56.7319C102.947 57.4296 102.025 58.1988 101.077 58.9233L95.4329 63.36C93.5723 64.8628 91.8012 66.4729 89.9765 68.0293C88.1786 69.6036 86.327 71.1331 84.6274 72.8148C70.6465 85.8833 58.1147 100.562 47.7923 116.698C46.5132 118.72 45.1804 120.715 43.946 122.763L40.3591 128.989C39.7687 130.026 39.1515 131.055 38.5791 132.111L36.9421 135.304L33.6683 141.7C29.652 150.394 25.8236 159.196 22.8897 168.328C21.2617 172.837 20.0363 177.47 18.7214 182.077C18.0147 184.367 17.5585 186.728 17.0039 189.054C16.4851 191.388 15.8948 193.714 15.4296 196.067L14.1684 203.142L13.5423 206.675L13.0861 210.235L12.1826 217.364C11.9232 219.744 11.7891 222.132 11.5923 224.52C10.7783 234.065 10.8588 243.645 11.1808 253.207C11.3239 255.595 11.5297 257.983 11.6996 260.372C11.8964 262.76 12.0037 265.148 12.3615 267.519C12.9787 272.268 13.4797 277.036 14.4189 281.732C14.8572 284.085 15.2329 286.455 15.7159 288.798L17.326 295.802L18.1399 299.3L19.1149 302.762L21.0828 309.676C24.0257 318.791 27.2459 327.834 31.2979 336.52C35.1442 345.295 39.7956 353.694 44.6974 361.923L48.5705 367.97C49.2235 368.972 49.8496 370 50.5295 370.975L52.6047 373.9L56.773 379.75L61.2097 385.395L63.428 388.212L65.7716 390.931L70.4766 396.361C72.0956 398.123 73.7683 399.841 75.4142 401.576L77.8919 404.17C78.7149 405.047 79.6093 405.834 80.4681 406.674L85.665 411.63C87.4093 413.267 89.2609 414.787 91.0588 416.371C94.6189 419.582 98.4473 422.453 102.204 425.423C103.134 426.174 104.1 426.881 105.084 427.57L108.009 429.654L110.934 431.738L112.401 432.776L113.913 433.751C117.947 436.327 121.928 438.992 126.132 441.3C134.361 446.211 143.056 450.281 151.813 454.154C169.506 461.507 188.075 466.784 207.021 469.647L214.15 470.559L217.71 471.006L221.288 471.284L228.444 471.829C230.832 471.999 233.229 471.981 235.617 472.071L239.204 472.16C240.403 472.187 241.611 472.223 242.711 472.214H425.625C444.758 472.142 463.9 469.763 482.497 465.121C501.058 460.362 519.019 453.277 535.871 444.172L542.097 440.594L545.21 438.796L548.233 436.864L554.28 432.981L560.139 428.831L563.064 426.747C564.039 426.049 564.96 425.28 565.908 424.555L571.552 420.119C573.413 418.616 575.184 417.006 577.009 415.449C578.807 413.875 580.658 412.346 582.358 410.664C596.339 397.595 608.87 382.917 619.193 366.78C620.472 364.759 621.805 362.764 623.039 360.716L626.626 354.49C627.216 353.452 627.834 352.424 628.406 351.368L630.043 348.175L633.317 341.779C637.333 333.085 641.162 324.283 644.096 315.15C645.723 310.642 646.949 306.008 648.264 301.402C648.97 299.112 649.427 296.751 649.981 294.425C650.5 292.09 651.09 289.765 651.556 287.412L652.817 280.337L653.443 276.803L653.899 273.243L654.803 266.114C655.062 263.735 655.196 261.347 655.393 258.958C656.207 249.414 656.126 239.834 655.804 230.272C655.661 227.884 655.456 225.495 655.286 223.107C655.089 220.719 654.981 218.331 654.624 215.96C654.006 211.21 653.506 206.443 652.566 201.747C652.128 199.394 651.752 197.024 651.269 194.68L649.659 187.676L648.845 184.179L647.87 180.717L645.902 173.803C642.959 164.688 639.739 155.645 635.687 146.959C631.841 138.184 627.19 129.785 622.288 121.556L618.415 115.509C617.762 114.507 617.136 113.478 616.456 112.503L614.381 109.578L610.212 103.728L605.776 98.0841L603.557 95.2665L601.214 92.5473L596.509 87.1177C594.89 85.3555 593.217 83.6381 591.571 81.9028L589.093 79.3088C588.27 78.4322 587.376 77.645 586.517 76.8042L581.32 71.8487C579.576 70.2118 577.724 68.6912 575.926 67.1079C572.366 63.8967 568.538 61.0254 564.781 58.0557C563.851 57.3043 562.885 56.5977 561.901 55.9089L558.976 53.8248L556.051 51.7406L554.584 50.703L553.072 49.728C549.038 47.1519 545.057 44.4863 540.853 42.1785C532.624 37.2677 523.93 33.1978 515.173 29.3247C497.48 21.9719 478.91 16.6944 459.965 13.8321L452.836 12.9197L449.275 12.4725L445.698 12.1952L438.542 11.6495C436.153 11.4796 433.756 11.4975 431.368 11.408L427.781 11.3186C426.582 11.2917 425.375 11.2559 424.274 11.2649H241.36Z" stroke="#F9EDDB" stroke-width="1.936" stroke-miterlimit="10"/>
<path d="M241.359 2.52577C221.511 2.59733 201.635 5.06613 182.341 9.88743C163.065 14.825 144.423 22.1867 126.936 31.6414L120.469 35.3536L117.24 37.2231L114.1 39.2267L107.83 43.2519L101.747 47.5544L98.715 49.7191C97.7042 50.4436 96.7471 51.2397 95.7631 52L89.9042 56.6067C87.9721 58.172 86.1295 59.8358 84.2421 61.4459C82.3726 63.0828 80.4584 64.666 78.6962 66.4192C64.1876 79.9797 51.1817 95.2129 40.4657 111.967C39.1329 114.069 37.7644 116.135 36.4763 118.264L32.7552 124.722C32.138 125.804 31.5119 126.869 30.9126 127.96L29.2041 131.279L25.805 137.916C21.6367 146.941 17.6652 156.083 14.6149 165.556C12.9333 170.243 11.6542 175.046 10.2856 179.832C9.56107 182.211 9.07804 184.653 8.49662 187.077C7.95098 189.501 7.34273 191.916 6.8597 194.358L5.5448 201.702L4.90077 205.378L4.42669 209.073L3.48747 216.47C3.21018 218.939 3.07601 221.417 2.87028 223.894C2.02946 233.796 2.10101 243.734 2.44092 253.654C2.58404 256.132 2.79872 258.609 2.97762 261.087C3.18335 263.565 3.29963 266.043 3.66637 268.503C4.30146 273.431 4.82921 278.378 5.80421 283.262C6.25145 285.704 6.65397 288.163 7.15489 290.596L8.82758 297.869L9.66841 301.5L10.6792 305.087L12.7186 312.261C15.7688 321.725 19.1232 331.108 23.3183 340.133C27.3167 349.248 32.138 357.961 37.2277 366.503L41.2439 372.782C41.9237 373.82 42.5678 374.884 43.2744 375.904L45.4301 378.945L49.7595 385.01L54.3572 390.869L56.6649 393.794L59.098 396.62L63.9819 402.247C65.6635 404.072 67.3988 405.852 69.1073 407.658L71.6834 410.351C72.5332 411.254 73.4635 412.077 74.349 412.954L79.7428 418.097C81.5586 419.797 83.4728 421.371 85.3423 423.017C89.0366 426.344 93.0081 429.332 96.9081 432.409C97.8741 433.187 98.876 433.921 99.8957 434.636L102.928 436.801L105.969 438.957L107.49 440.03L109.055 441.041C113.241 443.715 117.374 446.479 121.739 448.877C130.282 453.966 139.307 458.206 148.395 462.213C166.759 469.852 186.044 475.336 205.705 478.296L213.102 479.245L216.797 479.71L220.509 480.005L227.942 480.568C230.42 480.738 232.906 480.729 235.384 480.819L239.105 480.908L240.966 480.953C241.601 480.971 242.111 480.953 242.692 480.953H425.607C445.455 480.881 465.331 478.413 484.625 473.591C503.901 468.654 522.543 461.292 540.03 451.837L546.497 448.125L549.726 446.256L552.866 444.252L559.136 440.227L565.219 435.924L568.251 433.76C569.262 433.035 570.219 432.239 571.203 431.479L577.062 426.872C578.994 425.307 580.836 423.643 582.724 422.033C584.593 420.396 586.508 418.813 588.27 417.06C602.778 403.499 615.784 388.266 626.5 371.512C627.833 369.41 629.202 367.344 630.49 365.215L634.211 358.757C634.828 357.674 635.454 356.61 636.053 355.519L637.762 352.2L641.161 345.563C645.329 336.538 649.301 327.396 652.351 317.923C654.033 313.236 655.312 308.433 656.68 303.647C657.405 301.268 657.888 298.826 658.469 296.402C659.015 293.978 659.623 291.563 660.106 289.121L661.421 281.777L662.065 278.1L662.539 274.406L663.478 267.009C663.756 264.54 663.89 262.062 664.096 259.584C664.937 249.682 664.865 239.745 664.525 229.825C664.382 227.347 664.167 224.869 663.988 222.392C663.783 219.914 663.666 217.436 663.3 214.976C662.664 210.048 662.137 205.101 661.162 200.217C660.714 197.775 660.312 195.315 659.811 192.882L658.138 185.61L657.298 181.978L656.287 178.392L654.247 171.218C651.197 161.754 647.843 152.371 643.648 143.345C639.649 134.231 634.828 125.518 629.738 116.976L625.722 110.697C625.042 109.659 624.398 108.594 623.692 107.575L621.536 104.533L617.207 98.4688L612.609 92.6099L610.301 89.6849L607.868 86.8583L602.984 81.232C601.302 79.4072 599.567 77.6272 597.859 75.8203L595.283 73.1279C594.433 72.2245 593.502 71.4015 592.617 70.5249L587.223 65.3816C585.407 63.6821 583.493 62.1078 581.624 60.4619C577.929 57.1344 573.958 54.1468 570.058 51.0698C569.092 50.2916 568.09 49.5581 567.07 48.8425L564.038 46.6778L560.997 44.5221L559.476 43.4487L557.911 42.4379C553.724 39.7634 549.592 36.9994 545.227 34.6022C536.684 29.5126 527.659 25.2727 518.571 21.2654C500.207 13.6264 480.922 8.14317 461.261 5.18241L453.864 4.23425L450.169 3.76912L446.457 3.47393L439.024 2.9104C436.546 2.74045 434.06 2.7494 431.582 2.65995L427.861 2.5705L426 2.52577C425.365 2.50788 424.855 2.52577 424.274 2.52577H241.359Z" stroke="#F9EDDB" stroke-width="1.936" stroke-miterlimit="10"/>
<path d="M241.361 20.0041C222.934 20.0756 204.525 22.3655 186.636 26.829C168.782 31.4088 151.509 38.2248 135.301 46.9819L129.308 50.4257L126.311 52.1521L123.404 54.0126L117.59 57.7426L111.955 61.741L109.137 63.7447C108.198 64.4155 107.321 65.158 106.4 65.8557L100.97 70.1224C99.1813 71.5715 97.4729 73.1189 95.7197 74.6127C93.9843 76.1244 92.2043 77.6003 90.5763 79.2193C77.1232 91.7959 65.0565 105.911 55.1366 121.448C53.9022 123.398 52.6231 125.312 51.4334 127.28L47.9896 133.273C47.4172 134.275 46.8268 135.268 46.2812 136.279L44.7069 139.356L41.5583 145.51C37.703 153.874 34.0088 162.335 31.1911 171.119C29.6257 175.458 28.445 179.912 27.1838 184.349C26.504 186.549 26.0746 188.821 25.529 191.058C25.0281 193.303 24.4556 195.539 24.0083 197.802L22.7918 204.609L22.1836 208.008L21.7453 211.434L20.8776 218.286C20.6272 220.576 20.5019 222.875 20.3141 225.173C19.527 234.36 19.6075 243.582 19.9116 252.786C20.0458 255.085 20.2515 257.384 20.4125 259.674C20.6093 261.973 20.7077 264.272 21.0476 266.553C21.6469 271.123 22.121 275.703 23.0244 280.229C23.4448 282.492 23.8026 284.773 24.2677 287.027L25.8242 293.763L26.6024 297.126L27.5416 300.454L29.429 307.1C32.2645 315.866 35.3594 324.56 39.2505 332.924C42.9447 341.368 47.4261 349.445 52.1401 357.361L55.8701 363.175C56.4962 364.141 57.0956 365.125 57.7575 366.074L59.7611 368.891L63.7685 374.518L68.0352 379.947L70.173 382.666L72.4271 385.287L76.9532 390.511C78.5097 392.202 80.1197 393.856 81.703 395.529L84.0913 398.025C84.8784 398.866 85.7461 399.626 86.569 400.431L91.5692 405.199C93.2509 406.773 95.0309 408.231 96.7573 409.76C100.183 412.846 103.868 415.61 107.482 418.473C108.377 419.197 109.307 419.877 110.255 420.53L113.073 422.534L115.89 424.537L117.295 425.539L118.744 426.478C122.635 428.947 126.454 431.523 130.497 433.742C138.414 438.465 146.777 442.383 155.203 446.113C172.225 453.179 190.079 458.26 208.3 461.015L215.152 461.882L218.578 462.321L222.022 462.589L228.909 463.108C231.208 463.269 233.516 463.251 235.815 463.332C238.105 463.376 240.448 463.484 242.693 463.466H425.608C444.034 463.394 462.443 461.104 480.333 456.641C498.187 452.061 515.459 445.245 531.668 436.488L537.661 433.044L540.657 431.318L543.564 429.457L549.378 425.727L555.014 421.729L557.831 419.725C558.771 419.054 559.647 418.312 560.569 417.614L565.998 413.347C567.787 411.898 569.496 410.351 571.249 408.857C572.984 407.345 574.764 405.869 576.392 404.25C589.845 391.674 601.912 377.559 611.832 362.022C613.066 360.072 614.345 358.157 615.535 356.189L618.979 350.196C619.551 349.195 620.142 348.202 620.687 347.191L622.262 344.114L625.41 337.96C629.265 329.596 632.96 321.134 635.777 312.35C637.343 308.012 638.523 303.558 639.785 299.121C640.464 296.92 640.894 294.648 641.439 292.412C641.94 290.167 642.513 287.931 642.96 285.668L644.177 278.861L644.785 275.462L645.223 272.036L646.091 265.184C646.341 262.894 646.466 260.595 646.654 258.296C647.441 249.11 647.361 239.888 647.057 230.683C646.923 228.385 646.717 226.086 646.556 223.796C646.359 221.497 646.261 219.198 645.921 216.917C645.321 212.346 644.847 207.767 643.944 203.24C643.524 200.977 643.166 198.696 642.701 196.442L641.144 189.707L640.366 186.344L639.427 183.016L637.539 176.37C634.704 167.604 631.609 158.91 627.718 150.546C624.024 142.102 619.542 134.025 614.828 126.109L611.098 120.294C610.472 119.328 609.873 118.344 609.211 117.396L607.207 114.579L603.2 108.952L598.933 103.523L596.795 100.803L594.541 98.1825L590.015 92.9587C588.459 91.2681 586.849 89.6133 585.265 87.9406L582.877 85.445C582.09 84.6042 581.222 83.8439 580.399 83.0388L575.399 78.2712C573.717 76.6969 571.937 75.2389 570.211 73.7093C566.785 70.6233 563.1 67.8593 559.486 64.9969C558.592 64.2724 557.661 63.5926 556.713 62.9396L553.896 60.936L551.078 58.9323L549.674 57.9305L548.225 56.9913C544.333 54.5225 540.514 51.9463 536.471 49.728C528.555 45.0051 520.191 41.0872 511.765 37.3572C494.743 30.2907 476.889 25.21 458.668 22.455L451.816 21.5873L448.39 21.149L444.947 20.8807L438.059 20.3619C435.76 20.2009 433.452 20.2187 431.154 20.1382C428.864 20.0935 426.52 19.9862 424.275 20.0041H241.361Z" stroke="#F9EDDB" stroke-width="1.936" stroke-miterlimit="10"/>
<path d="M241.36 28.7432C223.65 28.8148 205.965 31.0153 188.791 35.2999C171.644 39.6918 155.06 46.2484 139.487 54.6566L133.735 57.9663L130.855 59.6211L128.064 61.41L122.474 64.988L117.062 68.8254L114.361 70.7485C113.457 71.3926 112.616 72.1081 111.74 72.779L106.516 76.8847C104.799 78.2712 103.162 79.765 101.471 81.2051C99.8073 82.6631 98.0899 84.0675 96.5245 85.6329C83.5991 97.7174 72.0065 111.278 62.4712 126.207C61.2905 128.076 60.0561 129.919 58.9112 131.806L55.6015 137.558C55.0559 138.524 54.4834 139.472 53.9557 140.438L52.444 143.39L49.4206 149.294C45.7264 157.326 42.1663 165.457 39.4739 173.892C37.9622 178.052 36.8441 182.336 35.6186 186.594C34.9656 188.705 34.5542 190.888 34.0354 193.034C33.5524 195.19 33.0067 197.337 32.5774 199.51L31.4145 206.049L30.8331 209.314L30.4127 212.606L29.5719 219.189C29.3304 221.39 29.2141 223.599 29.0352 225.808C28.2749 234.628 28.3643 243.502 28.6505 252.348C28.7847 254.557 28.9815 256.758 29.1336 258.967C29.3214 261.168 29.4109 263.386 29.7418 265.578C30.3143 269.969 30.7705 274.37 31.6471 278.709C32.0496 280.882 32.3985 283.074 32.8457 285.238L34.3395 291.706L35.0819 294.944L35.9854 298.137L37.8012 304.524C40.5294 312.941 43.4901 321.295 47.2381 329.319C50.7892 337.432 55.1006 345.178 59.6089 352.79L63.1958 358.381C63.804 359.311 64.3765 360.259 65.0026 361.163L66.9258 363.864L70.7811 369.267L74.8868 374.491L76.9351 377.103L79.0998 379.616L83.447 384.634C84.9498 386.262 86.4973 387.845 88.0179 389.456L90.3078 391.862C91.0592 392.667 91.9 393.4 92.6871 394.178L97.4905 398.758C99.1006 400.27 100.818 401.674 102.482 403.141C105.765 406.111 109.316 408.759 112.786 411.514C113.645 412.211 114.54 412.864 115.452 413.49L118.153 415.414L120.855 417.337L122.205 418.303L123.601 419.206C127.34 421.577 131.007 424.054 134.889 426.183C142.492 430.727 150.525 434.475 158.611 438.062C174.953 444.842 192.101 449.726 209.606 452.374L216.189 453.206L219.481 453.626L222.791 453.886L229.41 454.387C231.619 454.548 233.838 454.521 236.047 454.601C238.274 454.646 240.448 454.744 242.711 454.735H425.625C443.336 454.664 461.02 452.463 478.195 448.179C495.342 443.787 511.926 437.23 527.499 428.822L533.251 425.512L536.131 423.858L538.922 422.069L544.512 418.491L549.924 414.653L552.625 412.73C553.529 412.086 554.37 411.371 555.246 410.7L560.47 406.594C562.187 405.208 563.824 403.714 565.515 402.274C567.179 400.816 568.896 399.411 570.461 397.846C583.387 385.761 594.979 372.201 604.515 357.272C605.695 355.402 606.93 353.56 608.075 351.672L611.384 345.921C611.93 344.955 612.502 344.006 613.03 343.04L614.542 340.089L617.565 334.185C621.26 326.152 624.82 318.022 627.512 309.586C629.024 305.427 630.142 301.142 631.367 296.885C632.02 294.774 632.432 292.591 632.951 290.444C633.434 288.289 633.979 286.142 634.409 283.968L635.571 277.43L636.153 274.165L636.573 270.873L637.414 264.289C637.656 262.089 637.772 259.88 637.951 257.67C638.711 248.851 638.622 239.977 638.335 231.131C638.201 228.921 638.004 226.721 637.852 224.511C637.664 222.311 637.575 220.093 637.244 217.901C636.672 213.509 636.215 209.108 635.339 204.77C634.936 202.596 634.587 200.405 634.14 198.24L632.646 191.773L631.904 188.535L631.001 185.342L629.185 178.955C626.457 170.538 623.496 162.183 619.748 154.16C616.197 146.047 611.885 138.3 607.377 130.688L603.79 125.098C603.182 124.168 602.609 123.219 601.983 122.316L600.06 119.615L596.205 114.212L592.099 108.988L590.051 106.376L587.886 103.863L583.539 98.8445C582.036 97.2165 580.489 95.6333 578.968 94.0232L576.678 91.617C575.927 90.812 575.086 90.0785 574.299 89.3003L569.495 84.7205C567.885 83.2088 566.168 81.8044 564.504 80.3375C561.221 77.3678 557.67 74.7201 554.2 71.965C553.341 71.2673 552.446 70.6144 551.534 69.9882L548.833 68.0651L546.131 66.1419L544.781 65.1758L543.385 64.2724C539.646 61.902 535.979 59.4243 532.097 57.2954C524.494 52.7514 516.461 49.0035 508.375 45.4166C492.032 38.6363 474.885 33.7524 457.38 31.1047L450.796 30.2728L447.505 29.8524L444.195 29.593L437.576 29.0921C435.366 28.9311 433.148 28.9579 430.939 28.8774C428.711 28.8327 426.538 28.7343 424.275 28.7432H241.36Z" stroke="#F9EDDB" stroke-width="1.936" stroke-miterlimit="10"/>
<path d="M241.359 37.4825C224.364 37.554 207.404 39.665 190.937 43.7707C174.505 47.9838 158.61 54.2631 143.672 62.3225L138.153 65.4979L135.398 67.0812L132.723 68.7986L127.365 72.2334L122.168 75.9187L119.574 77.7614C118.706 78.3786 117.901 79.0673 117.061 79.7114L112.051 83.6471C110.397 84.9799 108.831 86.4111 107.212 87.7886C105.611 89.184 103.974 90.5347 102.471 92.0375C90.0738 103.639 78.9463 116.636 69.8136 130.957C68.6776 132.755 67.4969 134.517 66.3966 136.333L63.2212 141.852C62.6934 142.773 62.1478 143.685 61.6469 144.616L60.1978 147.451L57.2907 153.113C53.7575 160.824 50.3316 168.606 47.7555 176.692C46.3064 180.681 45.233 184.787 44.0612 188.866C43.4261 190.897 43.0415 192.981 42.5406 195.047C42.0844 197.113 41.5477 199.171 41.1362 201.255L40.0181 207.516L39.4546 210.647L39.061 213.804L38.256 220.12C38.0234 222.231 37.9161 224.351 37.7372 226.47C37.0037 234.932 37.0931 243.448 37.3615 251.937C37.4867 254.057 37.6745 256.168 37.8356 258.287C38.0145 260.398 38.095 262.527 38.417 264.629C38.9716 268.834 39.4009 273.064 40.2417 277.224C40.6264 279.308 40.9573 281.41 41.3867 283.485L42.8179 289.684L43.5335 292.788L44.4011 295.847L46.1364 301.965C48.7573 310.034 51.5928 318.048 55.1797 325.732C58.5788 333.514 62.7203 340.938 67.0407 348.237L70.4755 353.595C71.0569 354.481 71.6026 355.393 72.2108 356.27L74.0624 358.864L77.7567 364.052L81.6924 369.061L83.6603 371.566L85.7445 373.972L89.9128 378.784C91.3529 380.341 92.8378 381.861 94.2958 383.4L96.4873 385.708C97.2118 386.486 98.0169 387.184 98.7683 387.926L103.375 392.318C104.922 393.776 106.568 395.109 108.16 396.513C111.309 399.367 114.717 401.898 118.045 404.546C118.867 405.216 119.726 405.843 120.603 406.442L123.197 408.285L125.791 410.127L127.088 411.049L128.43 411.907C132.016 414.179 135.532 416.568 139.262 418.598C146.552 422.963 154.262 426.55 162.009 429.994C177.68 436.488 194.112 441.175 210.893 443.715L217.208 444.511L220.365 444.914L223.541 445.156L229.892 445.639C232.012 445.791 234.14 445.773 236.26 445.844L239.445 445.925C240.5 445.952 241.556 445.987 242.71 445.978H425.624C442.619 445.907 459.579 443.796 476.047 439.69C492.478 435.477 508.373 429.198 523.311 421.138L528.83 417.963L531.585 416.38L534.26 414.662L539.618 411.227L544.815 407.542L547.409 405.7C548.277 405.082 549.082 404.394 549.922 403.75L554.932 399.814C556.586 398.481 558.152 397.05 559.771 395.672C561.372 394.277 563.009 392.926 564.512 391.423C576.909 379.822 588.037 366.825 597.169 352.504C598.305 350.706 599.486 348.944 600.586 347.128L603.753 341.609C604.281 340.688 604.826 339.776 605.327 338.845L606.776 336.01L609.683 330.348C613.217 322.637 616.643 314.855 619.219 306.769C620.668 302.779 621.741 298.674 622.913 294.595C623.548 292.564 623.933 290.48 624.434 288.414C624.89 286.348 625.426 284.29 625.838 282.206L626.956 275.945L627.52 272.814L627.913 269.656L628.718 263.341C628.951 261.23 629.058 259.11 629.237 256.99C629.97 248.529 629.881 240.013 629.613 231.524C629.487 229.404 629.3 227.293 629.139 225.173C628.96 223.062 628.879 220.934 628.557 218.832C628.003 214.627 627.573 210.396 626.732 206.237C626.348 204.153 626.017 202.051 625.587 199.976L624.156 193.777L623.441 190.673L622.573 187.614L620.838 181.495C618.217 173.427 615.381 165.413 611.794 157.729C608.395 149.947 604.254 142.523 599.933 135.223L596.499 129.865C595.917 128.98 595.372 128.068 594.763 127.191L592.912 124.597L589.217 119.409L585.282 114.4L583.314 111.895L581.23 109.489L577.061 104.677C575.621 103.12 574.136 101.6 572.678 100.061L570.487 97.7533C569.762 96.9751 568.957 96.2773 568.206 95.5349L563.599 91.143C562.052 89.685 560.406 88.3522 558.814 86.9478C555.665 84.0944 552.257 81.563 548.93 78.9153C548.107 78.2444 547.248 77.6183 546.371 77.019L543.777 75.1763L541.183 73.3337L539.886 72.4123L538.545 71.5536C534.958 69.2816 531.442 66.8933 527.712 64.8628C520.422 60.4977 512.712 56.9108 504.965 53.467C489.294 46.973 472.862 42.2859 456.081 39.7455L449.766 38.9494L446.609 38.5469L443.433 38.3054L437.082 37.8224C434.963 37.6703 432.834 37.6882 430.714 37.6167L427.529 37.5361C426.474 37.5093 425.418 37.4735 424.264 37.4825H241.35" stroke="#F9EDDB" stroke-width="1.936" stroke-miterlimit="10"/>
<path d="M241.36 46.2217C225.071 46.2933 208.845 48.3148 193.093 52.2327C177.368 56.2668 162.162 62.2778 147.868 69.9883L142.59 73.0296L139.951 74.5502L137.393 76.1961L132.259 79.4789L127.285 83.0031L124.799 84.7653C123.967 85.3557 123.198 86.0176 122.393 86.6348L117.598 90.4006C116.015 91.6797 114.521 93.0483 112.974 94.3721C111.444 95.7139 109.87 96.993 108.43 98.4331C96.5686 109.543 85.9063 121.985 77.1581 135.689C76.0758 137.406 74.9398 139.097 73.8843 140.832L70.852 146.118C70.3511 147.004 69.8233 147.872 69.3403 148.766L67.9538 151.476L65.172 156.897C61.7908 164.277 58.517 171.719 56.0482 179.465C54.6528 183.284 53.642 187.211 52.5149 191.111C51.9067 193.052 51.5399 195.047 51.0569 197.024C50.6186 199.001 50.1088 200.969 49.7152 202.963L48.6507 208.956L48.114 211.953L47.7384 214.976L46.9691 221.023C46.7455 223.045 46.6471 225.075 46.4771 227.097C45.7705 235.201 45.8599 243.358 46.1193 251.489C46.2446 253.52 46.4235 255.541 46.5755 257.572C46.7455 259.593 46.817 261.633 47.1301 263.646C47.6668 267.671 48.0693 271.723 48.8833 275.703C49.25 277.698 49.5631 279.711 49.9746 281.696L51.3521 287.627L52.0319 290.597L52.8638 293.522L54.5186 299.38C57.0321 307.091 59.7335 314.766 63.1773 322.127C66.4243 329.57 70.3958 336.681 74.5283 343.667L77.8201 348.792C78.3747 349.642 78.8935 350.518 79.4749 351.35L81.246 353.828L84.7792 358.793L88.554 363.587L90.4324 365.984L92.4271 368.292L96.4165 372.908C97.794 374.401 99.2163 375.85 100.612 377.326L102.714 379.536C103.403 380.278 104.172 380.949 104.905 381.656L109.315 385.869C110.791 387.264 112.374 388.543 113.895 389.885C116.909 392.622 120.174 395.037 123.359 397.578C124.146 398.222 124.969 398.812 125.801 399.393L128.287 401.156L130.774 402.927L132.017 403.812L133.296 404.635C136.731 406.809 140.095 409.099 143.664 411.04C150.641 415.217 158.02 418.643 165.435 421.944C180.436 428.16 196.152 432.642 212.217 435.066L218.264 435.826L221.287 436.22L224.329 436.452L230.411 436.917C232.442 437.06 234.481 437.043 236.512 437.114L239.562 437.195L241.091 437.239C241.592 437.257 242.201 437.239 242.755 437.239H425.67C441.958 437.168 458.184 435.146 473.936 431.228C489.661 427.194 504.868 421.183 519.162 413.473L524.439 410.431L527.078 408.911L529.636 407.265L534.771 403.982L539.744 400.458L542.231 398.696C543.063 398.105 543.832 397.443 544.637 396.826L549.431 393.06C551.015 391.781 552.508 390.413 554.056 389.089C555.585 387.747 557.16 386.468 558.6 385.028C570.461 373.918 581.123 361.476 589.871 347.772C590.954 346.055 592.09 344.364 593.145 342.629L596.177 337.343C596.678 336.457 597.206 335.589 597.689 334.695L599.076 331.985L601.857 326.564C605.239 319.184 608.512 311.742 610.981 303.996C612.377 300.177 613.387 296.25 614.514 292.35C615.123 290.409 615.489 288.414 615.972 286.437C616.411 284.46 616.921 282.492 617.314 280.498L618.379 274.505L618.915 271.508L619.291 268.485L620.06 262.438C620.284 260.416 620.382 258.386 620.552 256.364C621.259 248.26 621.169 240.103 620.91 231.972C620.785 229.941 620.606 227.92 620.454 225.889C620.284 223.868 620.212 221.828 619.899 219.815C619.363 215.79 618.96 211.738 618.146 207.758C617.779 205.763 617.466 203.75 617.055 201.765L615.677 195.834L614.997 192.864L614.166 189.94L612.511 184.081C609.997 176.37 607.296 168.695 603.852 161.334C600.605 153.892 596.634 146.78 592.501 139.794L589.209 134.669C588.655 133.819 588.136 132.943 587.554 132.111L585.783 129.633L582.25 124.669L578.475 119.874L576.597 117.477L574.602 115.169L570.613 110.553C569.235 109.06 567.813 107.611 566.418 106.135L564.316 103.925C563.627 103.183 562.858 102.512 562.124 101.805L557.714 97.5923C556.238 96.1969 554.655 94.9178 553.135 93.576C550.12 90.8389 546.855 88.4238 543.671 85.8834C542.884 85.2394 542.061 84.649 541.229 84.0676L538.742 82.3054L536.255 80.5344L535.012 79.6488L533.733 78.8259C530.298 76.6523 526.935 74.3624 523.366 72.4213C516.389 68.2441 509.009 64.8182 501.594 61.5175C486.593 55.3008 470.877 50.8194 454.812 48.3953L448.765 47.635L445.742 47.2414L442.701 47.0088L436.618 46.5437C434.588 46.4006 432.548 46.4185 430.518 46.3469L427.467 46.2664L425.938 46.2217C425.446 46.2038 424.829 46.2217 424.274 46.2217H241.36Z" stroke="#F9EDDB" stroke-width="1.936" stroke-miterlimit="10"/>
</svg>
