<svg width="122" height="108" viewBox="0 0 122 108" fill="none" xmlns="http://www.w3.org/2000/svg">
<path d="M70.7344 47.9863C70.6189 47.9863 70.4975 47.9863 70.382 47.9863C65.2916 47.8908 60.6403 45.8703 56.1392 43.9112C55.0299 43.4265 53.88 42.9282 52.7591 42.4777L52.4875 42.3685C47.27 40.2524 40.7755 37.6243 31.8832 43.3105L29 36.5595C39.9551 29.5559 48.6798 34.6618 54.2325 36.9144L54.5041 37.0236C55.677 37.5015 56.8557 38.0134 57.9997 38.5049C62.2639 40.3616 66.2969 42.1159 70.4629 42.191C74.9986 42.2456 83.2727 39.3377 86.4679 35.713L87 40.621C82.8572 45.3242 76.6106 48 70.7344 48" fill="#721185"/>
<path d="M108.96 30.3019C106.208 29.4595 103.523 28.1536 101.032 26.4108C98.2069 24.4341 95.6985 21.9805 93.2759 19.601C91.9174 18.2706 90.5095 16.8892 89.0985 15.6562C85.6476 12.6332 76.7963 9.20672 72.2357 9.50864L72.7911 5.36249C78.4136 4.94919 87.0948 7.9231 91.4528 11.7379C92.9743 13.0704 94.4317 14.5028 95.8451 15.8859C98.2236 18.216 100.468 20.4153 102.949 22.1491C108.023 25.699 114.055 27.1028 119.495 25.994L119.548 32.0718C115.758 32.8427 112.864 31.4968 108.955 30.3003" fill="#81D0F4"/>
<path d="M45.8977 81.5981C42.5702 82.2719 39.3565 83.4749 36.4099 85.1897C33.0674 87.1347 30.1465 89.6488 27.3261 92.0881C25.7443 93.4516 24.105 94.8676 22.4522 96.1159C18.4104 99.1775 7.75644 102.153 2.13018 101.356L3.08769 106.085C10.0267 107.114 20.5015 104.631 25.6061 100.768C27.3881 99.4187 29.0848 97.9502 30.7305 96.5328C33.5001 94.1448 36.1129 91.8907 39.0479 90.1851C45.0509 86.6923 52.373 85.7142 59.1336 87.5089L58.7956 80.6638C54.0852 79.4153 50.6178 80.6424 45.8912 81.5994" fill="#FAC913"/>
<path d="M48.6357 6.55688C47.0221 6.08325 45.3361 5.8678 43.6488 5.9383C41.735 6.0182 39.8743 6.44487 38.075 6.86195C37.0669 7.09385 36.0215 7.33551 35.0089 7.50056C32.5306 7.90808 27.1752 6.75012 24.8943 5.1009L24.2212 7.39403C27.0237 9.44818 32.1867 10.7808 35.3158 10.2676C36.4084 10.0881 37.4911 9.83669 38.5396 9.59597C40.3048 9.18957 41.9705 8.80569 43.6504 8.7365C47.0876 8.59319 50.5217 9.85645 53.0692 12.2048L54.5027 9.1276C52.7273 7.49223 50.9246 7.22872 48.6325 6.55595" fill="#F4624A"/>
<path d="M103.636 68.5569C102.022 68.0832 100.336 67.8678 98.6488 67.9383C96.735 68.0182 94.8743 68.4449 93.075 68.8619C92.0669 69.0939 91.0215 69.3355 90.0089 69.5006C87.5306 69.9081 82.1752 68.7501 79.8943 67.1009L79.2212 69.394C82.0237 71.4482 87.1867 72.7808 90.3158 72.2676C91.4084 72.0881 92.4911 71.8367 93.5396 71.596C95.3048 71.1896 96.9705 70.8057 98.6504 70.7365C102.088 70.5932 105.522 71.8564 108.069 74.2048L109.503 71.1276C107.727 69.4922 105.925 69.2287 103.633 68.556" fill="#97C124"/>
</svg>
