<svg width="123" height="179" viewBox="0 0 123 179" fill="none" xmlns="http://www.w3.org/2000/svg">
<path d="M17.3429 60.5115L17.8228 67.0494L12.3489 63.4567L6.29501 65.9299L8.01659 59.6102L3.78869 54.6165L10.3288 54.3027L13.7721 48.7369L16.0874 54.8601L22.452 56.4239L17.3429 60.5115Z" fill="white"/>
<path d="M71.3851 168.71L71.8385 174.886L66.667 171.492L60.9476 173.829L62.5741 167.858L58.5797 163.14L64.7585 162.844L68.0115 157.586L70.199 163.371L76.2119 164.848L71.3851 168.71Z" fill="white"/>
<path d="M118.784 120.023L119.082 124.089L115.679 121.855L111.914 123.393L112.985 119.463L110.356 116.358L114.422 116.163L116.563 112.702L118.003 116.509L121.961 117.482L118.784 120.023Z" fill="white"/>
<path d="M49.0076 20.0874L49.6718 29.1374L42.0946 24.1641L33.7146 27.5877L36.0977 18.8397L30.2453 11.9273L39.2984 11.4929L44.0646 3.78844L47.2696 12.2645L56.0797 14.4291L49.0076 20.0874Z" fill="#FFD300"/>
</svg>
