<svg width="208" height="203" viewBox="0 0 208 203" fill="none" xmlns="http://www.w3.org/2000/svg">
<path d="M78.0149 190.407L82 198.111L73.6866 196.704L67.8657 203L66.5821 194.368L59 190.577L66.5224 186.648L67.6567 178L73.5821 184.204L81.8806 182.657L78.0149 190.407Z" fill="#FFD300"/>
<path d="M137.224 139.555L138.272 144.345L133.939 142.36L129.84 144.946L130.402 140.045L126.817 136.867L131.499 135.822L133.383 131.266L135.711 135.52L140.468 135.889L137.224 139.555Z" fill="#FFD300"/>
<path d="M196.666 101.982L197.908 106.004L200.342 102.568L204.559 102.628L202.039 99.2526L203.398 95.2591L199.408 96.6067L196.034 94.0873L196.085 98.2977L192.647 100.723L196.666 101.982Z" fill="#ED7100"/>
<path d="M136.919 196.108L136.843 198.747L134.838 197.146L132.36 197.963L133.292 195.476L131.833 193.348L134.415 193.412L135.993 191.277L136.655 193.803L139.092 194.616L136.919 196.108Z" fill="#81D0F4"/>
<path d="M187.919 156.108L187.843 158.747L185.838 157.146L183.36 157.963L184.292 155.476L182.833 153.348L185.415 153.412L186.993 151.277L187.655 153.803L190.092 154.616L187.919 156.108Z" fill="#FFD300"/>
<path d="M134.851 57.344L134.71 62.2446L130.986 59.2706L126.383 60.7882L128.114 56.169L125.404 52.2176L130.2 52.3364L133.13 48.3721L134.359 53.0626L138.886 54.5718L134.851 57.344Z" fill="#81D0F4"/>
<path d="M89.6691 100.512L90.149 107.049L84.6751 103.457L78.6212 105.93L80.3428 99.6102L76.1149 94.6165L82.655 94.3027L86.0982 88.7369L88.4136 94.8601L94.7782 96.4239L89.6691 100.512Z" fill="white"/>
<path d="M119.464 87.9662L119.937 96.4232L112.946 91.6584L105.07 94.717L107.436 86.5915L102.087 80.0449L110.543 79.7871L115.117 72.6743L117.97 80.637L126.157 82.8007L119.464 87.9662Z" fill="#FF4F79"/>
<path opacity="0.4" d="M162.658 116.376L162.966 121.894L158.405 118.785L153.265 120.78L154.81 115.479L151.319 111.207L156.837 111.039L159.821 106.397L161.683 111.593L167.025 113.005L162.658 116.376Z" fill="#FF4F79"/>
<path d="M7.91779 5.06576L9.50534 8.15511L6.09178 7.53607L3.65119 9.99565L3.18249 6.55696L0.0866105 4.99669L3.21144 3.48968L3.7385 0.0622217L6.13544 2.56935L9.56334 2.0144L7.91779 5.06576Z" fill="#ED7100"/>
<path d="M78.9178 65.0658L80.5053 68.1551L77.0918 67.5361L74.6512 69.9956L74.1825 66.557L71.0866 64.9967L74.2114 63.4897L74.7385 60.0622L77.1354 62.5694L80.5633 62.0144L78.9178 65.0658Z" fill="#ED7100"/>
<path d="M51.7839 9.02334L52.0822 13.0886L48.6786 10.8546L44.9142 12.3925L45.9847 8.46288L43.3558 5.35777L47.4225 5.16267L49.5635 1.70178L51.0032 5.50927L54.9607 6.48162L51.7839 9.02334Z" fill="white"/>
<path d="M98.7839 150.023L99.0822 154.089L95.6786 151.855L91.9142 153.393L92.9847 149.463L90.3558 146.358L94.4225 146.163L96.5635 142.702L98.0032 146.509L101.961 147.482L98.7839 150.023Z" fill="white"/>
</svg>
