<svg width="142" height="96" viewBox="0 0 142 96" fill="none" xmlns="http://www.w3.org/2000/svg">
<path d="M111.015 62.4072L115 70.1114L106.687 68.7036L100.866 75L99.5821 66.3676L92 62.5774L99.5224 58.6479L100.657 50L106.582 56.2036L114.881 54.6566L111.015 62.4072Z" fill="#FFD300"/>
<path d="M139.488 5.76705L141.076 8.8564L137.662 8.23736L135.221 10.6969L134.753 7.25825L131.657 5.69799L134.782 4.19097L135.309 0.763516L137.706 3.27065L141.134 2.7157L139.488 5.76705Z" fill="#ED7100"/>
<path d="M14.0904 87.2372L14.4803 92.5487L10.0331 89.6299L5.11479 91.6392L6.51345 86.5049L3.07859 82.4479L8.39198 82.1929L11.1894 77.6711L13.0704 82.6458L18.2412 83.9162L14.0904 87.2372Z" fill="#ED7100"/>
</svg>
