<svg width="142" height="139" viewBox="0 0 142 139" fill="none" xmlns="http://www.w3.org/2000/svg">
<path d="M100.579 101.876C93.6442 98.9791 92.4537 97.8534 88.6958 95.498C86.5892 94.1829 84.4055 92.8161 82.2449 91.6642C76.9592 88.8361 64.1963 87.8046 58 90.2459V84.0395C65.6315 80.9707 78.0781 81.4263 84.7527 84.9937C87.0831 86.2401 89.344 87.6584 91.5355 89.0252C95.2239 91.329 98.704 93.5038 102.423 94.9049C110.032 97.776 118.558 97.1399 125.812 93.1513L127 101.868C121.946 104.644 107.514 104.774 100.579 101.876Z" fill="#721185"/>
<path d="M70.2309 31.7868C66.6616 32.5095 63.2146 33.7999 60.054 35.6392C56.4688 37.7254 53.3358 40.4222 50.3105 43.0386C48.6138 44.5011 46.8555 46.0199 45.0827 47.3589C40.7473 50.6428 29.3197 53.8343 23.2849 52.9793L24.3119 58.0515C31.7549 59.1553 42.9903 56.4927 48.4656 52.349C50.377 50.9015 52.1969 49.3263 53.9622 47.8061C56.9329 45.2446 59.7355 42.8269 62.8835 40.9974C69.3225 37.2509 77.1764 36.2018 84.4279 38.1269L84.0654 30.7846C79.0129 29.4455 75.2937 30.7617 70.2239 31.7882" fill="#C1022F"/>
<path d="M45.8977 136.04C42.5702 135.367 39.3565 134.164 36.4099 132.449C33.0674 130.504 30.1465 127.99 27.3261 125.55C25.7443 124.187 24.105 122.771 22.4522 121.523C18.4104 118.461 7.75644 115.486 2.13018 116.283L3.08769 111.554C10.0267 110.525 20.5015 113.007 25.6061 116.87C27.3881 118.22 29.0848 119.688 30.7305 121.106C33.5001 123.494 36.1129 125.748 39.0479 127.453C45.0509 130.946 52.373 131.924 59.1336 130.13L58.7956 136.975C54.0852 138.223 50.6178 136.996 45.8912 136.039" fill="white"/>
<path d="M105.636 124.557C104.022 124.083 102.336 123.868 100.649 123.938C98.735 124.018 96.8743 124.445 95.075 124.862C94.0669 125.094 93.0215 125.336 92.0089 125.501C89.5306 125.908 84.1752 124.75 81.8943 123.101L81.2212 125.394C84.0237 127.448 89.1867 128.781 92.3158 128.268C93.4084 128.088 94.4911 127.837 95.5396 127.596C97.3048 127.19 98.9705 126.806 100.65 126.736C104.088 126.593 107.522 127.856 110.069 130.205L111.503 127.128C109.727 125.492 107.925 125.229 105.633 124.556" fill="#F4624A"/>
<path d="M130.52 17.0302C127.944 16.7353 125.421 16.0303 123.067 14.9185C120.397 13.6576 118.011 11.936 115.706 10.2649C114.413 9.33112 113.074 8.36114 111.735 7.51963C108.46 5.45496 100.16 3.8883 95.9324 4.86268L96.3515 1.20272C101.563 -0.0339484 109.694 1.16931 113.83 3.77423C115.273 4.68425 116.66 5.69044 118.005 6.661C120.268 8.29651 122.403 9.84034 124.747 10.9459C129.542 13.2103 135.177 13.4754 140.202 11.668L140.393 16.8974C136.891 18.1552 134.173 17.4485 130.515 17.0296" fill="#97C124"/>
</svg>
