<svg width="164" height="204" viewBox="0 0 164 204" fill="none" xmlns="http://www.w3.org/2000/svg">
<path d="M136.276 25.9669L134.927 29.4745L132.868 26.3077L129 26.1558L131.477 23.2816L130.434 19.6815L134.026 21.0705L137.25 19L136.993 22.7298L140.026 25.0521L136.276 25.9669Z" fill="#FFDC37"/>
<path d="M11.2739 87.2044L13 90.4361L9.38546 89.8456L6.85464 92.4867L6.29656 88.8722L3 87.2758L6.2706 85.6275L6.76379 82L9.34653 84.6022L12.9481 83.9533L11.2739 87.2044Z" fill="#97C124"/>
<path d="M114.015 93.4072L118 101.111L109.687 99.7036L103.866 106L102.582 97.3676L95 93.5774L102.522 89.6479L103.657 81L109.582 87.2036L117.881 85.6566L114.015 93.4072Z" fill="#FFD300"/>
<path d="M12.8508 147.344L12.7097 152.245L8.98568 149.271L4.38276 150.788L6.1137 146.169L3.4041 142.218L8.19956 142.336L11.13 138.372L12.3593 143.063L16.8856 144.572L12.8508 147.344Z" fill="#FFD300"/>
<path d="M58.4661 175.726L58.3576 179.496L55.493 177.208L51.9523 178.376L53.2838 174.822L51.1994 171.783L54.8883 171.874L57.1425 168.825L58.0881 172.433L61.5698 173.594L58.4661 175.726Z" fill="#81D0F4"/>
<path d="M158.593 11.532L158.757 16.3384L154.609 13.1772L149.814 14.3731L151.357 9.94517L148.224 5.8886L153.328 6.31293L156.189 2.60547L157.796 7.29333L162.703 9.06668L158.593 11.532Z" fill="#97C124"/>
<path d="M104.212 48.7776L104.406 52.2455L101.539 50.2916L98.3094 51.5458L99.2798 48.2138L97.0862 45.5292L100.554 45.4235L102.429 42.5067L103.599 45.772L106.957 46.6593L104.212 48.7776Z" fill="#FF4F79"/>
<path opacity="0.2" d="M105.018 117.228L105.693 129.309L95.7058 122.502L84.4532 126.872L87.8341 115.264L80.192 105.911L92.2725 105.543L98.8066 95.3813L102.883 106.757L114.579 109.848L105.018 117.228Z" fill="#FF4F79"/>
<path opacity="0.2" d="M137.085 41.2689L137.465 48.0773L131.837 44.2413L125.496 46.7037L127.401 40.1622L123.095 34.8918L129.903 34.6842L133.585 28.958L135.882 35.3685L142.473 37.1104L137.085 41.2689Z" fill="#FF4F79"/>
<path d="M55.4644 114.966L55.9369 123.423L48.9463 118.658L41.0697 121.717L43.4363 113.592L38.087 107.045L46.5431 106.787L51.1168 99.6743L53.9699 107.637L62.1569 109.801L55.4644 114.966Z" fill="#FF4F79"/>
<path d="M77.2123 25.7776L77.406 29.2455L74.5394 27.2916L71.3094 28.5458L72.2798 25.2138L70.0862 22.5292L73.5539 22.4235L75.4294 19.5067L76.5994 22.772L79.9567 23.6593L77.2123 25.7776Z" fill="#ED7100"/>
<path d="M91.3851 162.71L91.8385 168.886L86.667 165.492L80.9476 167.829L82.5741 161.858L78.5797 157.14L84.7585 156.844L88.0115 151.586L90.199 157.371L96.2119 158.848L91.3851 162.71Z" fill="white"/>
<path d="M52.3851 67.7098L52.8385 73.8865L47.667 70.4922L41.9476 72.8288L43.5741 66.8582L39.5797 62.1404L45.7585 61.844L49.0115 56.5856L51.199 62.3706L57.2119 63.848L52.3851 67.7098Z" fill="white"/>
<path d="M133.589 191.028L130.359 199.998L125.212 191.987L115.706 191.692L121.731 184.314L119.068 175.179L127.943 178.63L135.81 173.272L135.264 182.777L142.795 188.62L133.589 191.028Z" fill="#ED7100"/>
</svg>
