<svg width="1128" height="588" viewBox="0 0 1128 588" fill="none" xmlns="http://www.w3.org/2000/svg">
<g clip-path="url(#clip0_133_437)">
<path d="M932.016 40.127H932.437C933.876 36.5134 936.053 33.2393 938.83 30.5137C941.608 27.7881 944.923 25.6709 948.566 24.2973C952.208 22.9238 956.097 22.3241 959.985 22.5364C963.872 22.7488 967.672 23.7686 971.143 25.5308C981.619 10.0572 998.522 0 1017.6 0C1036.45 0 1053.24 9.80286 1063.68 24.9459C1067.41 23.2636 1071.46 22.419 1075.56 22.4713C1079.65 22.5237 1083.68 23.4717 1087.37 25.2488C1091.05 27.0258 1094.31 29.5886 1096.89 32.7567C1099.48 35.9248 1101.34 39.6212 1102.35 43.5854C1109.03 44.1078 1115.3 47.005 1120.02 51.7512C1124.74 56.4975 1127.61 62.7781 1128.09 69.4531C1128.57 76.1281 1126.64 82.7551 1122.65 88.1312C1118.66 93.5073 1112.88 97.2763 1106.34 98.7538C1103.57 100.265 1100.55 101.296 1097.43 101.805C1095.62 105.811 1092.89 109.335 1089.46 112.089C1086.03 114.844 1082 116.753 1077.7 117.66C1073.39 118.568 1068.93 118.449 1064.68 117.314C1060.43 116.179 1056.51 114.058 1053.23 111.125C1042.66 120.302 1028.95 125.039 1014.97 124.345C1000.98 123.651 987.81 117.578 978.207 107.4C974.796 110.268 970.749 112.282 966.402 113.272C962.054 114.263 957.533 114.203 953.214 113.096C948.895 111.989 944.903 109.868 941.57 106.909C938.237 103.95 935.66 100.238 934.053 96.0837C933.417 96.0837 932.78 96.1855 932.118 96.1855C924.676 96.1855 917.539 93.2324 912.277 87.9759C907.015 82.7194 904.059 75.5901 904.059 68.1563C904.059 60.7225 907.015 53.5931 912.277 48.3366C917.539 43.0801 924.676 40.127 932.118 40.127H932.016Z" fill="#40AB35"/>
</g>
<path d="M27.9576 48.127H28.3777C29.8168 44.5134 31.9945 41.2393 34.7716 38.5137C37.5488 35.7881 40.8644 33.6709 44.5068 32.2973C48.1492 30.9238 52.0383 30.3241 55.9257 30.5364C59.8132 30.7488 63.6136 31.7686 67.0843 33.5308C77.5597 18.0572 94.4628 8 113.543 8C132.393 8 149.182 17.8029 159.619 32.9459C163.35 31.2636 167.404 30.419 171.498 30.4713C175.591 30.5237 179.622 31.4717 183.309 33.2488C186.995 35.0258 190.247 37.5886 192.835 40.7567C195.423 43.9248 197.284 47.6212 198.287 51.5854C204.967 52.1078 211.237 55.005 215.96 59.7512C220.684 64.4975 223.547 70.7781 224.031 77.4531C224.514 84.1281 222.586 90.7551 218.596 96.1312C214.606 101.507 208.818 105.276 202.284 106.754C199.507 108.265 196.495 109.296 193.374 109.805C191.563 113.811 188.832 117.335 185.403 120.089C181.973 122.844 177.943 124.753 173.637 125.66C169.331 126.568 164.872 126.449 160.621 125.314C156.37 124.179 152.446 122.058 149.169 119.125C138.603 128.302 124.892 133.039 110.908 132.345C96.924 131.651 83.7512 125.578 74.1485 115.4C70.7375 118.268 66.6899 120.282 62.3427 121.272C57.9955 122.263 53.4743 122.203 49.1552 121.096C44.8362 119.989 40.8442 117.868 37.5114 114.909C34.1786 111.95 31.6014 108.238 29.9942 104.084C29.3578 104.084 28.7213 104.185 28.0595 104.185C20.6176 104.185 13.4806 101.232 8.21843 95.9759C2.95626 90.7194 -2.07121e-06 83.5901 -2.07121e-06 76.1563C-2.07121e-06 68.7225 2.95626 61.5931 8.21843 56.3366C13.4806 51.0801 20.6176 48.127 28.0595 48.127H27.9576Z" fill="#40AB35"/>
<rect y="68" width="1128" height="520" fill="#40AB35"/>
<path d="M351.153 67.8824H776.723L1126 197.941V278H1V199.345L351.153 67.8824Z" fill="url(#paint0_linear_133_437)"/>
<defs>
<linearGradient id="paint0_linear_133_437" x1="563.746" y1="47.8824" x2="563.746" y2="250.381" gradientUnits="userSpaceOnUse">
<stop stop-color="#54C148"/>
<stop offset="1" stop-color="#54C148" stop-opacity="0"/>
</linearGradient>
<clipPath id="clip0_133_437">
<rect width="223.941" height="124.412" fill="white" transform="matrix(-1 0 0 1 1127.9 0)"/>
</clipPath>
</defs>
</svg>
