<svg width="47" height="64" viewBox="-17 -14 74 87" fill="none" xmlns="http://www.w3.org/2000/svg">
<path fill-rule="evenodd" clip-rule="evenodd" d="M36.527 21.4162C36.527 21.4162 43.4108 26.1867 45.0428 28.3209C46.6749 30.4551 46.7481 34.5142 45.8379 37.7364C44.9278 40.9586 41.4336 49.5895 40.785 51.3366C40.1364 53.0837 38.1696 56.7349 38.1696 56.7349C37.9206 57.7479 37.4527 58.6942 36.799 59.5072C36.4538 60.4174 36.799 60.5534 36.799 60.5534C37.0786 61.489 37.1954 62.4657 37.1443 63.4408C37.0293 64.9577 10.0485 62.9072 10.0485 62.9072C10.0485 62.9072 12.2873 59.57 12.9777 58.461C13.0008 58.1194 13.0896 57.7855 13.2393 57.4776L12.7476 56.1595C12.7476 56.1595 11.0006 57.6973 7.43312 57.2056C3.86569 56.7139 2.1081 47.9784 1.65825 46.4929C1.2084 45.0073 0.245953 39.086 0.245953 39.086L7.01463 37.6004L8.87684 41.9734C8.87684 41.9734 11.9107 30.612 13.5846 27.6514C15.2585 24.6907 20.845 23.0168 24.0463 22.1799C27.2476 21.343 36.6003 21.3953 36.6003 21.3953L36.527 21.4162Z" fill="#6EAADD"/>
<path d="M18.5638 58.8584C18.5293 58.8614 18.495 58.8512 18.4678 58.8298C18.4405 58.8085 18.4225 58.7775 18.4173 58.7433C17.7183 54.6684 18.1117 50.4811 19.5576 46.6077C21.1687 42.5591 22.3509 38.2384 22.3719 38.1547C22.3841 38.1202 22.4089 38.0915 22.4412 38.0743C22.4736 38.0572 22.5111 38.0527 22.5466 38.0619C22.582 38.0711 22.6128 38.0933 22.6328 38.124C22.6527 38.1547 22.6603 38.1918 22.6542 38.2279C21.8621 41.1058 20.9228 43.9412 19.8401 46.7228C18.4117 50.5384 18.0219 54.6649 18.7103 58.6805C18.7145 58.7189 18.7053 58.7576 18.6843 58.79C18.6634 58.8224 18.632 58.8465 18.5952 58.8584H18.5638Z" fill="#1F89CA"/>
<path fill-rule="evenodd" clip-rule="evenodd" d="M13.2394 57.4987C13.2394 57.4987 16.1269 59.1621 24.3393 59.9991C32.5518 60.836 36.6108 59.5492 36.7991 59.5492C36.9874 59.5492 36.7991 60.5954 36.7991 60.5954C32.3355 61.5872 27.7331 61.7925 23.1989 61.2022C15.7607 60.2083 13.0198 58.7437 12.9466 58.503C12.8733 58.2624 12.7791 57.2895 13.2394 57.4987Z" fill="#9ED9F8"/>
<path fill-rule="evenodd" clip-rule="evenodd" d="M33.1908 17.7022C34.0313 17.7872 34.8184 18.1538 35.4243 18.7426C36.0301 19.3313 36.4191 20.1076 36.528 20.9453C36.8733 23.906 32.8037 27.1282 32.8037 27.1282L28.7132 30.0889C28.7132 30.0889 24.5286 32.3486 25.1144 33.0286C24.5286 33.0286 24.7482 29.7959 24.7482 29.7959C24.2607 28.2786 23.9105 26.7205 23.702 25.1405C23.43 22.8494 23.2209 21.7823 23.8277 20.4118C24.1706 19.6137 24.7174 18.92 25.4134 18.4003C26.1094 17.8806 26.93 17.5532 27.7926 17.4511C29.5958 17.3851 31.4015 17.469 33.1908 17.7022Z" fill="#9ED9F8"/>
<path fill-rule="evenodd" clip-rule="evenodd" d="M6.16826 12.5237L6.44026 12.3877L7.23535 18.1521H2.5799L1.92081 16.269L6.16826 12.5237Z" fill="#FFF48F"/>
<path fill-rule="evenodd" clip-rule="evenodd" d="M6.03094 12.2623L6.42849 12.3879L2.08686 16.311C3.62824 15.7715 5.19601 15.3106 6.78415 14.9301C8.49874 14.4948 10.2497 14.2181 12.015 14.1036L12.2451 15.5892C12.2451 15.5892 4.2105 17.7547 4.09542 17.807C3.21443 17.5937 2.34498 17.3353 1.49047 17.0329L1.33365 16.5202L6.02047 12.2623H6.03094Z" fill="white"/>
<path fill-rule="evenodd" clip-rule="evenodd" d="M1.91996 16.813L1.05164 16.6037L3.19628 31.135H4.10645L1.91996 16.813Z" fill="#E30613"/>
<path fill-rule="evenodd" clip-rule="evenodd" d="M1.91936 16.8131L4.05355 31.4386L14.6826 29.9112L12.517 14.93L1.91936 16.8131Z" fill="#EA542D"/>
<path fill-rule="evenodd" clip-rule="evenodd" d="M23.7637 5.08558L23.5858 4.74036C23.4106 4.04255 23.4732 3.30624 23.7637 2.64802C24.2317 1.79415 25.0172 1.15897 25.9501 0.879992C26.7347 0.503372 27.6554 -0.218483 30.7207 0.0639823C31.5514 0.115445 32.3551 0.377786 33.0562 0.82626C33.7573 1.27473 34.3325 1.89452 34.7275 2.62708C35.2184 2.90864 35.639 3.29777 35.9579 3.76526C36.2768 4.23274 36.4857 4.76644 36.5688 5.32621C36.6838 6.93731 36.0143 7.41854 35.962 8.1927C35.9097 8.96687 36.6315 10.8186 34.4974 11.9903C32.3632 13.162 34.309 13.1306 34.309 13.1306C34.1224 13.8046 33.7313 14.404 33.1897 14.8463C32.4259 15.2962 25.72 8.56931 25.72 8.56931L23.7637 5.08558Z" fill="#1D1D1B"/>
<path d="M13.1663 57.3939C13.1368 57.3938 13.1081 57.3847 13.0838 57.3679C13.0595 57.3511 13.0408 57.3274 13.0303 57.2998C11.0949 53.1151 12.3817 49.7674 13.7417 46.2418C13.9928 45.5722 14.2648 44.8922 14.5054 44.1495C15.6675 40.476 16.6314 36.7428 17.3929 32.9659C17.3953 32.9469 17.4016 32.9286 17.4116 32.9122C17.4216 32.8958 17.4349 32.8817 17.4507 32.8708C17.4665 32.86 17.4844 32.8526 17.5033 32.8491C17.5222 32.8457 17.5415 32.8463 17.5601 32.8508C17.6 32.8585 17.6355 32.8813 17.6589 32.9144C17.6823 32.9476 17.6918 32.9885 17.6857 33.0287C16.9221 36.8198 15.9549 40.5671 14.7879 44.2541C14.5473 44.955 14.2752 45.6455 14.0241 46.3464C12.685 49.8197 11.4192 53.0837 13.3023 57.1743C13.3171 57.2106 13.3179 57.2511 13.3043 57.2879C13.2908 57.3246 13.264 57.355 13.2291 57.373L13.1663 57.3939Z" fill="#1F89CA"/>
<path d="M20.1019 38.2805C19.0953 38.0869 18.1719 37.5905 17.4551 36.8577C16.3626 35.6804 15.7409 34.1428 15.7081 32.537C15.6819 32.2116 15.722 31.8843 15.8263 31.575C15.9307 31.2656 16.0969 30.9807 16.3148 30.7376C16.6005 30.4794 16.9763 30.3442 17.361 30.361C18.2613 30.5962 19.0524 31.1359 19.5998 31.8884L19.0139 32.3487C18.7523 32.0244 17.9677 31.1666 17.2981 31.1143C17.2083 31.1075 17.118 31.1198 17.0333 31.1505C16.9485 31.1811 16.8712 31.2294 16.8065 31.2921C16.6654 31.4626 16.5604 31.6598 16.4974 31.872C16.4345 32.0841 16.4151 32.3068 16.4403 32.5266C16.4765 33.9248 17.0106 35.2641 17.9468 36.3032C18.5504 36.916 19.3162 37.3441 20.1543 37.5377L20.1019 38.2805Z" fill="white"/>
<path d="M25.3335 32.3904C25.308 32.3902 25.283 32.3833 25.261 32.3704C25.239 32.3576 25.2207 32.3392 25.208 32.3171C25.1822 32.2884 25.168 32.2511 25.168 32.2125C25.168 32.1739 25.1822 32.1367 25.208 32.1079C25.208 32.1079 27.6874 30.6328 30.7213 28.4568C33.9435 26.1552 35.9521 24.2721 36.3183 21.6881C36.3121 21.6648 36.3114 21.6405 36.3161 21.6169C36.3208 21.5934 36.331 21.5712 36.3456 21.5522C36.3603 21.5331 36.3791 21.5177 36.4006 21.5071C36.4222 21.4965 36.446 21.491 36.47 21.491C36.494 21.491 36.5178 21.4965 36.5393 21.5071C36.5609 21.5177 36.5797 21.5331 36.5944 21.5522C36.609 21.5712 36.6191 21.5934 36.6239 21.6169C36.6286 21.6405 36.6279 21.6648 36.6217 21.6881C36.2869 24.3349 34.184 26.3226 30.8991 28.6765C27.8443 30.8525 25.3963 32.3171 25.3649 32.3381L25.3335 32.3904Z" fill="#1F89CA"/>
<path d="M24.9561 31.585C24.9174 31.5776 24.8824 31.5568 24.8575 31.5261C24.8326 31.4955 24.8194 31.4571 24.8201 31.4176C24.8176 30.3699 24.6004 29.3338 24.182 28.3733C23.6473 26.3594 23.3765 24.2845 23.3764 22.2008C23.3763 22.161 23.3913 22.1226 23.4185 22.0934C23.4457 22.0643 23.4831 22.0466 23.5229 22.0439C23.5627 22.0466 23.5999 22.0643 23.6271 22.0934C23.6543 22.1226 23.6694 22.161 23.6694 22.2008C23.6806 24.2487 23.9477 26.2871 24.4645 28.2686C24.8844 29.2625 25.1082 30.3283 25.1235 31.4072C25.1267 31.4304 25.1247 31.454 25.1175 31.4763C25.1104 31.4986 25.0983 31.519 25.0823 31.5361C25.0662 31.5531 25.0465 31.5664 25.0247 31.5748C25.0029 31.5833 24.9795 31.5868 24.9561 31.585Z" fill="#1F89CA"/>
<path d="M25.332 31.1663H25.2692C25.2343 31.1483 25.2076 31.118 25.1941 31.0812C25.1805 31.0444 25.1812 31.0039 25.196 30.9676L26.2422 28.53C26.2628 28.4994 26.2935 28.477 26.329 28.4668C26.3645 28.4566 26.4024 28.4592 26.4361 28.4742C26.4699 28.4892 26.4972 28.5156 26.5134 28.5488C26.5296 28.5819 26.5336 28.6197 26.5246 28.6555L25.4785 31.0827C25.4646 31.1091 25.4434 31.131 25.4174 31.1458C25.3915 31.1607 25.3618 31.1678 25.332 31.1663Z" fill="#1F89CA"/>
<path fill-rule="evenodd" clip-rule="evenodd" d="M19.0553 30.4029C19.0553 30.4029 19.5365 39.2012 19.7248 39.5987C19.9131 39.9963 22.403 40.4252 24.2652 40.0591C24.9033 36.3765 25.5834 32.6522 25.5834 32.6522L25.8135 30.4029H19.0553Z" fill="white"/>
<path d="M12.1931 49.1396C12.1639 49.1381 12.1358 49.1286 12.1118 49.1119C12.0877 49.0953 12.0689 49.0723 12.0572 49.0455C11.5618 48.0682 11.0025 47.1247 10.3833 46.2208C9.62977 45.008 9.072 43.6841 8.73037 42.2977C8.72049 42.2589 8.72586 42.2178 8.74531 42.1828C8.76476 42.1477 8.79679 42.1215 8.83496 42.1094C8.87518 42.0999 8.91758 42.1067 8.95283 42.1282C8.98809 42.1498 9.01341 42.1843 9.02333 42.2245C9.35726 43.577 9.90079 44.869 10.6343 46.0534C11.2559 46.9743 11.8219 47.9315 12.3291 48.9199C12.344 48.9562 12.3447 48.9968 12.3312 49.0336C12.3176 49.0703 12.2908 49.1007 12.256 49.1187L12.1931 49.1396Z" fill="#1F89CA"/>
<path d="M34.34 58.6387C33.6726 58.6472 33.0212 58.4337 32.4882 58.0319C30.4482 56.515 27.8851 52.4768 26.8599 49.7986C25.8346 47.1204 23.8783 42.3603 23.8574 42.3185C23.8489 42.3 23.8444 42.2801 23.8441 42.2598C23.8438 42.2395 23.8477 42.2194 23.8556 42.2007C23.8634 42.1821 23.8751 42.1652 23.8898 42.1513C23.9045 42.1373 23.922 42.1266 23.9411 42.1197C23.9588 42.1114 23.978 42.1069 23.9976 42.1067C24.0171 42.1065 24.0365 42.1105 24.0544 42.1184C24.0723 42.1263 24.0882 42.1381 24.1011 42.1527C24.1141 42.1674 24.1237 42.1847 24.1294 42.2034C24.1294 42.2034 26.0857 46.9426 27.1319 49.694C28.178 52.4454 30.668 56.3058 32.6661 57.7913C34.5074 59.1618 36.9345 57.6553 37.6354 56.7452C37.6491 56.7312 37.6654 56.7202 37.6833 56.7126C37.7013 56.7051 37.7205 56.7012 37.74 56.7012C37.7595 56.7012 37.7788 56.7051 37.7967 56.7126C37.8147 56.7202 37.831 56.7312 37.8446 56.7452C37.8711 56.7756 37.8857 56.8146 37.8857 56.855C37.8857 56.8954 37.8711 56.9344 37.8446 56.9648C36.9391 57.9581 35.6817 58.5587 34.34 58.6387Z" fill="#1F89CA"/>
<path d="M33.87 45.7186C33.8464 45.7275 33.8203 45.7275 33.7967 45.7186C33.7794 45.7098 33.7641 45.6976 33.7516 45.6828C33.7391 45.668 33.7296 45.6509 33.7238 45.6324C33.7179 45.6139 33.7159 45.5944 33.7176 45.5751C33.7194 45.5558 33.7249 45.537 33.734 45.5199C35.1735 42.3072 36.3286 38.9747 37.1862 35.5604C37.1899 35.5409 37.1975 35.5224 37.2086 35.506C37.2196 35.4896 37.234 35.4755 37.2506 35.4648C37.2672 35.454 37.2859 35.4467 37.3054 35.4434C37.3249 35.44 37.3449 35.4407 37.3641 35.4453C37.4042 35.4552 37.4389 35.4805 37.4604 35.5158C37.482 35.551 37.4887 35.5934 37.4792 35.6336C36.6159 39.0706 35.4502 42.4244 33.9955 45.6559C33.9823 45.6768 33.9636 45.6937 33.9415 45.7047C33.9194 45.7158 33.8946 45.7206 33.87 45.7186Z" fill="#1F89CA"/>
<path d="M37.1448 49.8929C37.1151 49.8932 37.086 49.8856 37.0602 49.8709C37.0345 49.8562 37.0131 49.8349 36.9983 49.8093C36.5403 49.0264 35.9926 48.2996 35.3662 47.6437C34.3873 46.5958 33.5342 45.4372 32.8241 44.1913C31.7779 42.099 30.0726 39.3999 30.0622 39.379C30.0512 39.3625 30.0436 39.344 30.0397 39.3245C30.0359 39.3051 30.0358 39.2851 30.0397 39.2657C30.0436 39.2462 30.0513 39.2278 30.0623 39.2113C30.0733 39.1948 30.0876 39.1807 30.1041 39.1697C30.1206 39.1587 30.139 39.1511 30.1585 39.1473C30.1779 39.1434 30.1979 39.1434 30.2173 39.1473C30.2368 39.1512 30.2552 39.1589 30.2716 39.1699C30.2881 39.1809 30.3023 39.1951 30.3133 39.2116C30.3133 39.2116 32.0813 41.9839 33.0961 44.0553C33.7937 45.2826 34.6329 46.4237 35.5965 47.4554C36.2437 48.1292 36.809 48.8772 37.2808 49.6837C37.2892 49.7022 37.2936 49.7221 37.2939 49.7424C37.2942 49.7627 37.2904 49.7828 37.2826 49.8015C37.2747 49.8201 37.2631 49.837 37.2483 49.8509C37.2336 49.8649 37.2161 49.8756 37.197 49.8825L37.1448 49.8929Z" fill="#1F89CA"/>
<path fill-rule="evenodd" clip-rule="evenodd" d="M1.50226 38.8347L1.05248 35.6962C1.05248 35.6962 1.54411 29.7644 1.50226 29.0426C1.67432 27.436 2.12389 25.8714 2.83092 24.4185C3.29123 24.0105 3.45866 24.4185 3.27035 25.1508C3.08204 25.8832 2.41242 29.2832 2.41242 29.2832C2.41242 29.2832 3.68877 25.2973 3.87708 24.7742C4.0654 24.2511 4.6722 24.5859 4.55712 25.1508C4.44204 25.7158 3.45864 29.7958 3.51095 29.7435C3.56326 29.6912 4.55716 26.4481 4.86055 25.8204C5.16394 25.1927 5.70792 25.4333 5.48823 26.197C5.26853 26.9607 4.3479 30.3817 4.44206 30.3189C4.53621 30.2561 5.63465 27.4001 5.84389 26.9607C6.05312 26.5213 6.49247 26.7619 6.32508 27.421C6.1577 28.0801 5.19521 33.7608 5.0069 34.6605C4.81859 35.5602 4.65124 35.9892 4.65124 36.0833C4.65124 36.1775 5.26844 38.0501 5.26844 38.0501C5.26844 38.0501 3.57368 38.4163 1.50226 38.8347Z" fill="#F6B09C"/>
<path fill-rule="evenodd" clip-rule="evenodd" d="M26.5256 28.3211C27.6007 26.8939 28.8722 25.626 30.3023 24.5548C32.5829 22.881 33.3779 21.364 33.3779 18.9369V13.3922L32.5411 13.1935L27.1114 17.4932C27.171 18.3577 27.1184 19.2263 26.9546 20.0772C26.693 20.9037 26.0967 22.7659 26.5256 28.3211Z" fill="#F6B09C"/>
<path fill-rule="evenodd" clip-rule="evenodd" d="M23.5864 4.76114C23.9404 4.51725 24.2107 4.17022 24.3605 3.76726C24.531 2.93849 24.9779 2.19215 25.6279 1.65047C26.2779 1.1088 27.0925 0.803915 27.9384 0.78571C30.7945 0.586938 31.9871 1.45526 32.1231 2.64789C32.2591 3.84052 31.9453 4.31127 32.1231 5.07498C32.301 5.83868 32.7508 5.76546 32.8032 6.72794C32.8555 7.69041 32.2487 8.6738 32.1964 9.6572C32.1441 10.6406 32.2905 11.2788 32.9182 11.1742C33.5459 11.0695 33.5459 10.3058 34.5606 10.5674C35.5754 10.8289 35.272 13.0886 34.5606 13.7059C33.8493 14.3231 33.0019 13.5489 32.8659 13.7059C32.7299 13.8628 30.8992 16.8444 28.5348 17.5976C26.1705 18.3509 24.4547 17.5976 23.4608 14.3336C22.467 11.0695 23.3039 6.63378 23.5864 4.76114Z" fill="#F6B09C"/>
<path d="M26.1066 11.8647C26.0758 11.8737 26.0432 11.8737 26.0125 11.8647C25.9985 11.851 25.9874 11.8347 25.9799 11.8168C25.9723 11.7988 25.9685 11.7795 25.9685 11.76C25.9685 11.7405 25.9723 11.7213 25.9799 11.7033C25.9874 11.6853 25.9985 11.669 26.0125 11.6554C26.6085 10.7448 26.8191 9.63492 26.5982 8.5692C26.5887 8.53175 26.5944 8.49205 26.614 8.45873C26.6336 8.42542 26.6656 8.40121 26.703 8.39137C26.7416 8.38385 26.7817 8.39021 26.8161 8.40934C26.8506 8.42848 26.8772 8.45918 26.8912 8.49599C27.0129 9.0667 27.0191 9.65597 26.9095 10.2291C26.7999 10.8023 26.5767 11.3477 26.2531 11.8333C26.2337 11.8512 26.2099 11.8636 26.1841 11.8691C26.1583 11.8746 26.1316 11.8731 26.1066 11.8647Z" fill="#EA542D"/>
<path d="M25.9183 7.77417C25.894 7.77342 25.8702 7.76742 25.8485 7.75658C25.8269 7.74574 25.8077 7.73033 25.7926 7.71141C25.6721 7.53532 25.5174 7.38527 25.3377 7.27025C25.158 7.15522 24.9568 7.07754 24.7464 7.04184C24.3855 6.99619 24.0193 7.06576 23.7003 7.24062C23.6838 7.25161 23.6653 7.25925 23.6459 7.26309C23.6264 7.26694 23.6064 7.26692 23.587 7.26303C23.5676 7.25914 23.5492 7.25148 23.5327 7.24046C23.5162 7.22943 23.5021 7.21525 23.4911 7.19876C23.4801 7.18228 23.4724 7.1638 23.4686 7.14436C23.4648 7.12492 23.4648 7.10492 23.4687 7.08549C23.4726 7.06606 23.4802 7.04758 23.4912 7.03112C23.5022 7.01465 23.5165 7.00054 23.533 6.98955C23.9164 6.77036 24.3608 6.68218 24.7988 6.73845C25.0552 6.77864 25.3007 6.87085 25.5202 7.00937C25.7397 7.1479 25.9285 7.32984 26.0751 7.54402C26.089 7.55765 26.1001 7.57391 26.1076 7.59187C26.1152 7.60984 26.1191 7.62915 26.1191 7.64864C26.1191 7.66812 26.1152 7.68741 26.1076 7.70537C26.1001 7.72334 26.089 7.73959 26.0751 7.75323C26.0566 7.77614 26.0301 7.7911 26.0009 7.79499C25.9717 7.79888 25.9421 7.79143 25.9183 7.77417Z" fill="#1D1D1B"/>
<path d="M31.1713 8.09871C31.1456 8.09962 31.1202 8.09322 31.098 8.08025C31.0757 8.06729 31.0576 8.0483 31.0457 8.02547C30.8875 7.79309 30.6756 7.60233 30.4279 7.46937C30.1802 7.33642 29.9041 7.26519 29.623 7.26175C29.367 7.21903 29.1046 7.23962 28.8584 7.32168C28.6122 7.40374 28.3898 7.54479 28.2107 7.73254C28.1885 7.76445 28.1545 7.78624 28.1163 7.79311C28.078 7.79997 28.0386 7.79136 28.0067 7.76916C27.9748 7.74697 27.9529 7.71301 27.946 7.67476C27.9392 7.6365 27.9479 7.59706 27.9701 7.56515C28.1737 7.32914 28.4346 7.1494 28.7277 7.04315C29.0208 6.93691 29.3363 6.90773 29.6439 6.95839C29.9742 6.96958 30.2971 7.05883 30.5862 7.21884C30.8754 7.37886 31.1224 7.60512 31.3073 7.87902C31.3163 7.89617 31.3219 7.91494 31.3236 7.93425C31.3254 7.95357 31.3233 7.97301 31.3175 7.9915C31.3116 8.00999 31.3022 8.02713 31.2896 8.04194C31.2771 8.05675 31.2618 8.06893 31.2446 8.07776C31.2349 8.0868 31.2232 8.09341 31.2105 8.09705C31.1977 8.10069 31.1843 8.10126 31.1713 8.09871Z" fill="#1D1D1B"/>
<path d="M29.6215 9.57358C29.6215 9.8979 29.3705 10.128 29.1508 10.1071C28.9311 10.0862 28.7845 9.79328 28.8264 9.47943C28.8682 9.16558 29.0775 8.91449 29.2972 8.94588C29.5169 8.97726 29.6529 9.27019 29.6215 9.57358Z" fill="#1D1D1B"/>
<path d="M25.332 9.20734C25.332 9.53166 25.1542 9.7932 24.9345 9.7932C24.7148 9.7932 24.5369 9.54213 24.5369 9.21782C24.5369 8.8935 24.7043 8.63195 24.924 8.62149C25.1437 8.61103 25.332 8.88303 25.332 9.20734Z" fill="#1D1D1B"/>
<path d="M26.3785 12.4087C26.9385 12.4858 27.4744 12.6858 27.9478 12.9945C28.4013 13.3711 28.7267 13.8793 28.8789 14.4487C28.7002 14.5157 28.5057 14.5285 28.3197 14.4857C28.1337 14.4429 27.9643 14.3464 27.8327 14.2081C27.5061 14.2284 27.1812 14.148 26.9016 13.9779L26.0856 13.9256C25.891 13.9039 25.7044 13.8357 25.5416 13.7269C25.3918 13.7995 25.2268 13.8354 25.0604 13.8315C24.9575 13.82 24.8559 13.7989 24.7569 13.7687C24.6703 13.8178 24.5742 13.8479 24.475 13.8569C24.3757 13.8659 24.2757 13.8537 24.1816 13.821C23.9096 13.6955 24.2862 13.0259 24.8825 12.7121C25.3361 12.4541 25.8603 12.3478 26.3785 12.4087Z" fill="#1D1D1B"/>
<path d="M27.1216 17.8697C28.066 17.8169 28.9849 17.5433 29.8043 17.0709C30.6238 16.5985 31.3209 15.9405 31.8398 15.1496C31.6132 16.2736 31.0236 17.2919 30.1617 18.048C29.2997 18.8041 28.2133 19.256 27.0694 19.3343C27.121 18.8479 27.1384 18.3585 27.1216 17.8697Z" fill="#F28E78"/>
<path fill-rule="evenodd" clip-rule="evenodd" d="M25.8652 30.2458C25.8652 30.6747 24.3168 31.0095 22.4024 31.0095C20.4879 31.0095 18.9396 30.6747 18.9396 30.2458C18.9396 29.8169 20.4879 29.4717 22.4024 29.4717C24.3168 29.4717 25.8652 29.8169 25.8652 30.2458Z" fill="white"/>
<path fill-rule="evenodd" clip-rule="evenodd" d="M25.1123 30.2459C25.1123 30.4342 23.8987 30.5806 22.4026 30.5806C20.9066 30.5806 19.6931 30.4342 19.6931 30.2459C19.6931 30.0576 20.9066 29.9111 22.4026 29.9111C23.8987 29.9111 25.1123 30.0576 25.1123 30.2459Z" fill="#C89E95"/>
<path fill-rule="evenodd" clip-rule="evenodd" d="M28.8262 39.6092C28.8262 39.6092 27.5185 36.8996 26.8908 35.1316C26.6116 34.2188 26.1567 33.3694 25.5517 32.6312C25.4521 33.1017 25.2791 33.5536 25.039 33.9703C24.7252 34.3888 21.2206 33.6251 19.7141 32.6312C18.2076 31.6374 18.2809 32.7149 18.5738 33.1648C18.4741 33.2168 18.388 33.2917 18.3229 33.3834C18.2577 33.4751 18.2152 33.5809 18.1989 33.6922C18.1825 33.8035 18.1928 33.9171 18.2289 34.0236C18.2649 34.1301 18.3258 34.2266 18.4064 34.3051C18.2542 34.5175 18.1869 34.7791 18.2179 35.0385C18.2489 35.298 18.3759 35.5364 18.5738 35.707C18.3959 36.0731 18.082 36.7008 18.8876 37.1611C19.6931 37.6215 24.2649 40.1741 25.5517 41.4295C26.6848 40.9009 27.7791 40.2926 28.8262 39.6092Z" fill="#F6B09C"/>
</svg>
