<svg width="65" height="61" viewBox="0 -20 74 87" fill="none" xmlns="http://www.w3.org/2000/svg">
<path d="M6.5891 21.7855H30.3553C30.4383 21.6063 30.5437 21.4383 30.6691 21.2858C31.1572 20.7047 31.564 20.6931 32.0057 20.2747C32.3267 19.9591 32.5455 19.5541 32.6333 19.1125C32.7844 18.206 32.0754 17.7993 32.3195 17.0555C32.4509 16.7516 32.6642 16.4901 32.9354 16.3001C33.5236 15.8562 34.1637 15.4854 34.8414 15.196C35.494 14.7496 35.9866 14.1062 36.2476 13.3598C36.4816 12.7252 36.5837 12.0496 36.5478 11.3742C36.5118 10.6988 36.3384 10.0378 36.0383 9.4317C35.5153 8.40831 34.6642 7.5899 33.6211 7.10737C33.9678 6.79288 34.2412 6.40608 34.4219 5.97432C34.6027 5.54256 34.6863 5.07638 34.6671 4.60872C34.3417 1.8079 28.6354 -0.214285 24.0448 0.0181484C21.3288 0.0843315 18.7218 1.10001 16.6768 2.8887C15.635 3.9571 14.8656 5.26056 14.4337 6.68897C13.8643 9.0133 14.4337 10.3847 13.2716 11.3376C12.4813 12.0001 11.7723 11.7444 11.0518 12.6625C10.5368 13.3635 10.2379 14.1996 10.1918 15.0682C10.2563 15.5929 10.2007 16.1255 10.0291 16.6255C9.84861 16.9973 9.57677 17.3172 9.23887 17.5552C8.46022 18.1595 7.89069 18.0433 7.42582 18.3339C6.96096 18.6244 6.39153 19.5425 6.5891 21.7855Z" fill="#933E33"/>
<path d="M15.8528 16.2885C15.072 16.9189 14.1691 17.3806 13.201 17.6446C12.2329 17.9087 11.2206 17.9693 10.2279 17.8225C9.96062 17.8225 9.6933 17.1601 10.3441 17.1717C12.206 17.0694 14.0522 16.7733 15.8528 16.2885Z" fill="#742E30"/>
<path d="M45.0923 45.8074L53.2274 35.6036H60.6509V39.7022C59.3725 40.2136 59.0266 41.2866 56.9812 41.5306C56.9264 41.3962 56.8874 41.2557 56.865 41.1122C55.8297 41.221 54.7857 41.221 53.7504 41.1122L47.219 51.4904L45.0923 45.8074Z" fill="#F6AA72"/>
<path d="M2.20814 41.6237L2.27794 40.8102C2.49875 38.3232 2.64978 36.1616 2.80086 34.2091C3.41681 25.7253 3.68414 22.2272 6.6128 20.1469C7.37982 19.5891 8.23988 19.2172 23.0807 19.868C31.2159 20.2283 32.6801 20.4259 34.1561 21.7391C36.7709 24.0634 36.2364 27.2245 37.7473 34.8018C38.2121 37.1262 38.2701 36.6381 39.3742 41.4262C39.9553 43.9829 40.4086 46.1794 40.7572 47.8762L45.4059 44.9359L47.8115 51.7462L44.4761 60.4043L43.837 55.9416L43.6277 56.0578C43.2094 56.2787 39.3509 58.2078 35.876 56.4762C33.5517 55.314 32.6104 52.92 31.0066 48.4689C30.4064 46.8003 29.9401 45.0865 29.6121 43.3438C28.0625 49.0306 26.478 54.7175 24.8587 60.4043H0C0.592704 56.3832 1.47598 49.8286 2.20814 41.6237Z" fill="#FDE4CE"/>
<path d="M17.5381 19.3798C17.5813 23.1936 18.6663 26.923 20.6759 30.1647C21.6753 31.7336 23.1745 35.4177 24.1624 36.3242C25.403 34.6608 26.3034 32.7691 26.8121 30.7574C27.2082 29.2018 27.3688 27.5957 27.2887 25.9925L28.1951 19.6936L18.8164 19.4147L17.5381 19.3798Z" fill="#F6AA72"/>
<path d="M17.5952 38.4742C18.7334 42.2657 20.8924 45.6711 23.8361 48.3178C24.0456 48.5313 24.2668 48.733 24.4986 48.9221L24.2197 49.0848C24.1519 48.448 24.1247 47.8075 24.1382 47.1673C24.1382 46.3537 24.1382 45.5402 24.1382 44.7383C24.1284 44.1876 24.183 43.6377 24.301 43.0997C24.5101 42.414 25.0331 41.8561 25.0331 41.1123C24.9085 40.0066 24.4504 38.965 23.7199 38.1256C23.592 37.9513 23.8826 37.7886 24.0104 37.9513C24.6531 38.7437 25.1027 39.6747 25.3237 40.6708C25.4183 41.2547 25.2985 41.8532 24.9866 42.3559C24.6589 42.9545 24.4871 43.6259 24.4869 44.3083C24.4869 45.0986 24.4869 45.8772 24.4869 46.6326C24.4618 47.4084 24.4889 48.1849 24.5682 48.957C24.5838 48.9934 24.5857 49.0344 24.5732 49.072C24.5607 49.1097 24.535 49.1415 24.5007 49.1615C24.4664 49.1815 24.426 49.1882 24.3871 49.1805C24.3482 49.1728 24.3134 49.1512 24.2893 49.1197C23.6068 48.538 22.9624 47.913 22.3601 47.2486C20.9764 45.7572 19.7856 44.0978 18.8156 42.3094C18.1626 41.11 17.6516 39.8385 17.2931 38.5207C17.2823 38.4776 17.2892 38.4319 17.3121 38.3938C17.335 38.3556 17.3721 38.3281 17.4152 38.3173C17.4584 38.3066 17.5039 38.3134 17.542 38.3362C17.5802 38.3591 17.6077 38.3962 17.6185 38.4394L17.5952 38.4742Z" fill="#C89E95"/>
<path d="M19.3154 36.208C19.049 36.7412 18.7086 37.2342 18.3044 37.6723C17.5954 38.5904 16.8749 39.4853 16.1427 40.3801C14.5738 42.3209 12.9701 44.2385 11.3663 46.191L10.2041 47.4926C10.0646 47.6553 9.83226 47.4228 9.97172 47.2601C10.9596 46.098 11.9358 44.9358 12.9004 43.7736C14.5158 41.8328 16.1312 39.892 17.6885 37.9047C17.9791 37.5328 18.2812 37.1493 18.5485 36.7425L18.8158 36.359C18.8626 36.2919 18.9052 36.2221 18.9436 36.1498C19.0133 35.9523 19.3388 36.0336 19.2574 36.2428L19.3154 36.208Z" fill="#C89E95"/>
<path d="M22.5121 47.144C21.4793 48.9821 19.9904 50.523 18.1889 51.6184C16.6657 52.5759 14.8836 53.0388 13.087 52.9432C11.861 52.8438 10.6714 52.479 9.60047 51.874C8.83791 51.4503 8.20059 50.8329 7.75267 50.0843C7.41388 49.45 7.20447 48.7548 7.13668 48.0389C7.00501 46.8788 6.73186 45.7391 6.32322 44.6454C5.81301 43.584 5.23055 42.5589 4.57998 41.5773C4.47538 41.3913 4.76592 41.217 4.87052 41.4029C5.32376 42.2164 5.89321 42.9602 6.31159 43.797C6.78666 44.7842 7.12298 45.8323 7.31104 46.9116C7.39346 47.6464 7.5177 48.3758 7.68301 49.0965C7.92872 49.8918 8.41112 50.5931 9.06592 51.107C10.1612 51.9363 11.4642 52.447 12.8313 52.583C14.3726 52.7451 15.927 52.4415 17.294 51.7114C19.3581 50.6509 21.064 49.0057 22.1984 46.9813C22.2091 46.9623 22.2234 46.9455 22.2406 46.9319C22.2577 46.9184 22.2774 46.9084 22.2985 46.9024C22.3195 46.8965 22.3416 46.8948 22.3633 46.8973C22.385 46.8999 22.4059 46.9067 22.425 46.9174C22.4441 46.9281 22.4608 46.9424 22.4744 46.9596C22.4879 46.9768 22.4979 46.9964 22.5039 47.0175C22.5098 47.0385 22.5116 47.0605 22.509 47.0822C22.5064 47.1039 22.4997 47.1249 22.489 47.144H22.5121Z" fill="#C89E95"/>
<path d="M8.01936 20.3329C9.56811 20.7477 10.9267 21.6834 11.8662 22.9827C12.4289 23.6592 12.9087 24.4005 13.2956 25.1908C13.377 25.3767 13.0981 25.551 13.0051 25.3535C12.6466 24.6105 12.2019 23.9123 11.6802 23.2732C10.7756 21.9871 9.44637 21.0612 7.92643 20.6583C7.71724 20.6583 7.79854 20.2865 8.01936 20.3329Z" fill="#C89E95"/>
<path d="M6.04459 25.6904C6.24215 26.6782 6.50948 27.6428 6.80002 28.6074C7.46137 30.8187 8.32094 32.9658 9.36836 35.0226C10.0496 36.3776 10.8508 37.6689 11.7623 38.881C11.8902 39.0437 11.5996 39.218 11.4718 39.0436C8.83848 35.3765 6.96551 31.2196 5.96316 26.8177C5.87018 26.469 5.78888 26.132 5.71915 25.7834C5.64942 25.4347 5.9981 25.4812 6.04459 25.6904Z" fill="#C89E95"/>
<path d="M42.4428 47.1092C42.7799 49.2708 43.1401 51.4324 43.605 53.5941C43.7328 54.2565 43.8606 54.9305 44.0117 55.593C44.0117 55.8022 43.7445 55.8951 43.6981 55.6859C43.1053 53.1524 42.7218 50.5608 42.315 47.9924C42.315 47.7251 42.222 47.4578 42.1872 47.1905C42.1523 46.9232 42.4777 46.8883 42.501 47.1092H42.4428Z" fill="#C89E95"/>
<path d="M14.3876 29.6302C14.7596 31.7212 14.7596 33.8614 14.3876 35.9524C14.162 36.9587 14.0682 37.99 14.1087 39.0205C14.225 39.9386 14.6085 40.7986 14.7596 41.7051C14.7596 41.9143 14.469 42.0073 14.4342 41.7981C14.2831 40.9149 13.9344 40.0781 13.7949 39.1948C13.7299 38.2252 13.8004 37.2512 14.0042 36.301C14.3992 34.1223 14.3992 31.8903 14.0042 29.7116C14.0042 29.5024 14.2831 29.421 14.3296 29.6302H14.3876Z" fill="#C89E95"/>
<path d="M13.8641 41.1706C12.5544 40.7296 11.2959 40.149 10.1103 39.439C8.91047 38.7612 7.78814 37.9545 6.76328 37.0333C6.60058 36.8822 6.84458 36.6498 6.99566 36.7892C8.00094 37.6801 9.09987 38.4594 10.273 39.1136C11.4366 39.8098 12.6716 40.3787 13.957 40.8103C13.9908 40.8297 14.0171 40.8598 14.0318 40.8959C14.0464 40.932 14.0486 40.9719 14.0379 41.0094C14.0272 41.0468 14.0043 41.0796 13.9728 41.1025C13.9413 41.1254 13.903 41.1371 13.8641 41.1357V41.1706Z" fill="#C89E95"/>
<path d="M35.6436 36.5681C35.184 37.9064 34.4202 39.1197 33.4122 40.1127C32.5015 40.9158 31.4651 41.5636 30.3442 42.0303C30.1583 42.1116 29.9839 41.8211 30.1815 41.7397C31.2462 41.2968 32.2344 40.6889 33.11 39.9384C34.116 38.9709 34.8735 37.7749 35.3182 36.4519C35.3995 36.2543 35.725 36.3357 35.6436 36.5449V36.5681Z" fill="#C89E95"/>
<path d="M2.67312 35.8943C2.47294 38.6856 3.03962 41.4786 4.31181 43.9713C4.40317 44.1391 4.48084 44.314 4.54418 44.4943C5.16013 46.1329 4.6023 47.1789 5.27635 48.6083C5.74122 49.5846 6.78723 50.7583 9.4021 51.537C8.72768 51.1524 8.16028 50.605 7.75177 49.9448C7.32301 49.0337 7.08194 48.0456 7.04287 47.0394C6.71835 45.4803 6.1868 43.9717 5.46234 42.5535C4.62558 40.7289 4.4513 40.9148 3.90508 39.6364C3.18037 37.9163 2.7861 36.0752 2.74291 34.2091C2.76616 34.6391 2.7196 35.2318 2.67312 35.8943Z" fill="#C89E95"/>
<path d="M23.1509 36.5219L24.6152 38.9275L25.208 40.5429L25.0336 42.0305C25.0336 42.0305 23.8714 41.8213 22.5698 39.7062L23.1509 36.5219Z" fill="#C89E95"/>
<path d="M33.3078 26.8989C33.4372 27.8617 33.4916 28.8331 33.4705 29.8043C33.4705 30.9665 33.3891 32.21 33.2845 33.407C33.1658 35.3587 32.7179 37.2761 31.9596 39.0784C31.3293 40.3659 30.6109 41.6085 29.8097 42.7973C29.6934 42.9833 29.4029 42.7973 29.5191 42.6346C30.8188 40.7988 31.8155 38.7662 32.4711 36.6146C32.6888 35.6856 32.8364 34.7416 32.9127 33.7905C33.0289 32.6284 33.0986 31.4662 33.1218 30.304C33.1723 29.1906 33.1296 28.0749 32.994 26.9686C32.994 26.7594 33.2845 26.6664 33.3078 26.8756V26.8989Z" fill="#C89E95"/>
<path d="M40.5828 48.2131C38.0392 48.3428 35.5484 48.9873 33.2611 50.1074C33.0751 50.2004 32.9009 49.9215 33.0868 49.8169C35.4288 48.6703 37.9787 48.0101 40.5828 47.8761C40.8036 47.8761 40.8036 48.1899 40.5828 48.2131Z" fill="#C89E95"/>
<path d="M40.5359 48.2017C38.0049 47.5741 35.664 46.3419 33.714 44.6107C33.5513 44.4712 33.7838 44.2388 33.9465 44.3782C35.8626 46.0589 38.1544 47.2546 40.6289 47.8647C40.8381 47.8647 40.7451 48.225 40.5359 48.1785V48.2017Z" fill="#C89E95"/>
<path d="M19.106 19.5192C19.2478 20.4334 19.5218 21.322 19.9194 22.1573C20.2564 22.8662 21.9766 26.3992 24.3822 26.2714C26.1255 26.1668 27.2759 24.1911 27.6246 23.5868C28.2782 22.4362 28.5773 21.1181 28.4846 19.7981L19.106 19.5192Z" fill="#EC6225"/>
<path d="M32.6791 12.1627C32.6791 13.2203 32.3304 13.3249 30.808 17.8689C30.5163 19.0745 30.0914 20.2438 29.5413 21.3554C29.1694 21.9365 27.2867 24.9814 24.6021 24.8419C21.9175 24.7025 20.5578 21.7157 20.1045 20.7976C19.4158 19.3778 19.0998 17.806 19.1864 16.2303C19.6242 13.8079 20.7733 11.5707 22.487 9.80355C24.5256 7.7476 27.209 6.45506 30.0875 6.1427C32.5164 8.8273 32.7604 10.9657 32.6791 12.1627Z" fill="#F6AA72"/>
<path d="M32.8435 7.95576C31.1554 9.40314 29.1726 10.4659 27.0327 11.0704C25.7129 11.4401 24.3472 11.6201 22.9767 11.605C22.646 12.3219 22.1759 12.9659 21.5938 13.4993C21.3642 13.6986 21.1237 13.8848 20.8733 14.0571C21.0241 14.5153 21.0782 14.9997 21.0322 15.4798C20.9862 15.9599 20.8411 16.4252 20.606 16.8464C19.9087 17.8574 18.8162 17.6366 18.3513 18.6128C17.8865 19.5891 18.6884 19.9842 18.4328 21.5531C18.3704 22.3468 18.0138 23.0887 17.4332 23.6334C16.608 24.2958 15.9805 10.0012 15.9805 10.0012L26.44 1.86603L32.8435 7.95576Z" fill="#933E33"/>
<path d="M23.011 40.3568L19.42 36.0684L22.1278 26.899L15.1548 24.226C15.1548 24.226 17.7813 15.1727 17.9789 15.2773C18.1765 15.3819 18.374 16.0675 18.1997 16.9973C18.0951 17.6248 17.9092 18.4965 17.8395 18.8335C18.8622 17.2762 19.3502 16.2884 19.8383 16.5092C20.6286 16.8114 21.105 18.45 20.3264 22.7965C22.2091 23.1568 24.9751 23.9587 25.8235 26.0971C26.4395 27.6195 25.8235 29.1187 25.2075 30.8619C23.9196 33.8721 23.1759 37.0869 23.011 40.3568Z" fill="#F6AA72"/>
<path d="M20.8032 18.7639C20.8247 19.2324 20.7817 19.7017 20.6754 20.1585C20.5824 20.6466 20.5475 21.1231 20.501 21.6228C20.4912 22.4856 20.3137 23.3382 19.9781 24.1331C19.8851 24.3307 19.5946 24.1331 19.6875 23.9588C20.0147 23.1419 20.1842 22.2704 20.1872 21.3904C20.1872 20.9837 20.2569 20.5885 20.3267 20.2282C20.4406 19.7606 20.4914 19.2799 20.4777 18.7988C20.4777 18.5896 20.7916 18.5896 20.8032 18.7988V18.7639Z" fill="#EC6225"/>
<path d="M20.4651 18.6711C20.506 18.4914 20.506 18.3047 20.4651 18.1249C20.3489 17.8576 20.2558 18.032 20.186 18.2295C20.1163 18.4271 20.0001 18.7292 19.9071 18.9965C19.7212 19.566 19.5585 20.1587 19.3842 20.7166C19.0919 21.8289 18.6666 22.9019 18.1175 23.9125C18.1068 23.9316 18.0924 23.9484 18.0752 23.9619C18.0581 23.9755 18.0384 23.9855 18.0173 23.9914C17.9963 23.9974 17.9744 23.9991 17.9527 23.9965C17.9309 23.9939 17.9099 23.9871 17.8908 23.9764C17.8717 23.9657 17.855 23.9514 17.8414 23.9343C17.8279 23.9171 17.8179 23.8974 17.8119 23.8764C17.806 23.8553 17.8042 23.8333 17.8068 23.8116C17.8094 23.7899 17.8163 23.7689 17.827 23.7498C18.5238 22.3661 19.0618 20.908 19.4308 19.4033C19.547 19.0547 19.6515 18.6944 19.7793 18.3574C19.9072 18.0203 19.9421 17.7995 20.1746 17.6601C20.7673 17.2882 20.8485 18.3457 20.8137 18.6711C20.7788 18.9965 20.4533 18.8803 20.4766 18.6711H20.4651Z" fill="#EC6225"/>
<path d="M20.3371 17.7411C20.355 17.5713 20.3312 17.3998 20.2675 17.2414C20.1164 16.9857 19.8956 17.1135 19.791 17.3111C19.6864 17.5087 19.5353 17.9038 19.3959 18.1827C19.1169 18.7987 18.838 19.3449 18.5359 19.9957C17.9315 21.1579 17.2923 22.32 16.6066 23.4822C16.5851 23.5207 16.5491 23.5491 16.5066 23.5611C16.4641 23.5731 16.4186 23.5677 16.3801 23.5461C16.3415 23.5245 16.3132 23.4886 16.3012 23.4461C16.2892 23.4036 16.2945 23.358 16.3161 23.3195C17.2191 21.8127 18.0453 20.2611 18.7915 18.6708C18.9775 18.2873 19.1517 17.9154 19.3144 17.5086C19.4771 17.1019 19.5353 16.8811 19.8026 16.7416C19.905 16.6913 20.0206 16.6744 20.1331 16.6931C20.2457 16.7119 20.3496 16.7654 20.4302 16.8462C20.617 17.0829 20.7045 17.383 20.6742 17.683C20.6644 17.7202 20.6426 17.753 20.6121 17.7765C20.5816 17.7999 20.5441 17.8127 20.5057 17.8127C20.4672 17.8127 20.4299 17.7999 20.3994 17.7765C20.3689 17.753 20.347 17.7202 20.3371 17.683V17.7411Z" fill="#EC6225"/>
<path d="M19.8499 16.8349C19.5245 16.1143 18.6877 17.567 18.5134 17.8111C18.2112 18.3108 17.9323 18.8338 17.6766 19.3568C17.1736 20.4423 16.5746 21.4808 15.8869 22.4597C15.759 22.6225 15.4801 22.4598 15.6079 22.2854C16.4389 21.0419 17.1732 19.7364 17.8045 18.3805C18.1131 17.7471 18.5038 17.157 18.9666 16.6257C19.292 16.3003 19.9196 16.1492 20.1288 16.6257C20.2218 16.8233 19.9312 16.9976 19.8499 16.8V16.8349Z" fill="#EC6225"/>
<path d="M19.8272 23.9357L21.8029 23.7381C22.378 23.6684 22.9594 23.6684 23.5345 23.7381C24.3138 23.9188 25.0073 24.3619 25.4986 24.9932C25.6381 25.1559 25.3939 25.3884 25.2661 25.2257C24.7672 24.5919 24.0427 24.1755 23.2439 24.0635C22.6961 24.0478 22.148 24.0789 21.6054 24.1565L19.8272 24.3308C19.6064 24.3308 19.6064 24.017 19.8272 23.9938V23.9357Z" fill="#EC6225"/>
<path d="M18.8963 25.4581C20.8326 26.1482 22.7298 26.9435 24.5793 27.8405C24.7769 27.9335 24.5793 28.2124 24.4166 28.131C22.5897 27.2535 20.7158 26.4775 18.8034 25.8067C18.7696 25.7873 18.7433 25.7572 18.7286 25.7211C18.714 25.685 18.7118 25.6451 18.7225 25.6076C18.7332 25.5702 18.7561 25.5374 18.7876 25.5145C18.8191 25.4916 18.8574 25.4799 18.8963 25.4813V25.4581Z" fill="#EC6225"/>
<path d="M22.3253 27.1198L21.3142 30.3506C21.2444 30.5482 20.919 30.4668 20.9887 30.2576L22.0114 27.0384C22.0114 26.8292 22.395 26.9222 22.3253 27.1198Z" fill="#EC6225"/>
<path d="M26.1374 26.9457C26.1374 29.9325 24.3592 32.5241 23.813 35.3947C23.813 35.6039 23.4529 35.5225 23.4877 35.3133C24.0339 32.466 25.8121 29.8976 25.8121 26.9457C25.8219 26.9086 25.8437 26.8757 25.8742 26.8522C25.9047 26.8288 25.9421 26.816 25.9806 26.816C26.0191 26.816 26.0564 26.8288 26.0869 26.8522C26.1173 26.8757 26.1391 26.9086 26.149 26.9457H26.1374Z" fill="#EC6225"/>
<path d="M29.8673 21.8552C30.2426 23.1517 30.4458 24.4919 30.4717 25.8414C30.5762 27.5382 30.5762 29.2465 30.4717 30.9433C30.4717 31.8265 30.4715 32.7098 30.3553 33.5931C30.353 33.6287 30.34 33.6627 30.3177 33.6906C30.2955 33.7185 30.2651 33.7389 30.2309 33.7491C30.1967 33.7592 30.1602 33.7586 30.1264 33.7473C30.0925 33.736 30.063 33.7147 30.0417 33.686C29.2436 32.5436 28.2934 31.5153 27.2175 30.6295L27.4848 30.432C27.8321 31.0649 28.0679 31.7529 28.1821 32.4658C28.2287 32.7544 28.2287 33.0487 28.1821 33.3374C28.0826 33.7302 27.9177 34.1035 27.6941 34.4414C26.6236 35.9152 25.763 37.5306 25.1372 39.2412C25.1236 39.2795 25.0961 39.3114 25.0602 39.3304C25.0242 39.3495 24.9825 39.3544 24.9431 39.3442C24.9038 39.334 24.8695 39.3094 24.8474 39.2753C24.8252 39.2411 24.8168 39.1999 24.8235 39.1598C25.3836 37.5952 26.1665 36.1196 27.1479 34.7785C27.3984 34.4088 27.6198 34.0202 27.8102 33.6163C27.9228 33.312 27.9548 32.9837 27.9032 32.6633C27.7984 31.9534 27.5662 31.2684 27.2175 30.6412C27.1971 30.607 27.1898 30.5665 27.1972 30.5274C27.2046 30.4883 27.2262 30.4532 27.2577 30.4289C27.2892 30.4045 27.3285 30.3926 27.3682 30.3953C27.4079 30.398 27.4453 30.4152 27.4732 30.4436C28.5712 31.3457 29.5409 32.3936 30.3553 33.5582L30.0417 33.6395C30.3094 30.4358 30.2742 27.214 29.937 24.0168C29.8614 23.3273 29.7214 22.6464 29.5186 21.983C29.4489 21.7854 29.7743 21.6925 29.8324 21.9017L29.8673 21.8552Z" fill="#C89E95"/>
<path d="M16.1544 24.7956C15.9258 27.5604 15.9882 30.3416 16.3403 33.0934L16.1195 32.9308C17.5722 32.4078 18.4439 30.9551 19.9896 30.6064C20.1871 30.5483 20.28 30.8737 20.0708 30.9202C18.5716 31.3037 17.6536 32.7564 16.2125 33.2445C16.1878 33.2496 16.1623 33.2493 16.1378 33.2435C16.1132 33.2378 16.0902 33.2268 16.0704 33.2114C16.0505 33.1959 16.0343 33.1763 16.0227 33.1539C16.0111 33.1316 16.0044 33.107 16.0033 33.0818C15.6627 30.3292 15.6005 27.5491 15.8174 24.784C15.8174 24.5748 16.166 24.5631 16.1544 24.784V24.7956Z" fill="#C89E95"/>
<path d="M18.5489 32.4774C18.5489 33.0237 18.4094 33.5467 18.3862 34.0929C18.3585 35.0786 18.4839 36.0626 18.758 37.0099C18.8161 37.2075 18.4908 37.3004 18.4327 37.0912C18.1598 36.1435 18.0305 35.1603 18.0491 34.1742C18.0491 33.6048 18.177 33.012 18.2118 32.4774C18.2118 32.2683 18.5605 32.2683 18.5489 32.4774Z" fill="#C89E95"/>
<path d="M22.4985 47.3067C21.8634 48.2548 21.5311 49.3733 21.5454 50.5143C21.5506 51.6168 21.3292 52.7086 20.8947 53.7219C20.6808 54.2132 20.4363 54.6907 20.1625 55.1513C20.0579 55.3373 19.9417 55.5349 19.8487 55.7324C19.7404 56.0395 19.655 56.3541 19.593 56.6738C19.3257 57.8359 19.1281 59.0562 18.9538 60.2532C18.9538 60.4624 18.5935 60.3695 18.6284 60.1603C18.8027 58.9981 18.977 57.9057 19.2211 56.8016C19.2898 56.4066 19.3909 56.0179 19.5232 55.6394C19.7324 55.0583 20.1276 54.5586 20.3832 54.0008C20.9218 52.9463 21.2044 51.7797 21.2083 50.5956C21.1926 50.0811 21.2356 49.5665 21.3363 49.0616C21.5154 48.3665 21.81 47.7065 22.2079 47.1091C22.3241 46.9232 22.6147 47.1092 22.4985 47.2719V47.3067Z" fill="#C89E95"/>
<path d="M19.5133 53.0127C19.7957 53.0127 20.0247 52.7838 20.0247 52.5013C20.0247 52.2189 19.7957 51.99 19.5133 51.99C19.2309 51.99 19.002 52.2189 19.002 52.5013C19.002 52.7838 19.2309 53.0127 19.5133 53.0127Z" fill="#C89E95"/>
<path d="M13.6444 26.2482C13.798 26.6234 13.9148 27.0126 13.9931 27.4104C13.9931 27.6196 13.7025 27.7125 13.6677 27.5033C13.6049 27.0832 13.4878 26.673 13.3191 26.2831C13.2378 26.0855 13.563 26.0041 13.6444 26.2017V26.2482Z" fill="#C89E95"/>
<path d="M30.4726 15.5448C30.3164 15.4073 30.126 15.3143 29.9216 15.2755C29.7172 15.2366 29.5062 15.2534 29.3105 15.324C29.2471 15.3416 29.1809 15.3465 29.1157 15.3384C29.0504 15.3304 28.9875 15.3096 28.9303 15.2773C28.8731 15.2449 28.8227 15.2016 28.7823 15.1498C28.7418 15.098 28.712 15.0387 28.6945 14.9754C28.6769 14.912 28.672 14.8459 28.68 14.7806C28.688 14.7154 28.7088 14.6524 28.7411 14.5952C28.7735 14.538 28.8169 14.4877 28.8687 14.4473C28.9205 14.4068 28.9797 14.377 29.043 14.3594C29.443 14.2412 29.8688 14.2432 30.2676 14.3651C30.6664 14.487 31.0206 14.7235 31.2861 15.0451C31.3523 15.1607 31.37 15.2979 31.3352 15.4265C31.3003 15.5551 31.2157 15.6645 31.1001 15.7308C30.9845 15.797 30.8473 15.8147 30.7188 15.7798C30.5902 15.745 30.4807 15.6604 30.4145 15.5448H30.4726Z" fill="#933E33"/>
<path d="M26.068 14.5451C25.7804 14.3131 25.4373 14.1599 25.0725 14.1008C24.7077 14.0417 24.3338 14.0787 23.9876 14.2081C23.3717 14.4173 23.116 13.4527 23.7204 13.2435C24.1962 13.0743 24.7066 13.026 25.2057 13.1031C25.7048 13.1802 26.1767 13.3802 26.5793 13.6851C26.6933 13.753 26.7758 13.8633 26.8085 13.9919C26.8412 14.1204 26.8214 14.2568 26.7536 14.3708C26.6858 14.4849 26.5755 14.5673 26.4469 14.6C26.3183 14.6327 26.182 14.6129 26.068 14.5451Z" fill="#933E33"/>
<path d="M27.7979 17.0089C27.6719 17.1436 27.5882 17.3123 27.5572 17.4941C27.5262 17.6759 27.5492 17.8628 27.6236 18.0316C27.7868 18.2551 27.8798 18.5221 27.8908 18.7987C27.866 18.9438 27.8094 19.0816 27.7251 19.2023C27.6408 19.323 27.5309 19.4236 27.4032 19.4969C27.2756 19.5702 27.1333 19.6143 26.9866 19.6262C26.8398 19.6381 26.6923 19.6175 26.5545 19.5657C26.3453 19.5657 26.4382 19.1938 26.6474 19.2403C26.8566 19.2868 27.5771 19.2403 27.5539 18.7057C27.5539 18.4384 27.3331 18.2525 27.2517 18.0084C27.1932 17.7935 27.1913 17.567 27.2463 17.3511C27.3013 17.1352 27.4113 16.9373 27.5655 16.7765C27.7282 16.6254 27.9606 16.8695 27.7979 17.0089Z" fill="#EC6225"/>
<path d="M29.0537 17.1949C29.0449 17.2955 29.0663 17.3964 29.1148 17.4849C29.1633 17.5735 29.237 17.6457 29.3265 17.6924C29.416 17.7391 29.5172 17.7583 29.6176 17.7476C29.718 17.7368 29.813 17.6966 29.8905 17.632C29.9681 17.5673 30.0247 17.4812 30.0534 17.3844C30.0821 17.2876 30.0815 17.1845 30.0517 17.088C30.0219 16.9916 29.9642 16.9061 29.8859 16.8424C29.8075 16.7787 29.7121 16.7396 29.6116 16.7301C29.4765 16.7203 29.3428 16.7632 29.2388 16.8499C29.1348 16.9366 29.0684 17.0603 29.0537 17.1949Z" fill="#EC6225"/>
<path d="M24.0804 16.3465C24.074 16.4137 24.0809 16.4815 24.1009 16.546C24.1208 16.6105 24.1534 16.6704 24.1966 16.7223C24.2398 16.7741 24.2928 16.8169 24.3527 16.8482C24.4125 16.8794 24.4779 16.8985 24.5452 16.9044C24.6118 16.9124 24.6794 16.907 24.7438 16.8884C24.8082 16.8698 24.8682 16.8384 24.9203 16.7961C24.9723 16.7538 25.0154 16.7015 25.0468 16.6422C25.0782 16.5829 25.0974 16.518 25.1031 16.4511C25.1095 16.3839 25.1025 16.3161 25.0826 16.2516C25.0626 16.1871 25.03 16.1272 24.9868 16.0754C24.9436 16.0235 24.8906 15.9807 24.8308 15.9495C24.7709 15.9182 24.7055 15.8991 24.6383 15.8933C24.5043 15.8802 24.3707 15.9205 24.2663 16.0053C24.1619 16.0902 24.0951 16.2128 24.0804 16.3465Z" fill="#EC6225"/>
<path d="M27.486 20.7744C26.252 20.3963 25.0781 19.8446 23.9995 19.1358C24.0163 19.5927 24.1738 20.0333 24.4505 20.3973C24.7272 20.7613 25.1095 21.031 25.5453 21.1696C25.8779 21.2507 26.2243 21.2574 26.5598 21.1891C26.8953 21.1208 27.2116 20.9791 27.486 20.7744Z" fill="white"/>
<path d="M57.6198 37.2772C57.1797 37.3295 56.7349 37.3295 56.2949 37.2772C56.202 37.2707 56.1088 37.2707 56.016 37.2772C55.8416 37.2772 55.8533 37.2772 55.7603 37.4282C55.6673 37.5793 55.5627 37.7885 55.4581 37.9745C54.9689 38.6806 54.3544 39.2911 53.6451 39.7758C53.4824 39.9036 53.25 39.6712 53.4127 39.5318C53.8079 39.2064 54.2146 38.8926 54.5749 38.5439C54.9012 38.1982 55.1752 37.8067 55.3883 37.3817C55.5394 37.1144 55.644 36.9169 55.9694 36.9517C56.5099 37.0152 57.056 37.0152 57.5965 36.9517C57.8057 36.9517 57.8057 37.2539 57.5965 37.2888L57.6198 37.2772Z" fill="#EC6225"/>
<path d="M58.3641 41.3099C57.9109 41.4768 57.4443 41.6051 56.9694 41.6934C56.9406 41.696 56.9117 41.6895 56.8867 41.675C56.8617 41.6604 56.8419 41.6384 56.83 41.6121C56.7784 41.4325 56.7632 41.2444 56.7851 41.0588C56.8071 40.8732 56.8657 40.6939 56.9578 40.5312C57.242 40.1784 57.604 39.896 58.0154 39.7061C58.213 39.6015 58.3757 39.8921 58.1898 39.9966C57.8983 40.1405 57.6283 40.3243 57.3878 40.5429C57.2415 40.6788 57.1539 40.8664 57.1438 41.0659C57.128 41.1932 57.128 41.322 57.1438 41.4494L56.9927 41.3564C57.4364 41.2753 57.872 41.1547 58.2943 40.9961C58.3149 40.99 58.3365 40.988 58.3579 40.9903C58.3792 40.9925 58.4 40.999 58.4189 41.0092C58.4377 41.0195 58.4544 41.0333 58.4679 41.05C58.4815 41.0667 58.4916 41.0859 58.4977 41.1065C58.5038 41.1271 58.5058 41.1487 58.5036 41.1701C58.5013 41.1915 58.4949 41.2122 58.4847 41.2311C58.4744 41.25 58.4605 41.2667 58.4438 41.2802C58.4271 41.2937 58.4078 41.3038 58.3872 41.3099H58.3641Z" fill="#EC6225"/>
<path d="M32.8067 7.83972C31.9988 8.7829 31.006 9.55026 29.8897 10.0943C28.7951 10.7102 27.6223 11.1754 26.4032 11.4773C25.0764 11.7439 23.7176 11.8144 22.3703 11.6865C21.6923 11.5977 21.0069 11.5782 20.3249 11.6284C19.6392 11.6981 19.035 12.0351 18.3726 12.1281C15.0604 12.5697 13.4217 10.5708 14.0144 10.8265C14.6398 11.1131 15.3001 11.3164 15.9784 11.4308C16.6282 11.4992 17.2852 11.4319 17.9077 11.2332C18.5055 11.0215 19.1147 10.843 19.7323 10.6986C20.4006 10.5885 21.0803 10.565 21.7545 10.6289C22.4169 10.6289 23.0677 10.7567 23.7301 10.7567C24.3454 10.7589 24.9597 10.7083 25.5663 10.6056C26.7732 10.4351 27.9481 10.0865 29.0528 9.57133C30.215 9.02512 33.1786 7.33999 32.7718 7.83972H32.8067Z" fill="#742E30"/>
<path d="M20.4652 14.1618C17.637 15.6636 14.3481 16.0493 11.2491 15.2426C11.1784 15.2083 11.1218 15.1504 11.0893 15.0788C11.0567 15.0072 11.0503 14.9265 11.071 14.8507C11.0917 14.7748 11.1383 14.7086 11.2026 14.6634C11.267 14.6182 11.3451 14.597 11.4235 14.6034C14.8286 15.6493 20.8487 13.9642 20.4652 14.1618Z" fill="#742E30"/>
<path d="M17.4791 10.4777C16.4283 10.5167 15.3942 10.206 14.5387 9.59448C14.1785 9.30394 14.6434 8.50204 15.0036 8.79258C15.7126 9.36204 17.9439 10.5126 17.4791 10.4777Z" fill="#742E30"/>
<path opacity="0.83" d="M62.1985 45.6434H55.8066L54.6328 28.9779H63.6512L62.1985 45.6434Z" fill="white"/>
<path d="M55.8072 45.6432H62.1991L63.3496 32.4875H54.8774L55.8072 45.6432Z" fill="#F7A400"/>
<path d="M62.1985 45.6434H55.8066L54.6328 28.9779H63.6512L62.1985 45.6434Z" stroke="black" stroke-width="0.885783" stroke-linecap="round" stroke-linejoin="round"/>
<path d="M56.8052 30.5468L57.27 37.6592" stroke="white" stroke-width="1.30996" stroke-linecap="round" stroke-linejoin="round"/>
</svg>
