<svg width="43" height="60" viewBox="-5 -17 74 87" fill="none" xmlns="http://www.w3.org/2000/svg">
<path d="M28.4745 26.4865C29.1919 25.4684 29.6767 24.305 29.8945 23.0788C30.0282 22.0924 29.98 21.0898 29.7525 20.1207C29.6246 19.5038 29.4464 18.8983 29.22 18.3104C28.51 16.5 27.8829 15.7664 27.4688 14.7606C26.7352 13.0094 27.6108 12.6426 27.3505 9.34135C27.3867 7.42096 26.8379 5.53499 25.7768 3.93392C25.0352 2.96135 24.0464 2.20546 22.9133 1.74495C21.9776 1.02247 20.9016 0.502603 19.754 0.218524C15.4588 -0.799066 10.1698 1.81596 8.12279 6.41878C7.5364 7.87569 7.24594 9.43474 7.26829 11.0051C7.29063 12.5754 7.62532 14.1256 8.25293 15.5652C8.17484 18.371 8.40895 21.1767 8.951 23.9308C9.11366 24.7361 9.44435 25.4981 9.92134 26.1671C10.5279 26.9244 11.2907 27.5419 12.1577 27.9774V27.9774C13.2753 28.6064 14.468 29.0915 15.7074 29.421C19.9908 30.4978 25.9305 29.9771 28.4745 26.4865Z" fill="#3F3F3E"/>
<path d="M42.626 57.4757C41.4428 60.1143 36.0472 59.8422 34.7456 59.8422L34.4853 53.926L36.3666 53.6539L33.2428 41.9753L10.6666 42.6142L8.02801 51.169L8.86807 50.4236L7.11689 58.3987C3.17669 59.8541 1.54386 59.1205 0.798416 58.4815C-1.2131 56.754 1.09416 53.6775 2.06442 43.1703C2.56138 37.7511 2.70335 33.0418 6.02826 28.9714C6.16913 28.8128 6.31927 28.6627 6.4779 28.5218C7.60291 27.5142 8.93613 26.7668 10.3827 26.3328C10.785 26.2144 11.1873 26.1079 11.5659 26.0251C14.4583 25.533 17.422 25.6581 20.2627 26.392L22.1203 26.1079C24.069 25.7356 26.0585 25.6242 28.0366 25.7767C28.5808 25.8358 29.0778 25.9068 29.5393 26.0015C31.3293 26.3045 33.0072 27.0761 34.4024 28.2378C34.9414 28.6854 35.4048 29.2167 35.775 29.8115C37.2422 32.2845 37.3014 34.5445 37.5854 36.7571C38.2477 39.2765 39.0375 41.7606 39.9519 44.1998C41.1974 47.9671 42.1353 51.8292 42.7562 55.7482C42.8679 56.3254 42.823 56.9218 42.626 57.4757V57.4757Z" fill="#F6AA72"/>
<path d="M24.9955 27.6342L17.754 29.6694L15.8135 17.482L24.5695 20.6058C24.4054 22.3751 24.4411 24.1572 24.676 25.9185C24.7469 26.4155 24.8535 27.0071 24.9955 27.6342Z" fill="#F6AA72"/>
<path d="M33.5639 42.1525C32.8894 45.1106 31.363 48.0687 30.4046 51.2043C30.3099 51.512 30.2271 51.8196 30.1443 52.139C29.4698 54.6475 29.7421 57.1324 29.044 59.5107L4.96484 58.9545L8.3372 44.4362C8.63301 43.182 8.91698 41.9395 9.21279 40.6853C10.1367 40.0171 10.9998 39.2687 11.7922 38.4489C12.49 37.7097 13.1308 36.9186 13.709 36.0824C15.5651 37.2674 17.6287 38.0905 19.7909 38.5081C24.0775 39.2518 28.4892 38.4732 32.2623 36.3072C32.641 38.2951 33.0669 40.2238 33.5639 42.1525Z" fill="#6859A3"/>
<path d="M30.3442 51.2045C30.2495 51.5121 30.1667 51.8197 30.0839 52.1392C29.6392 54.6561 29.3389 57.1963 29.1846 59.7475H4.69141C5.33036 57.0142 6.18226 53.4644 6.58457 51.6896L9.10488 40.8866C9.10979 42.7582 9.69706 44.5819 10.7851 46.1047C11.6112 47.1414 12.6457 47.9931 13.8218 48.6046C14.9979 49.2161 16.2894 49.5738 17.6125 49.6544C21.1622 49.8319 22.2389 47.7021 25.2917 48.1162C27.2929 48.5034 29.087 49.6 30.3442 51.2045V51.2045Z" fill="#6859A3"/>
<path d="M21.056 56.683C18.3937 56.328 17.1512 53.8669 14.8793 54.7188L14.6428 54.8135C13.5489 55.2703 12.4925 55.8123 11.4834 56.4345C10.596 57.1208 10.9155 59.724 11.3296 59.724L35.3969 59.7949C35.0892 57.8071 34.7816 55.8074 34.4858 53.8077C29.8711 54.707 25.6706 55.7837 21.056 56.683Z" fill="#F6AA72"/>
<path d="M21.3283 22.8422C20.2719 22.4969 19.3204 21.8891 18.563 21.0758C17.8056 20.2625 17.2669 19.2702 16.9976 18.192L24.6886 19.0676C24.5574 19.7737 24.4979 20.4912 24.5111 21.2093V21.3631C24.5111 22.6529 22.5115 23.2681 21.3283 22.8422Z" fill="#EC6225"/>
<path d="M24.4047 5.29477C25.3868 6.1467 25.8719 7.66127 26.7711 10.5602C26.7711 10.5602 28.2028 14.9618 27.3036 17.8253C27.3073 17.8765 27.3073 17.9279 27.3036 17.9791C27.0152 19.0825 26.3653 20.0573 25.4578 20.7479C23.0913 22.4045 19.719 20.6414 19.1984 20.3693C17.5506 19.4612 16.2302 18.0579 15.4239 16.3581C14.2328 13.3684 13.0297 10.3748 11.8149 7.37729C16.7491 4.02871 21.8725 3.10577 24.4047 5.29477Z" fill="#F6AA72"/>
<path d="M22.4983 3.09412C22.5393 4.22808 22.3509 5.35861 21.9442 6.41794C21.5376 7.47728 20.9211 8.44354 20.1318 9.25877C19.0086 10.3655 17.5701 11.0972 16.0142 11.3531C16.741 12.4074 17.3072 13.5638 17.6943 14.7845C18.7355 18.1212 17.7772 20.0973 19.1024 22.7596C19.6609 23.8766 20.471 24.8486 21.4689 25.5993C20.5842 25.8469 19.6646 25.9469 18.7474 25.8952C18.4103 25.8804 18.0744 25.8449 17.7416 25.7887C16.2508 20.0973 8.80811 5.67358 8.80811 5.67358L22.4983 3.09412Z" fill="#3F3F3E"/>
<path d="M14.1812 39.384L12.998 39.2302C13.4726 34.7293 12.569 30.1904 10.4067 26.2145C10.7948 26.0858 11.1899 25.9791 11.59 25.895C12.1885 27.036 12.6949 28.223 13.1044 29.4447C14.1977 32.6366 14.5656 36.0321 14.1812 39.384Z" fill="#6859A3"/>
<path d="M32.1897 39.384L31.0064 39.2302C31.3429 35.9715 30.9384 32.6789 29.8232 29.5986C29.3498 28.2313 28.7558 26.9088 28.0483 25.6466C28.5529 25.6885 29.0547 25.7596 29.5511 25.8595C30.0936 26.9273 30.5641 28.0301 30.9592 29.1608C32.1383 32.4313 32.559 35.927 32.1897 39.384V39.384Z" fill="#6859A3"/>
<path d="M25.7172 9.36502C25.2716 9.24687 24.8016 9.25748 24.3618 9.39571C23.922 9.53394 23.5304 9.79409 23.2324 10.1459C23.18 10.2608 23.1722 10.3911 23.2105 10.5115C23.2488 10.6319 23.3304 10.7337 23.4396 10.7971C23.5488 10.8606 23.6777 10.8812 23.8012 10.8548C23.9248 10.8285 24.0342 10.7572 24.108 10.6547C24.2922 10.5038 24.5082 10.3966 24.7398 10.3413C24.9714 10.2859 25.2126 10.2839 25.4451 10.3353C26.0722 10.5364 26.3325 9.55434 25.7172 9.36502V9.36502Z" fill="#3F3F3E"/>
<path d="M20.7002 10.5364C19.824 10.6004 18.9928 10.9494 18.3337 11.5302C17.8486 11.9562 18.5585 12.7135 19.0554 12.2402C19.318 12.024 19.6191 11.8594 19.9429 11.7551L20.4162 11.6013H20.6056H20.6883C21.3391 11.6013 21.3391 10.5718 20.6883 10.5955L20.7002 10.5364Z" fill="#3F3F3E"/>
<path d="M22.1442 17.0797C23.1499 17.4583 24.8657 17.411 25.3272 16.2396C25.41 16.0384 25.0787 15.9438 24.9958 16.1449C24.6172 17.127 23.0317 17.056 22.2389 16.7602C22.026 16.6892 21.943 17.0087 22.1442 17.0797V17.0797Z" fill="#EC6225"/>
<path d="M23.2921 12.4416C23.2582 12.6556 23.276 12.8747 23.3439 13.0805C23.4119 13.2863 23.528 13.4729 23.6826 13.6248C23.8647 13.758 24.0543 13.8805 24.2506 13.9916C24.3414 14.0602 24.41 14.154 24.4479 14.2613C24.4858 14.3686 24.4913 14.4847 24.4636 14.5951C24.4289 14.7276 24.3586 14.8483 24.2607 14.9441C24.1628 15.04 24.0407 15.1075 23.9074 15.1394C23.7062 15.2104 23.7892 15.5417 23.9903 15.4588C24.6174 15.234 25.1143 14.5596 24.6528 13.9206C24.4635 13.6485 24.1441 13.6011 23.9192 13.3882C23.8006 13.2711 23.7119 13.1272 23.6604 12.9687C23.6089 12.8102 23.5962 12.6416 23.6234 12.4771C23.6344 12.4332 23.6275 12.3867 23.6042 12.3478C23.5809 12.309 23.5431 12.281 23.4992 12.27C23.4553 12.259 23.4088 12.266 23.3699 12.2893C23.3311 12.3126 23.3031 12.3503 23.2921 12.3943V12.4416Z" fill="#EC6225"/>
<path d="M24.9837 11.696C25.0209 11.7552 25.0698 11.8064 25.1272 11.8464C25.1846 11.8864 25.2493 11.9144 25.3178 11.9287C25.3863 11.9431 25.457 11.9435 25.5257 11.93C25.5943 11.9164 25.6595 11.8891 25.7173 11.8498C25.8329 11.7684 25.9132 11.646 25.9418 11.5075C25.9704 11.3691 25.9451 11.2249 25.8712 11.1043C25.7957 10.9852 25.6762 10.9009 25.5387 10.8698C25.4011 10.8388 25.2569 10.8635 25.1376 10.9387C25.0188 11.0203 24.9363 11.145 24.9076 11.2863C24.8789 11.4275 24.9062 11.5744 24.9837 11.696V11.696Z" fill="#EC6225"/>
<path d="M20.4638 13.3172C20.5 13.3774 20.5479 13.4296 20.6049 13.4708C20.6619 13.5119 20.7266 13.5412 20.7951 13.5566C20.8637 13.5721 20.9347 13.5736 21.0038 13.5609C21.0729 13.5482 21.1388 13.5216 21.1974 13.4828C21.3162 13.4012 21.3985 13.2766 21.4272 13.1353C21.4559 12.994 21.4287 12.8471 21.3512 12.7255C21.314 12.6663 21.2652 12.6152 21.2078 12.5752C21.1504 12.5352 21.0855 12.5071 21.017 12.4928C20.9485 12.4784 20.8779 12.4781 20.8093 12.4916C20.7406 12.5052 20.6755 12.5324 20.6176 12.5717C20.4996 12.6512 20.4174 12.7738 20.3887 12.9131C20.3599 13.0524 20.3869 13.1975 20.4638 13.3172Z" fill="#EC6225"/>
<path d="M16.795 11.199C16.2338 11.1549 15.6764 11.0719 15.1267 10.9505C14.4262 10.8062 13.7407 10.5962 13.0796 10.3234C13.1986 10.5362 13.3417 10.7347 13.5057 10.915C14.2866 11.767 15.6946 12.4532 16.3927 11.9326C16.6117 11.7452 16.7547 11.4844 16.795 11.199Z" fill="white"/>
<path d="M31.3497 44.5545L30.4741 43.9392C29.5891 43.3909 28.7914 42.7129 28.1076 41.9277C26.9244 40.3066 26.9244 38.6383 28.1076 37.5852C28.9818 37.0964 29.9885 36.8976 30.9828 37.0173V37.8929C30.2046 37.8002 29.4159 37.9187 28.6993 38.236C27.871 38.9696 27.9302 40.1647 28.8413 41.4189C29.4839 42.1124 30.216 42.7172 31.0184 43.2174C31.3379 43.4423 31.6455 43.6434 31.9177 43.8564L31.3497 44.5545Z" fill="white"/>
<path d="M1.24837 57.1798C0.372771 53.8667 3.9462 51.9854 6.6085 51.2636C6.64288 51.2439 6.6697 51.2132 6.68462 51.1764C6.69953 51.1397 6.70172 51.0991 6.69083 51.0609C6.67993 51.0228 6.6566 50.9894 6.62453 50.9661C6.59246 50.9428 6.55351 50.9309 6.51389 50.9323C3.66227 51.6659 -0.00575687 53.7129 0.917173 57.2153C0.928156 57.2593 0.956048 57.297 0.994881 57.3203C1.03371 57.3436 1.08022 57.3505 1.12415 57.3396C1.16809 57.3286 1.20586 57.3006 1.22916 57.2618C1.25246 57.2229 1.25935 57.1764 1.24837 57.1325V57.1798Z" fill="#EC6225"/>
<path d="M13.8848 12.3944C14.5993 13.9104 15.1545 15.4966 15.5413 17.1273C15.8538 18.2447 16.0559 19.3901 16.1448 20.5469C16.1448 20.7599 16.488 20.7599 16.4762 20.5469C16.3976 19.3461 16.1954 18.1565 15.8727 16.9972C15.4794 15.3239 14.9081 13.6975 14.1687 12.1458C14.0741 11.9447 13.7901 12.1459 13.8848 12.3115V12.3944Z" fill="#706F6F"/>
<path d="M13.5183 9.59009C13.4986 8.00364 13.9879 6.45264 14.9145 5.16478C15.5477 4.2669 16.4517 3.59513 17.494 3.24786C17.5167 3.24406 17.5382 3.23562 17.5574 3.22301C17.5766 3.21041 17.593 3.19397 17.6055 3.1747C17.618 3.15542 17.6264 3.13375 17.6301 3.11107C17.6338 3.08839 17.6327 3.06521 17.6269 3.04297C17.6211 3.02073 17.6108 2.99991 17.5966 2.98187C17.5823 2.96384 17.5646 2.94895 17.5443 2.93818C17.524 2.92741 17.5016 2.92101 17.4787 2.91933C17.4558 2.91765 17.4328 2.92074 17.4111 2.92843C16.3019 3.28293 15.3383 3.98905 14.6661 4.93996C13.6798 6.28758 13.1605 7.92034 13.187 9.59009C13.187 9.61185 13.1912 9.6334 13.1996 9.6535C13.2079 9.6736 13.2202 9.69185 13.2355 9.70723C13.2509 9.72262 13.2692 9.7348 13.2893 9.74313C13.3094 9.75145 13.3309 9.75569 13.3527 9.75569C13.3744 9.75569 13.396 9.75145 13.4161 9.74313C13.4362 9.7348 13.4544 9.72262 13.4698 9.70723C13.4852 9.69185 13.4973 9.6736 13.5056 9.6535C13.514 9.6334 13.5183 9.61185 13.5183 9.59009V9.59009Z" fill="#706F6F"/>
<path d="M9.44853 15.6482C9.32784 17.2619 9.4153 18.8845 9.70881 20.4759C9.91281 22.0951 10.3101 23.6841 10.8921 25.2088C10.9749 25.41 11.3062 25.3271 11.2234 25.126C10.673 23.6482 10.2958 22.1116 10.0994 20.5468C9.79647 18.9527 9.70484 17.3255 9.82711 15.7074C9.82711 15.4825 9.51957 15.4825 9.49591 15.7074L9.44853 15.6482Z" fill="#706F6F"/>
<path d="M10.844 17.2929C10.9032 18.728 11.1376 20.1505 11.5421 21.5288C11.5619 21.5632 11.5925 21.59 11.6292 21.6049C11.666 21.6199 11.7066 21.622 11.7448 21.6111C11.7829 21.6003 11.8164 21.5769 11.8397 21.5448C11.863 21.5128 11.8749 21.4738 11.8735 21.4342C11.47 20.088 11.2354 18.6969 11.1752 17.2929C11.1752 17.0799 10.8322 17.0799 10.844 17.2929Z" fill="#706F6F"/>
<path d="M21.7893 1.53186C22.0824 1.83394 22.2657 2.22556 22.3099 2.64411C22.4221 3.08274 22.4221 3.54255 22.3099 3.98118C22.2389 4.18233 22.5702 4.27693 22.6294 4.06394C22.7536 3.56674 22.7536 3.04664 22.6294 2.54943C22.5676 2.07168 22.3515 1.62714 22.0141 1.28335C21.8484 1.15319 21.6118 1.38987 21.7775 1.53186H21.7893Z" fill="#706F6F"/>
<path d="M9.89756 35.0414C9.73141 36.7981 9.42674 38.5389 8.98644 40.2476C8.98503 40.2872 8.99693 40.3262 9.02024 40.3582C9.04355 40.3903 9.07701 40.4137 9.11514 40.4246C9.15326 40.4355 9.19381 40.4333 9.23054 40.4184C9.26728 40.4035 9.29805 40.3767 9.31778 40.3423C9.75635 38.6006 10.0649 36.8288 10.2407 35.0414C10.2407 34.8284 9.93306 34.8284 9.89756 35.0414Z" fill="#EC6225"/>
<path d="M24.9248 28.5571C24.8064 27.3738 24.7118 26.1906 24.629 25.0074C24.5149 23.8278 24.4715 22.6424 24.4988 21.4576C24.4988 21.2328 24.1795 21.2328 24.1676 21.4576C24.1363 22.6422 24.1758 23.8275 24.2859 25.0074C24.3687 26.1906 24.4752 27.3738 24.5936 28.5571C24.5936 28.7701 24.9484 28.7701 24.9248 28.5571Z" fill="#EC6225"/>
<path d="M36.6867 53.3461C37.8566 53.1091 39.0437 52.9666 40.2365 52.9201C40.4613 52.9201 40.4613 52.5651 40.2365 52.5769C39.0429 52.6293 37.8557 52.7797 36.6867 53.0266C36.4738 53.0266 36.5565 53.3934 36.7695 53.3461H36.6867Z" fill="#EC6225"/>
<path d="M16.3458 30.3557C17.6026 30.2265 18.8726 30.343 20.0849 30.6988C20.1058 30.7051 20.1278 30.7071 20.1496 30.7048C20.1713 30.7026 20.1925 30.696 20.2117 30.6856C20.2309 30.6751 20.2479 30.661 20.2617 30.644C20.2754 30.627 20.2858 30.6074 20.292 30.5865C20.2982 30.5655 20.3002 30.5434 20.2979 30.5217C20.2956 30.4999 20.2891 30.4789 20.2787 30.4597C20.2683 30.4404 20.2541 30.4234 20.2371 30.4097C20.2201 30.3959 20.2004 30.3856 20.1795 30.3794C18.9363 30.0157 17.6354 29.8912 16.3458 30.0126C16.1328 30.0126 16.1328 30.3794 16.3458 30.3557Z" fill="#EC6225"/>
<path d="M29.2558 30.0126C27.9662 29.8906 26.6651 30.0151 25.4221 30.3794C25.2091 30.4385 25.3037 30.7698 25.5048 30.6988C26.7212 30.3429 27.9951 30.2264 29.2558 30.3557C29.4688 30.3557 29.4688 30.0362 29.2558 30.0126Z" fill="#EC6225"/>
<path d="M14.2519 55.6534C13.6485 56.3633 12.8675 56.8366 12.2403 57.5229C11.7551 58.0693 11.435 58.7422 11.3174 59.4634C11.3174 59.6764 11.6132 59.7711 11.6487 59.5581C11.748 58.8393 12.0758 58.1714 12.5835 57.6531C13.2494 57.0997 13.8853 56.5112 14.4885 55.89C14.6305 55.7244 14.3939 55.4877 14.2519 55.6534V55.6534Z" fill="#EC6225"/>
<path d="M15.2696 56.245C14.8528 56.7721 14.3718 57.2451 13.8378 57.653C13.3143 58.1309 12.9612 58.7665 12.832 59.4634C12.832 59.6764 13.1279 59.7592 13.1634 59.5462C13.3199 58.7977 13.7397 58.1302 14.3466 57.6649C14.8026 57.3095 15.2016 56.8865 15.5299 56.4107C15.5518 56.3714 15.5572 56.3251 15.545 56.2818C15.5328 56.2385 15.5039 56.2019 15.4647 56.1799C15.4255 56.1579 15.3791 56.1525 15.3359 56.1647C15.2926 56.1769 15.256 56.2058 15.234 56.245H15.2696Z" fill="#EC6225"/>
<path d="M16.2872 57.0023C16.0032 57.9371 15.104 58.5286 14.82 59.4634C14.749 59.6764 15.0803 59.7592 15.1395 59.5581C15.4353 58.6233 16.3227 58.0317 16.6185 57.0851C16.6185 56.8839 16.3582 56.7893 16.2872 57.0023Z" fill="#EC6225"/>
<path d="M17.6007 58.6944C17.8548 58.7051 18.1008 58.7874 18.3101 58.9319C18.5195 59.0763 18.6837 59.2771 18.7839 59.5109C18.8549 59.712 19.1862 59.6173 19.1034 59.4162C18.9825 59.1125 18.7763 58.8503 18.5096 58.6614C18.2429 58.4724 17.9272 58.3646 17.6007 58.3512C17.3877 58.3512 17.3877 58.6708 17.6007 58.6944Z" fill="#EC6225"/>
<path d="M17.6008 57.4757C17.5409 58.0414 17.3764 58.5911 17.1156 59.0967C17.021 59.2979 17.3168 59.4636 17.4114 59.2743C17.6919 58.7102 17.8721 58.1016 17.944 57.4757C17.944 57.2509 17.6244 57.2627 17.6008 57.4757Z" fill="#EC6225"/>
<path opacity="0.83" d="M31.6718 45.5487H24.454L23.1406 26.7469H33.3165L31.6718 45.5487Z" fill="white"/>
<path d="M24.4539 45.5489H31.6716L32.9732 30.711H23.4126L24.4539 45.5489Z" fill="#E73E11"/>
<path d="M31.6718 45.5487H24.454L23.1406 26.7469H33.3165L31.6718 45.5487Z" stroke="#4A4A49" stroke-width="0.629379" stroke-linecap="round" stroke-linejoin="round"/>
<path d="M25.5889 28.5219L26.1213 36.5443" stroke="white" stroke-width="0.924151" stroke-linecap="round" stroke-linejoin="round"/>
<path d="M24.618 35.5149C24.9061 35.3965 25.2292 35.3965 25.5173 35.5149C25.8106 35.6189 26.0956 35.7455 26.3694 35.8935C26.888 36.1519 27.4424 36.3314 28.0141 36.426C28.2025 36.4365 28.3835 36.5023 28.5346 36.6153C28.601 36.7064 28.6368 36.8162 28.6368 36.9289C28.6368 37.0416 28.601 37.1514 28.5346 37.2425C28.4042 37.4296 28.2178 37.5704 28.0022 37.6447C27.8011 37.7157 27.5762 37.7631 27.3751 37.8459C27.0636 38.0071 26.7389 38.1417 26.4047 38.2482C26.0393 38.2933 25.6685 38.261 25.3162 38.1535C25.0183 38.1075 24.7303 38.0115 24.4643 37.8695C24.0881 37.6731 23.7882 37.3565 23.6123 36.9703C23.6123 36.7809 23.6715 36.639 23.778 36.5088C23.8845 36.3787 24.0147 36.1893 24.133 36.0237C24.2487 35.8155 24.4156 35.6403 24.618 35.5149Z" fill="#F6AA72"/>
<path d="M27.5521 37.8931L23.4935 36.4496C19.4868 41.7451 14.5466 46.2642 8.91605 49.7847C8.18244 50.2343 7.44885 50.6721 6.71524 51.0744L4.44336 59.0258C4.81016 58.943 5.31894 58.8247 5.89873 58.6354C7.20576 58.1671 8.46243 57.5685 9.64966 56.8487C11.8742 55.4998 13.4478 53.9615 17.2578 49.4889C18.7487 47.7377 20.5472 45.5723 22.5587 43.052C25.2565 44.6257 27.7058 44.6494 28.475 43.549C28.6343 43.292 28.7396 43.0052 28.7843 42.7062C28.8291 42.4071 28.8125 42.102 28.7354 41.8096L28.6288 39.9993C28.7924 40.1714 29.0116 40.2801 29.2477 40.3061C29.4838 40.3321 29.7215 40.2737 29.9186 40.1413C30.0209 40.0307 30.099 39.9 30.1481 39.7576C30.1973 39.6152 30.2164 39.4642 30.2042 39.314C30.1919 39.1639 30.1486 39.0179 30.0771 38.8853C30.0055 38.7528 29.9073 38.6365 29.7885 38.5439L27.5521 37.8931Z" fill="#F6AA72"/>
<path d="M21.8373 38.7804C22.4763 38.177 22.9023 37.396 23.5649 36.8399C23.7558 36.6978 23.9339 36.5395 24.0973 36.3666C24.2275 36.2246 24.2985 36.059 24.4168 35.9051C24.76 35.4318 25.2924 35.7277 25.7184 35.9051C26.67 36.2799 27.6571 36.5574 28.6646 36.7334L28.5463 36.5678C28.5487 36.736 28.5088 36.9022 28.4302 37.051C28.3517 37.1999 28.237 37.3266 28.0967 37.4197C27.8608 37.5153 27.6063 37.5564 27.3523 37.54C27.0982 37.5237 26.8512 37.4502 26.6295 37.325C26.4284 37.2422 26.3454 37.5735 26.5466 37.6563C26.8205 37.7994 27.125 37.8741 27.434 37.8741C27.7431 37.8741 28.0475 37.7994 28.3215 37.6563C28.4959 37.5285 28.6374 37.3609 28.7341 37.1675C28.8308 36.974 28.88 36.7603 28.8777 36.5441C28.8767 36.5092 28.8646 36.4756 28.8433 36.448C28.8221 36.4204 28.7926 36.4002 28.7593 36.3902L27.4696 36.0826C26.7956 35.8974 26.1321 35.6762 25.4818 35.42C25.3166 35.3367 25.1342 35.2934 24.9492 35.2934C24.7643 35.2934 24.582 35.3367 24.4168 35.42C24.2748 35.5264 24.1542 35.6589 24.0618 35.8105C23.9261 36.031 23.7587 36.2303 23.5649 36.4021C23.1893 36.6988 22.8514 37.0406 22.5591 37.4197C22.2622 37.8093 21.9423 38.1808 21.6007 38.5319C21.4469 38.6739 21.6835 38.9224 21.8373 38.7686V38.7804Z" fill="#EC6225"/>
</svg>
