<svg width="60" height="49" viewBox="-15 -30 74 87" fill="none" xmlns="http://www.w3.org/2000/svg">
<path d="M39.0082 6.47481C39.5829 7.18536 39.9194 8.05867 39.9703 8.97108C39.9703 10.2712 39.2292 10.9733 39.1512 11.4803C39.2575 12.2023 39.159 12.9395 38.8671 13.6084C38.5753 14.2772 38.1016 14.8507 37.5 15.2637C35.4328 16.5638 31.7144 15.6408 31.7144 15.6408L25.2137 10.4402C24.4714 9.22154 24.026 7.84538 23.9136 6.42283C23.9136 4.42063 25.2138 4.14761 26.0069 3.0555C26.8 1.96339 27.3071 0.455223 29.2703 0.078185C31.2335 -0.298853 32.5986 0.806239 33.1707 0.871246C33.7427 0.936253 36.1609 0.741268 37.487 1.96339C38.0815 2.53995 38.5296 3.2501 38.7941 4.0348C39.0587 4.8195 39.1322 5.65603 39.0082 6.47481V6.47481Z" fill="#FDD8AC"/>
<path fill-rule="evenodd" clip-rule="evenodd" d="M37.4764 20.4251L37.8795 19.97C39.8582 19.5938 41.8784 19.4845 43.8861 19.645C45.8233 20.048 52.35 24.8455 52.35 24.8455L51.0499 28.4859L49.3466 29.786L48.0465 29.279C48.0465 29.279 50.0227 33.4264 51.9469 37.9248C53.8711 42.4233 56.0942 47.3118 56.0942 47.3118L35.7473 47.1038L30.4557 32.8023L26.5553 34.5055L24.8001 32.5683L23.5 29.669C23.5 29.669 30.4427 23.8314 31.7818 22.7393C33.5752 21.7316 35.4885 20.954 37.4764 20.4251V20.4251Z" fill="#FFCC00"/>
<path d="M47.5899 29.2012H47.4858L44.9897 27.511C44.9728 27.4952 44.9592 27.4761 44.95 27.4549C44.9408 27.4336 44.936 27.4107 44.936 27.3875C44.936 27.3644 44.9408 27.3414 44.95 27.3202C44.9592 27.2989 44.9728 27.2798 44.9897 27.264C45.0212 27.2338 45.063 27.2169 45.1066 27.2169C45.1503 27.2169 45.1921 27.2338 45.2236 27.264L47.7199 28.9542C47.751 28.9878 47.7682 29.0319 47.7682 29.0777C47.7682 29.1235 47.751 29.1676 47.7199 29.2012C47.6781 29.2172 47.6318 29.2172 47.5899 29.2012V29.2012Z" fill="#F39400"/>
<path d="M30.4023 32.7634C30.3656 32.7632 30.3298 32.7519 30.2996 32.731C30.2694 32.7102 30.2464 32.6806 30.2333 32.6464L29.0501 29.084C29.0377 29.0392 29.0428 28.9913 29.0645 28.9502C29.0863 28.9091 29.123 28.8779 29.1671 28.863C29.1884 28.8548 29.2111 28.851 29.2339 28.8518C29.2567 28.8526 29.2791 28.8581 29.2997 28.8678C29.3204 28.8775 29.339 28.8913 29.3542 28.9084C29.3694 28.9254 29.3809 28.9454 29.3881 28.967L30.5713 32.5294C30.5795 32.5507 30.5832 32.5734 30.5824 32.5962C30.5816 32.619 30.5761 32.6415 30.5664 32.6621C30.5567 32.6828 30.543 32.7012 30.5259 32.7164C30.5089 32.7316 30.4888 32.7431 30.4672 32.7504L30.4023 32.7634Z" fill="#F39400"/>
<path fill-rule="evenodd" clip-rule="evenodd" d="M52.3478 24.8846C52.3478 24.8846 58.4063 28.7849 59.0303 30.0851C59.6544 31.3852 58.8093 41.9423 58.3672 44.3865C58.2276 45.39 58.028 46.3843 57.7692 47.3638L50.5536 46.6358C51.0433 45.9888 51.6523 45.4416 52.3478 45.0236C53.1019 44.7636 54.675 45.0236 54.9481 44.5945C55.127 40.6947 55.0791 36.7877 54.8049 32.8934C54.5709 32.0223 49.3574 29.6951 49.3574 29.6951L52.3478 24.8846Z" fill="#F6B09C"/>
<path fill-rule="evenodd" clip-rule="evenodd" d="M31.7156 22.7655C32.1899 23.3151 32.8509 23.6697 33.5711 23.7609C34.2913 23.8521 35.0197 23.6735 35.616 23.2595C36.2662 22.9791 36.8252 22.5226 37.2296 21.9413C37.6339 21.36 37.8675 20.6773 37.9043 19.9702C37.9043 19.9702 37.2412 20.0352 36.4611 18.9821C35.9305 18.2183 35.4939 17.3932 35.161 16.5248L30.9746 19.1901C30.9746 19.1901 32.3007 21.2313 31.7156 22.7655Z" fill="#F6B09C"/>
<path fill-rule="evenodd" clip-rule="evenodd" d="M25.7604 7.22868C25.1499 9.55834 24.7925 11.9471 24.6943 14.3534C24.6943 17.6297 26.3454 19.4499 28.4776 19.7619C29.7285 19.7969 30.9724 19.5631 32.1252 19.0764C33.278 18.5897 34.3129 17.8614 35.1603 16.9407C35.9664 17.5777 37.3185 17.0707 37.7606 15.6405C38.2026 14.2104 37.4616 13.8333 36.8245 13.8594C36.1874 13.8854 35.4204 14.8864 34.9264 14.6134C34.4323 14.3404 34.6012 12.8452 35.4853 11.8051C36.3694 10.765 36.2654 7.99575 36.2654 7.99575C35.5588 8.01827 34.8541 7.91256 34.1852 7.68373C33.5164 7.31199 32.7986 7.03625 32.053 6.86464C31.3639 6.86464 30.5448 7.29369 29.4527 6.99466C28.3606 6.69563 26.8525 6.16257 25.7604 7.22868Z" fill="#F6B09C"/>
<path d="M28.6468 13.8075C28.5925 13.8054 28.5412 13.7821 28.5038 13.7426C28.4727 13.7089 28.4556 13.6648 28.4556 13.619C28.4556 13.5733 28.4727 13.5292 28.5038 13.4955C28.8439 13.1969 29.1163 12.8288 29.3024 12.4162C29.4886 12.0036 29.5842 11.5559 29.583 11.1033C29.583 10.9993 29.648 10.9083 29.752 10.9213C29.7753 10.9195 29.7986 10.9225 29.8206 10.9302C29.8426 10.9379 29.8629 10.9501 29.88 10.9659C29.8971 10.9818 29.9107 11.001 29.92 11.0224C29.9293 11.0438 29.934 11.0669 29.9339 11.0903C29.9382 11.6008 29.8311 12.106 29.62 12.5708C29.4089 13.0356 29.099 13.4488 28.7119 13.7816L28.6468 13.8075Z" fill="#EB6344"/>
<path d="M28.6469 9.90723C28.6216 9.90776 28.5965 9.90213 28.5739 9.8908C28.5512 9.87948 28.5317 9.86281 28.5169 9.84224C28.2778 9.54175 27.9553 9.31854 27.5899 9.20058C27.2245 9.08263 26.8324 9.07516 26.4628 9.17916H26.3847C26.3364 9.17916 26.2901 9.15997 26.256 9.12583C26.2218 9.0917 26.2026 9.0454 26.2026 8.99712C26.2025 8.95446 26.2186 8.91333 26.2476 8.88198C26.2765 8.85063 26.3161 8.83142 26.3586 8.82814C26.7956 8.70361 27.2598 8.71122 27.6924 8.85004C28.1251 8.98886 28.5069 9.25265 28.7899 9.60818C28.821 9.64181 28.8383 9.68592 28.8383 9.7317C28.8383 9.77748 28.821 9.82158 28.7899 9.85521C28.7505 9.88999 28.6994 9.90858 28.6469 9.90723V9.90723Z" fill="#FDD8AC"/>
<path d="M34.0033 11.7531C33.949 11.7509 33.8976 11.7276 33.8603 11.688C33.6206 11.3879 33.2987 11.1641 32.9339 11.0441C32.5691 10.924 32.1772 10.9129 31.8061 11.012H31.7931C31.7709 11.012 31.7489 11.0076 31.7284 10.9991C31.7079 10.9906 31.6893 10.9782 31.6736 10.9625C31.6579 10.9468 31.6455 10.9281 31.637 10.9076C31.6285 10.8871 31.6241 10.8651 31.6241 10.843C31.6223 10.8224 31.6247 10.8018 31.6309 10.7822C31.6372 10.7626 31.6472 10.7444 31.6605 10.7287C31.6737 10.713 31.6901 10.7 31.7084 10.6906C31.7267 10.6812 31.7466 10.6756 31.7671 10.6739C32.204 10.5476 32.6686 10.5544 33.1017 10.6933C33.5347 10.8323 33.9165 11.0971 34.1983 11.454C34.2153 11.4698 34.2288 11.4889 34.238 11.5102C34.2472 11.5314 34.252 11.5544 34.252 11.5775C34.252 11.6007 34.2472 11.6236 34.238 11.6449C34.2288 11.6661 34.2153 11.6852 34.1983 11.701C34.1793 11.7337 34.1481 11.7576 34.1115 11.7673C34.075 11.777 34.0361 11.7719 34.0033 11.7531V11.7531Z" fill="#FDD8AC"/>
<path fill-rule="evenodd" clip-rule="evenodd" d="M27.0602 15.2636C27.6192 15.4498 28.2008 15.5591 28.7893 15.5886C29.7904 15.5886 30.4016 15.5886 30.4016 15.7186C29.8751 16.2135 29.1864 16.5 28.4643 16.5247C27.5932 16.5247 26.8261 15.3156 27.0602 15.2636Z" fill="white"/>
<path d="M27.6846 11.2071C27.6846 11.5712 27.3596 11.8442 27.1126 11.7922C26.8656 11.7402 26.7095 11.4151 26.7745 11.0381C26.8396 10.6611 27.0995 10.4011 27.3465 10.4531C27.5936 10.5051 27.7626 10.8821 27.6846 11.2071Z" fill="#1D1D1B"/>
<path d="M32.6514 13.1315C32.5474 13.4955 32.2743 13.7426 32.0143 13.6645C31.7543 13.5865 31.6502 13.2485 31.7542 12.8845C31.8582 12.5204 32.1442 12.2734 32.3912 12.3514C32.6383 12.4294 32.7554 12.7674 32.6514 13.1315Z" fill="#1D1D1B"/>
<path d="M31.1035 19.4633C32.0221 19.1425 32.896 18.7056 33.7038 18.1632C33.1372 19.0622 32.3888 19.8328 31.5066 20.4254L31.1035 19.4633Z" fill="#F28E78"/>
<path fill-rule="evenodd" clip-rule="evenodd" d="M23.4332 29.6949C23.4332 29.6949 16.3475 35.2985 15.6324 35.5455C14.9173 35.7925 5.34847 37.5347 4.82841 37.6387C3.17249 39.3208 1.72731 41.1981 0.524902 43.2293C2.12588 42.5684 3.56033 41.5604 4.72446 40.278C8.94989 40.408 15.9316 40.967 17.7258 40.161C19.52 39.3549 26.3715 34.6484 26.3715 34.6484L23.4332 29.6949Z" fill="#F6B09C"/>
<path opacity="0.83" d="M11.0881 47.8319H3.93734L2.63721 29.175H12.7262L11.0881 47.8319Z" fill="white"/>
<path d="M3.93823 47.8319H11.089L12.3761 33.1144H2.91113L3.93823 47.8319Z" fill="#BB0E0C"/>
<path d="M11.0881 47.8319H3.93734L2.63721 29.175H12.7262L11.0881 47.8319Z" stroke="#1D1D1B" stroke-width="0.798657" stroke-linecap="round" stroke-linejoin="round"/>
<path d="M5.07031 30.9431L5.59038 38.8999" stroke="white" stroke-width="1.18111" stroke-linecap="round" stroke-linejoin="round"/>
</svg>
