<svg width="55" height="57" viewBox="-13 -20 74 87" fill="none" xmlns="http://www.w3.org/2000/svg">
<path fill-rule="evenodd" clip-rule="evenodd" d="M20.5382 3.93984C20.3472 2.91674 19.8057 1.99209 19.0071 1.32475C17.7708 0.44989 16.3826 0.839817 15.8976 0.773251C15.4126 0.706685 14.1478 -0.0540644 12.9686 0.00299199C12.5536 0.055896 12.1534 0.190743 11.791 0.399701C11.4286 0.608658 11.1113 0.88753 10.8576 1.22016C10.2698 1.45152 9.72133 1.77228 9.23149 2.1711C8.64191 2.81774 8.78449 3.43587 8.46117 3.91134C7.72452 4.72772 7.28849 5.77097 7.22502 6.86875C7.14822 7.73255 7.34801 8.59837 7.79556 9.34117L16.354 15.1895L17.6282 14.8376C17.9878 14.7961 18.3339 14.6768 18.6427 14.4879C18.9514 14.2991 19.2153 14.0452 19.416 13.744C19.9977 12.9948 20.3834 12.1123 20.5382 11.1765C20.7569 10.6345 22.2118 9.8357 22.3734 7.72462C22.5351 5.61353 21.0612 4.01591 20.5382 3.93984Z" fill="#BE5B4F"/>
<path fill-rule="evenodd" clip-rule="evenodd" d="M11.3413 22.5116L10.7327 22.3499C10.7327 22.3499 5.89243 24.6893 3.63871 26.1537C1.38498 27.6181 -0.621492 30.9084 0.557673 37.4413C1.73684 43.9743 2.0221 51.2205 2.91598 54.5583C3.80987 57.8961 5.13163 58.847 5.13163 58.847L43.3024 58.6663C43.3024 58.6663 39.0992 49.3756 36.5317 43.6129C33.9641 37.8502 31.8816 33.4949 31.8816 33.4949C31.8816 33.4949 39.7839 38.145 42.6747 39.2862C45.5656 40.4273 49.8639 34.7121 51.0811 32.4204C52.2983 30.1286 55.4839 27.0285 56.549 24.0901C57.1998 22.4239 57.1998 20.5738 56.549 18.9075L54.1906 17.2244C53.2204 16.9437 52.1911 16.9391 51.2184 17.2112C50.2458 17.4834 49.3684 18.0214 48.6847 18.7649C46.1077 21.38 44.5766 25.2693 43.426 26.7052C42.2754 28.1411 41.8189 28.493 41.5241 28.493C41.2293 28.493 30.1128 20.2293 27.26 19.2974C24.4072 18.3655 20.9078 19.0882 17.1991 20.1057C15.3799 21.2002 13.4047 22.0115 11.3413 22.5116Z" fill="#FFCC00"/>
<path d="M26.0909 54.6914H26.1765C26.2006 54.6637 26.2139 54.6283 26.2139 54.5916C26.2139 54.5549 26.2006 54.5194 26.1765 54.4917C26.1099 54.4061 24.5219 52.5043 20.7181 52.0383C18.4757 51.846 16.2183 51.9258 13.995 52.276C13.4186 52.3859 12.8316 52.4305 12.2452 52.4092C11.6461 52.2 10.6096 51.0778 10.3433 48.9858C10.0771 46.8937 8.81232 36.3953 8.80281 36.2907C8.80281 36.2529 8.78777 36.2166 8.76102 36.1899C8.73427 36.1631 8.69797 36.1481 8.66014 36.1481C8.62231 36.1481 8.58613 36.1631 8.55938 36.1899C8.53263 36.2166 8.5176 36.2529 8.5176 36.2907C8.5176 36.3953 9.81087 46.7986 10.0581 48.9858C10.3054 51.1729 11.4274 52.3997 12.1216 52.6469C12.7577 52.7053 13.3989 52.6668 14.0235 52.5328C16.2243 52.1825 18.4598 52.1026 20.68 52.2951C22.6591 52.4206 24.528 53.2504 25.9483 54.6343C25.9632 54.6574 25.9849 54.6753 26.0105 54.6855C26.036 54.6957 26.0642 54.6978 26.0909 54.6914V54.6914Z" fill="#F59C00"/>
<path d="M31.558 33.2382H31.615C31.6325 33.2323 31.6485 33.2226 31.6618 33.2097C31.675 33.1968 31.6851 33.1811 31.6915 33.1638C31.6979 33.1465 31.7004 33.1279 31.6987 33.1095C31.697 33.0912 31.6911 33.0734 31.6816 33.0575L28.9715 27.3519C28.955 27.3179 28.9258 27.2918 28.8901 27.2793C28.8544 27.2668 28.8153 27.269 28.7812 27.2854C28.7634 27.2924 28.7473 27.3031 28.7341 27.3169C28.7208 27.3307 28.7108 27.3472 28.7045 27.3652C28.6982 27.3833 28.6958 27.4025 28.6975 27.4215C28.6993 27.4405 28.7052 27.4589 28.7147 27.4755L31.4344 33.1812C31.4471 33.2017 31.4657 33.2181 31.4877 33.2283C31.5096 33.2384 31.5341 33.2419 31.558 33.2382V33.2382Z" fill="#F59C00"/>
<path fill-rule="evenodd" clip-rule="evenodd" d="M26.2619 54.9103C26.7448 55.8648 27.0142 56.9129 27.0512 57.9819L34.459 57.1165C31.8548 55.9682 29.0906 55.2242 26.2619 54.9103Z" fill="#F6B09C"/>
<path fill-rule="evenodd" clip-rule="evenodd" d="M10.4278 17.8142C10.4278 17.8142 11.0173 20.5814 11.0363 21.3042C11.0576 21.49 11.0418 21.6782 10.9895 21.8578C10.9373 22.0374 10.8497 22.2048 10.7321 22.3502C10.7321 22.3502 14.9257 26.2966 15.4107 26.154C15.8957 26.0113 17.208 20.0679 17.208 20.0679C17.208 20.0679 16.4282 19.9919 16.1144 18.7842C15.8006 17.5765 15.3631 15.513 15.3631 15.513L10.4278 17.8142Z" fill="#F6B09C"/>
<path fill-rule="evenodd" clip-rule="evenodd" d="M9.7156 4.67221C8.49188 6.9977 7.53487 9.45404 6.86278 11.9945C6.2732 15.028 7.10051 17.6335 8.99288 18.1375C10.1441 18.3049 11.3182 18.2087 12.4268 17.8562C13.5354 17.5037 14.5496 16.9041 15.3927 16.1025C15.716 16.8538 17.3801 16.3688 17.9411 15.1516C18.5022 13.9344 17.4372 13.516 17.1805 13.6111C16.9237 13.7062 16.4292 14.077 16.2295 13.9629C16.0298 13.8488 15.9917 13.2687 16.5147 12.6791C17.118 11.9713 17.647 11.2033 18.0933 10.3874C18.4737 9.65514 18.0172 8.99898 17.5798 7.76276C17.3246 7.00258 17.2818 6.18715 17.4561 5.40445C16.5834 5.53638 15.6911 5.41079 14.8887 5.04309C14.019 4.49796 13.049 4.13258 12.0358 3.96852C11.2031 3.91739 10.3797 4.16711 9.7156 4.67221Z" fill="#F6B09C"/>
<path d="M10.1153 12.3653C10.1398 12.3748 10.167 12.3748 10.1915 12.3653C11.035 11.701 11.5902 10.7371 11.7415 9.67412C11.7471 9.63765 11.7383 9.60043 11.717 9.57029C11.6958 9.54014 11.6635 9.51943 11.6273 9.51248C11.6085 9.50981 11.5894 9.51088 11.5711 9.51567C11.5528 9.52046 11.5357 9.52883 11.5206 9.54034C11.5056 9.55185 11.4929 9.56627 11.4835 9.58271C11.474 9.59914 11.4681 9.6173 11.4657 9.6361C11.3208 10.6165 10.8114 11.5062 10.0393 12.1276C10.0267 12.14 10.0166 12.1547 10.0097 12.171C10.0028 12.1874 9.99937 12.2049 9.99937 12.2226C9.99937 12.2403 10.0028 12.2579 10.0097 12.2742C10.0166 12.2906 10.0267 12.3053 10.0393 12.3177C10.0578 12.3425 10.0849 12.3595 10.1153 12.3653V12.3653Z" fill="#EB6344"/>
<path d="M16.201 10.5297H16.2581C16.2922 10.5131 16.3188 10.4845 16.3328 10.4493C16.3469 10.4142 16.3474 10.375 16.3341 10.3395C16.0694 9.8049 15.6345 9.37335 15.0979 9.11277C14.6421 8.83531 14.095 8.74982 13.5764 8.87504C13.5582 8.88025 13.5413 8.88932 13.5269 8.90156C13.5125 8.9138 13.5009 8.92892 13.4928 8.94602C13.4847 8.96312 13.4802 8.98178 13.4799 9.00069C13.4796 9.01961 13.4833 9.03834 13.4908 9.05572C13.5037 9.09082 13.5298 9.11946 13.5636 9.13546C13.5974 9.15147 13.6361 9.15359 13.6714 9.14133C14.1177 9.04424 14.5842 9.12254 14.9742 9.36002C15.4505 9.59248 15.8354 9.97741 16.0678 10.4536C16.0805 10.4777 16.0997 10.4976 16.1233 10.5111C16.1469 10.5246 16.1738 10.531 16.201 10.5297V10.5297Z" fill="#BE5B4F"/>
<path d="M11.2664 8.40923C11.2837 8.403 11.2995 8.39323 11.3129 8.38056C11.3263 8.36788 11.3369 8.35256 11.344 8.33557C11.3512 8.31859 11.3548 8.30031 11.3545 8.28189C11.3542 8.26346 11.3501 8.2453 11.3424 8.22855C11.135 7.76837 10.7804 7.3903 10.3344 7.15398C10.1466 7.03606 9.93678 6.95754 9.71773 6.92321C9.49867 6.88888 9.27497 6.8995 9.06013 6.95432C9.04194 6.95953 9.0251 6.96855 9.01068 6.98079C8.99625 6.99303 8.98465 7.00821 8.97655 7.0253C8.96845 7.0424 8.964 7.06101 8.96366 7.07992C8.96333 7.09883 8.96709 7.11763 8.97457 7.135C8.98926 7.16837 9.01619 7.1948 9.0498 7.20894C9.0834 7.22309 9.12106 7.22385 9.1552 7.21103C9.51658 7.14302 9.8903 7.21439 10.2012 7.41075C10.5984 7.61415 10.9115 7.95077 11.0856 8.36169C11.1062 8.38858 11.1351 8.40787 11.1678 8.41648C11.2005 8.42509 11.2353 8.42252 11.2664 8.40923Z" fill="#BE5B4F"/>
<path fill-rule="evenodd" clip-rule="evenodd" d="M12.1973 14.3239C11.4578 14.2135 10.7269 14.0515 10.0101 13.8389C9.25882 13.5631 8.72626 13.2493 8.6692 13.2969C8.72343 13.6448 8.86547 13.9732 9.08175 14.251C9.29804 14.5288 9.5815 14.747 9.90547 14.8849C10.3051 14.9695 10.7186 14.963 11.1154 14.8659C11.5121 14.7688 11.8819 14.5835 12.1973 14.3239Z" fill="white"/>
<path d="M13.5193 10.9387C13.4052 11.224 13.5192 11.5188 13.6714 11.5853C13.8235 11.6519 14.1089 11.4902 14.223 11.2049C14.2815 11.0964 14.2974 10.9699 14.2675 10.8503C14.2375 10.7307 14.164 10.6265 14.0613 10.5583C13.8236 10.4822 13.6239 10.6534 13.5193 10.9387Z" fill="#1D1D1B"/>
<path d="M9.36369 9.23649C9.25909 9.52178 9.36362 9.81656 9.52528 9.88313C9.68694 9.94969 9.96278 9.78807 10.0674 9.50278C10.172 9.2175 10.0673 8.92272 9.90568 8.85615C9.74402 8.78959 9.4683 8.95121 9.36369 9.23649Z" fill="#1D1D1B"/>
<path fill-rule="evenodd" clip-rule="evenodd" d="M54.1911 17.2152C54.8474 15.281 55.8353 13.4758 57.1106 11.8804C57.4719 11.424 58.5179 9.74079 59.0124 9.97853C59.2502 10.1021 58.8888 10.3589 58.2137 11.7473C58.2137 11.8043 57.7477 12.7648 57.8333 12.8123C58.0615 12.9169 58.7842 12.1847 59.0029 12.0325C60.0025 11.1421 61.1152 10.3876 62.3122 9.78833C62.4833 9.70274 63.2631 9.29383 63.3963 9.54107C63.672 10.0261 62.588 10.3018 60.6956 11.8043C60.6956 11.8043 59.8588 12.546 59.9443 12.6316C60.0299 12.7172 60.8953 12.2132 60.9524 12.1466C61.7797 11.5122 62.6839 10.9851 63.6435 10.5776C63.7957 10.5206 64.3377 10.2923 64.3853 10.6632C64.4328 11.034 62.1125 12.2893 61.6561 12.6792C61.6561 12.6792 60.7907 13.4304 60.8288 13.497C60.8668 13.5636 61.6751 13.0881 61.7797 13.0405C62.1506 12.8028 64.8417 11.0816 65.184 11.6902C65.3647 11.9945 64.5088 12.3559 64.4042 12.4034C63.5788 12.8362 62.7788 13.3156 62.0079 13.8393L61.2186 14.4289C61.6335 14.2756 62.0292 14.0746 62.3977 13.8298C62.7496 13.6206 64.4328 12.6221 64.8322 12.9264C65.2316 13.2307 64.5659 13.4209 64.3377 13.573C63.7382 13.8593 63.1542 14.1767 62.588 14.524C61.8843 14.9044 61.5609 15.1802 60.8572 15.5701C59.7056 16.1282 58.613 16.8004 57.5955 17.5765C57.2016 17.934 56.8506 18.3361 56.5495 18.7747C55.8078 18.8223 54.077 17.567 54.1911 17.2152Z" fill="#F6B09C"/>
<path d="M10.523 18.2516C12.0817 18.1533 13.5768 17.5976 14.8213 16.6539C14.4591 17.4474 13.8919 18.1301 13.1782 18.6315C12.4644 19.1329 11.6301 19.435 10.7608 19.5067C10.6086 18.6414 10.523 18.2516 10.523 18.2516Z" fill="#F28E78"/>
<path d="M17.0764 20.0584C17.0764 20.0584 15.5834 26.0208 15.4218 26.0208C15.2601 26.0208 10.8096 22.217 10.8096 22.217L10.0964 22.6164C10.0964 22.6164 14.5658 27.2284 15.8021 27.1143C17.0383 27.0002 18.0273 19.8301 18.0273 19.8301C17.6971 19.8325 17.3718 19.9105 17.0764 20.0584Z" fill="#F59C00"/>
<path opacity="0.83" d="M38.4509 57.6568H31.3001L30 38.9999H40.089L38.4509 57.6568Z" fill="white"/>
<path d="M31.301 57.6568H38.4517L39.7389 42.9393H30.2739L31.301 57.6568Z" fill="#F7A400"/>
<path d="M38.4509 57.6568H31.3001L30 38.9999H40.089L38.4509 57.6568Z" stroke="#1D1D1B" stroke-width="0.798657" stroke-linecap="round" stroke-linejoin="round"/>
<path d="M32.4331 40.768L32.9532 48.7248" stroke="white" stroke-width="1.18111" stroke-linecap="round" stroke-linejoin="round"/>
</svg>
