<svg width="53" height="54" viewBox="0 0 53 54" fill="none" xmlns="http://www.w3.org/2000/svg">
<path d="M52.0705 28.1684C52.0705 41.6429 41.1473 52.5662 27.6728 52.5662C14.1983 52.5662 3.27505 41.6429 3.27505 28.1684C3.27505 14.694 14.1983 3.77072 27.6728 3.77072C41.1473 3.77072 52.0705 14.694 52.0705 28.1684Z" fill="#721185" stroke="black" stroke-width="1.85918"/>
<path d="M49.725 25.3273C49.725 38.8018 38.8018 49.725 25.3273 49.725C11.8528 49.725 0.929591 38.8018 0.929591 25.3273C0.929591 11.8528 11.8528 0.929591 25.3273 0.929591C38.8018 0.929591 49.725 11.8528 49.725 25.3273Z" fill="#C1022F" stroke="black" stroke-width="1.85918"/>
<path d="M26.1544 17.1733H25.9496C25.9496 17.1733 25.3028 17.6835 24.7359 19.3933C24.7359 19.3933 23.7769 22.337 23.7369 22.4351C23.657 22.1407 22.3533 18.4759 22.3533 18.4759C22.0536 17.6467 21.2794 17.1733 20.2279 17.1733H19.8433L19.8308 17.2371C19.4879 19.3601 19.2876 21.503 19.2314 23.6519C19.2314 24.297 19.6311 24.7116 20.2504 24.7116H20.8548V24.6331C20.8548 23.463 20.9597 20.821 21.1345 19.565C21.2319 19.8103 21.3443 20.1071 21.4367 20.3696L22.5031 23.4826C22.7754 24.2774 23.2274 24.7091 23.7793 24.7091H24.2539C24.581 24.2946 24.651 23.9732 24.8707 23.3403L25.9147 20.1734C25.9846 19.96 26.067 19.7588 26.1444 19.5798C26.2568 20.561 26.3942 22.7957 26.3942 23.6494C26.3942 24.3142 26.7813 24.7091 27.4331 24.7091H28.0825V24.6306C28.0825 23.0852 27.8577 19.8864 27.7203 18.7702C27.6005 17.7375 27.041 17.1708 26.1494 17.1708" fill="white"/>
<path d="M32.2439 17.0431C30.0236 17.0431 28.5901 18.6179 28.5901 21.0563C28.5901 23.215 30.0886 24.8414 32.0865 24.8414C34.3068 24.8414 35.7405 23.2665 35.7405 20.8282C35.7405 18.3432 33.9921 17.0431 32.2439 17.0431ZM32.2214 23.399C30.9202 23.399 30.2884 22.5576 30.2884 20.8282C30.2884 19.4176 31.0001 18.5076 32.1015 18.5076C33.3503 18.5076 34.0371 19.4029 34.0371 21.0342C34.0371 22.56 33.3927 23.399 32.2214 23.399Z" fill="white"/>
<path d="M41.5651 17.372C40.8064 17.2002 40.0311 17.1081 39.2525 17.0973C38.9612 17.0871 38.6696 17.101 38.3809 17.139C37.2793 17.2592 36.2581 18.0172 36.2581 19.3148C36.2432 19.7482 36.3696 20.1748 36.6182 20.5329C36.8672 20.8911 37.2253 21.1621 37.6414 21.3068C37.2975 21.5568 37.0317 21.8968 36.8748 22.288L36.2756 23.669C36.1746 23.9034 36.0455 24.1249 35.8909 24.3289L35.8234 24.4197L35.7883 24.4737L35.8334 24.5178C36.0306 24.7263 36.1905 24.7803 36.6103 24.7803C36.8559 24.8004 37.1019 24.7427 37.3117 24.6155C37.5216 24.4884 37.6845 24.2986 37.7765 24.0738L38.331 22.7369C38.6531 21.9691 38.9301 21.9225 39.3174 21.8611C39.5306 21.8278 39.7458 21.8073 39.9616 21.7998V24.7263H40.521C40.6684 24.7412 40.8167 24.7237 40.956 24.6753C41.0954 24.6269 41.2222 24.5487 41.3271 24.4464C41.432 24.3441 41.5125 24.2202 41.5628 24.0837C41.6128 23.9471 41.6316 23.8013 41.6174 23.6568V17.4014L41.5651 17.372ZM39.9616 20.4236C39.6349 20.4683 39.3048 20.4855 38.9751 20.4751C38.4958 20.4751 37.9337 20.2298 37.9337 19.5528C37.9337 18.8169 38.3459 18.5446 38.9652 18.5446H39.1999C39.4548 18.5485 39.7094 18.5682 39.9616 18.6035V20.4236Z" fill="white"/>
<path d="M14.4231 30.5815L14.2233 30.7312C13.8142 31.0856 13.2878 31.2817 12.7423 31.2831C11.7058 31.2831 11.2263 30.4368 10.8942 29.6125C10.7826 29.3256 10.6949 29.0303 10.6319 28.7294C10.2742 27.0615 10.2108 25.3455 10.4446 23.6565C10.6394 22.1724 10.9441 20.6122 11.7658 19.2409C12.068 18.7503 12.4975 18.1812 13.1743 18.2597C13.8512 18.3382 14.0859 18.9367 14.1733 19.4666C14.3581 20.4479 14.2857 21.8118 13.8412 22.4618C13.6788 22.7071 13.9161 23.0555 14.3407 23.2272C14.5379 23.3023 14.7501 23.3315 14.9608 23.3123C15.1714 23.2932 15.3746 23.2262 15.5544 23.1168C15.7667 23.0024 15.9517 22.8447 16.0968 22.6543C16.242 22.4639 16.344 22.2452 16.3961 22.0129C16.5759 21.3638 16.6443 20.6898 16.5984 20.0186C16.491 18.4094 15.7043 17.1607 14.493 16.6799C13.4166 16.2531 12.1454 16.4886 11.0115 17.3324C9.93762 18.1248 9.14093 19.3096 8.57149 20.9507C7.91467 22.8445 7.6749 24.9419 7.83724 27.3655C7.95714 29.1219 8.3942 30.4883 9.17589 31.5358C9.50728 31.9963 9.94622 32.372 10.4559 32.6315C10.9657 32.891 11.5313 33.0267 12.1054 33.0272H12.2103C13.213 32.9909 14.1659 32.5885 14.8826 31.8988C15.0109 31.7896 15.1311 31.6716 15.2422 31.5456L14.4231 30.5815Z" fill="white"/>
<path d="M42.9584 30.9056C42.7085 30.8051 42.294 31.1681 42.2215 31.2294C42.0971 31.3547 41.9369 31.4402 41.7621 31.4748C41.435 31.4478 41.4148 30.9277 41.4049 30.6162C41.385 29.8312 41.4324 29.0167 41.4774 28.2318L41.49 28.0453C41.5224 27.4738 41.4549 27.1721 41.2675 27.0641C41.0802 26.9562 40.8855 27.0175 40.5459 27.2015C40.3579 27.3084 40.1771 27.4263 40.004 27.5547C39.9613 27.5817 39.9414 27.5964 39.9014 27.6259C39.8616 27.6553 39.8391 27.6627 39.8189 27.6528C39.8133 27.6485 39.8087 27.6429 39.8057 27.6366C39.8027 27.6301 39.8014 27.6231 39.8014 27.6161C39.7716 26.5514 39.4942 25.8989 38.9199 25.6143C38.515 25.4343 38.0549 25.4158 37.6361 25.5628C36.747 25.84 36.1379 26.5931 35.8082 27.7976C35.7139 28.093 35.6874 28.4052 35.7307 28.7119C35.7738 29.0185 35.8857 29.312 36.0578 29.5712C36.1637 29.7177 36.3014 29.8396 36.4607 29.9282C36.6199 30.0168 36.797 30.0699 36.9794 30.0839C37.2091 30.104 37.4405 30.0858 37.6636 30.0299C37.7566 30.0081 37.8477 29.9794 37.9361 29.944C37.9473 29.9398 37.9596 29.9388 37.9715 29.9412C37.9834 29.9435 37.9943 29.9491 38.0033 29.9573C38.0122 29.9655 38.0185 29.9759 38.0215 29.9874C38.0248 29.999 38.0244 30.0111 38.0208 30.0225C37.7712 30.8345 37.464 31.357 37.0217 31.6906C36.938 31.7649 36.8377 31.8192 36.7291 31.849C36.6202 31.8788 36.506 31.8833 36.3951 31.8623C36.1826 31.7912 36.0379 31.5434 35.9803 31.1681C35.9578 31.0332 35.9479 30.4322 35.9353 30.2924C35.9006 29.8827 35.7632 29.6963 35.6556 29.6595C35.5424 29.6475 35.4282 29.6637 35.3229 29.7066C35.2176 29.7495 35.1252 29.8176 35.0538 29.9048C34.695 30.3127 34.5044 30.8377 34.5194 31.3766C34.5199 31.5951 34.5642 31.8114 34.6499 32.013C34.7356 32.2146 34.861 32.3977 35.0189 32.5516C35.3484 32.8462 35.7771 33.0113 36.2226 33.0153C37.5014 33.0153 38.6104 31.8991 39.2595 30.2016C39.332 30.0152 39.432 29.6595 39.5094 29.6595C39.5869 29.6595 39.5568 29.9195 39.5667 30.1035C39.5713 30.5285 39.6303 30.9512 39.7415 31.3619C39.9712 32.2769 40.5783 32.8583 41.34 32.7847C42.1765 32.7037 42.776 31.9016 43.0207 31.3447C43.0958 31.1755 43.0882 30.967 42.9657 30.9203L42.9584 30.9056ZM37.4865 28.8107C37.4114 28.7046 37.3587 28.5848 37.3319 28.4584C37.3048 28.332 37.3038 28.2015 37.3289 28.0748C37.3395 27.7015 37.4898 27.3451 37.751 27.0739C37.8324 27.0096 37.9341 26.9749 38.0383 26.9758C38.2681 26.9758 38.378 27.3634 38.3929 27.6528C38.3978 27.7452 38.3978 27.8377 38.3929 27.93C38.4008 28.2051 38.3353 28.4773 38.2032 28.7199C38.1668 28.7852 38.1138 28.8401 38.0496 28.8792C37.9854 28.9183 37.9116 28.9404 37.8361 28.9432C37.7709 28.9481 37.7053 28.9391 37.6441 28.9166C37.5828 28.8942 37.5272 28.8588 37.4815 28.8131" fill="white"/>
<path d="M33.2372 27.7141C32.9553 27.6007 32.644 27.5785 32.3484 27.6509C32.0528 27.7232 31.7885 27.8863 31.5938 28.1164C31.4683 28.2711 31.3927 28.459 31.3766 28.6561C31.3842 28.7073 31.4081 28.7548 31.4449 28.7918C31.4817 28.8288 31.5295 28.8534 31.5813 28.8622C31.7019 28.8659 31.8201 28.8286 31.916 28.7567C31.9669 28.7079 32.0298 28.673 32.0985 28.6554C32.1673 28.6378 32.2395 28.638 32.3081 28.6561C32.428 28.7101 32.4954 28.8793 32.4979 29.132C32.5205 29.8338 32.4678 30.536 32.3406 31.2269C32.2964 31.4624 32.1886 31.6818 32.0284 31.8623C31.9533 31.9396 31.8539 31.9898 31.7462 32.0046C31.6471 31.9849 31.5585 31.9309 31.4964 31.8525C31.3731 31.6696 31.3008 31.4581 31.2867 31.2392C31.2128 30.4351 31.1861 29.6275 31.2067 28.8205C31.2067 28.4623 31.2317 28.0845 31.2542 27.7362C31.2791 27.3069 31.3066 26.8654 31.3016 26.4361C31.2966 26.0068 31.1967 25.7737 31.0069 25.6781C30.9049 25.6427 30.7953 25.634 30.6889 25.6529C30.5825 25.6718 30.4829 25.7177 30.4 25.786C29.9005 26.0877 29.6083 26.6446 29.4235 27.2161C28.9415 28.7027 28.8916 29.7158 28.2422 30.8958C27.9925 31.3422 27.6803 31.5679 27.5354 31.5679C27.3731 31.5679 27.1833 31.3667 27.0859 30.9963C27.0369 30.773 27.0118 30.5453 27.011 30.3168C26.996 29.9194 26.986 29.5171 26.9785 29.1246C26.9635 28.531 26.951 27.9177 26.9161 27.3167C26.8686 26.49 26.7737 26.1024 26.5489 26.0288C26.1968 25.9136 25.7747 26.1147 25.475 26.414C25.1936 26.7348 24.982 27.1088 24.8531 27.513C24.6584 28.0968 24.4835 28.6978 24.3137 29.2816C24.1938 29.6937 24.0639 30.1206 23.9391 30.5352C23.8941 30.6799 23.7717 31.2049 23.5869 31.2588C23.5793 31.2629 23.5707 31.265 23.562 31.265C23.5532 31.265 23.5447 31.2629 23.537 31.2588C23.3647 31.1264 23.3447 30.5033 23.3272 30.3168C23.2248 29.0903 23.1599 27.8981 23.0774 26.7231C23.05 26.3036 22.9526 26.0583 22.7778 25.97C22.6867 25.9384 22.589 25.9295 22.4936 25.9441C22.3981 25.9586 22.3079 25.9962 22.2308 26.0534C21.6689 26.3527 21.2843 26.934 21.0595 27.8294C20.7898 28.8965 20.4576 29.9709 20.1629 30.9203C20.1229 31.0771 20.0703 31.2304 20.0056 31.379C19.9781 31.4428 19.8807 31.6391 19.7983 31.6391C19.7158 31.6391 19.6909 31.5188 19.6909 31.5188L19.6684 31.1362C19.6534 30.8344 19.6359 30.5204 19.6235 30.2113C19.6085 29.8434 19.546 29.657 19.3412 29.5662C19.2488 29.5245 19.0915 29.4779 18.8942 29.7281C18.708 30.0432 18.5452 30.3712 18.4072 30.7093C18.08 31.4183 17.5206 31.85 16.9661 31.8942C16.4666 31.9359 16.132 31.4403 15.9671 31.0577C15.958 31.0376 15.956 31.0151 15.9614 30.9937C15.9668 30.9723 15.9794 30.9534 15.9971 30.9399C16.4347 30.5939 16.8363 30.206 17.1959 29.7821L17.2908 29.6643C17.3882 29.5441 17.4931 29.3969 17.6255 29.2007C17.8652 28.8274 18.0146 28.4051 18.0623 27.9662C18.1099 27.5274 18.0544 27.0836 17.9002 26.6691C17.7704 26.3498 17.5209 26.0916 17.2032 25.9474C16.8855 25.8032 16.5236 25.7841 16.1919 25.8939C15.0431 26.2496 14.129 27.7288 14.0216 29.4116C13.9783 30.004 14.0408 30.5993 14.2064 31.1705C14.3008 31.4959 14.4529 31.8024 14.656 32.0757C15.118 32.6767 15.4452 32.8263 15.7399 32.9146C16.6215 33.1771 17.4681 32.8975 18.2599 32.0855C18.3322 31.9972 18.4297 31.8794 18.4871 31.9187C18.5445 31.9579 18.597 32.1518 18.632 32.2474C18.7084 32.5072 18.8778 32.7311 19.109 32.8779C19.1891 32.9221 19.2776 32.95 19.3691 32.9597C19.4605 32.9694 19.553 32.9607 19.6409 32.9343C19.8907 32.8533 20.2828 32.6203 20.7024 31.9408C20.9444 31.5495 21.1532 31.1392 21.3267 30.7142C21.4216 30.4984 21.4991 30.2604 21.5765 30.2482C21.6539 30.2359 21.6839 30.6333 21.7113 30.7682C21.7551 31.0192 21.8228 31.2656 21.9136 31.5041C22.1958 32.267 22.7103 32.6694 23.1624 32.6595C23.6144 32.6497 24.1164 32.1836 24.5784 31.2735C24.7408 30.9546 24.8681 30.6627 25.038 30.28C25.0954 30.15 25.1104 30.0543 25.1703 30.0543C25.2303 30.0543 25.2677 30.2531 25.3052 30.4346C25.3599 30.8676 25.4493 31.2958 25.5724 31.7151C25.8222 32.3701 26.3067 32.7675 26.7737 32.8263C27.2408 32.8852 27.6628 32.6571 28.0974 32.1714C28.3162 31.9326 28.5041 31.6681 28.6568 31.3839C28.8269 31.0658 28.9779 30.7382 29.1088 30.4027C29.1638 30.2604 29.2012 30.177 29.2512 30.1868C29.3011 30.1966 29.3037 30.3708 29.3311 30.5401C29.3818 30.8994 29.4801 31.2507 29.6233 31.5851C29.9555 32.3872 30.8071 33.0569 31.6513 33.0569C31.7985 33.0567 31.9452 33.0394 32.0883 33.0054C33.0873 32.7601 33.7741 31.9997 34.1038 30.7216C34.4634 29.3062 34.1038 28.0576 33.2522 27.7485L33.2372 27.7141ZM16.1694 27.8319C16.238 27.7078 16.3497 27.612 16.4841 27.562C16.5356 27.5445 16.5919 27.5467 16.6419 27.568C16.6918 27.5894 16.7318 27.6284 16.7539 27.6773C16.8114 27.8703 16.8114 28.0755 16.7539 28.2685C16.6224 28.8797 16.3013 29.4359 15.8348 29.8606C15.8258 29.8687 15.8146 29.8743 15.8026 29.8767C15.7906 29.8791 15.7781 29.8783 15.7665 29.8742C15.755 29.8702 15.7448 29.8631 15.737 29.8538C15.7292 29.8445 15.7242 29.8333 15.7224 29.8213C15.6827 29.1299 15.8392 28.4411 16.1744 27.8319" fill="white"/>
<path d="M42.438 29.4243C42.5449 29.4248 42.6499 29.4527 42.7426 29.5053C42.8412 29.556 42.922 29.6346 42.9749 29.7309C43.0296 29.8233 43.0587 29.9282 43.0587 30.0351C43.0587 30.142 43.0296 30.247 42.9749 30.3393C42.921 30.434 42.8415 30.5121 42.7452 30.565C42.6509 30.6181 42.5439 30.6461 42.4354 30.6461C42.3268 30.6461 42.2199 30.6181 42.1258 30.565C42.0292 30.5121 41.9497 30.434 41.8958 30.3393C41.8422 30.2466 41.814 30.1418 41.8134 30.0351C41.8134 29.928 41.8425 29.8229 41.8984 29.7309C41.9511 29.6346 42.0322 29.556 42.1308 29.5053C42.2242 29.4526 42.3301 29.4247 42.438 29.4243ZM42.438 29.5273C42.3503 29.5286 42.2645 29.5514 42.1881 29.5936C42.106 29.6357 42.0385 29.7005 41.9934 29.78C41.9504 29.8551 41.9262 29.9392 41.9233 30.0253C41.9259 30.1115 41.9497 30.1958 41.9934 30.2706C42.0371 30.3507 42.104 30.4163 42.1858 30.4595C42.2632 30.5053 42.3523 30.5296 42.443 30.5296C42.5333 30.5296 42.6224 30.5053 42.7002 30.4595C42.7816 30.4163 42.8485 30.3507 42.8925 30.2706C42.9352 30.1956 42.9584 30.1113 42.9597 30.0253C42.9577 29.9394 42.9345 29.8553 42.8925 29.78C42.8475 29.7005 42.7796 29.6357 42.6975 29.5936C42.6184 29.5498 42.5287 29.5269 42.438 29.5273ZM42.1656 30.3737V29.7162H42.3953C42.4526 29.714 42.5102 29.7206 42.5651 29.7358C42.5995 29.7465 42.6297 29.768 42.6502 29.7972C42.6694 29.8264 42.6797 29.8605 42.68 29.8953C42.68 29.9421 42.6611 29.987 42.6277 30.0204C42.5906 30.0558 42.5419 30.0767 42.4903 30.0793C42.5108 30.0881 42.5304 30.0997 42.5479 30.1136C42.584 30.1542 42.6164 30.1976 42.6452 30.2436L42.7277 30.3737H42.5952L42.5353 30.2706C42.5085 30.2124 42.4701 30.1599 42.4228 30.1161C42.398 30.0998 42.3678 30.092 42.338 30.094H42.2732V30.3737H42.1656ZM42.2732 30.0032H42.4056C42.4496 30.0072 42.4943 29.9978 42.5327 29.9763C42.5515 29.9617 42.5641 29.9405 42.5674 29.9172C42.5704 29.8938 42.5645 29.8701 42.5502 29.8512C42.5386 29.8358 42.5231 29.8239 42.5052 29.8168C42.4688 29.8112 42.4317 29.8112 42.3953 29.8168H42.2732V30.0032Z" fill="white"/>
</svg>
