<svg width="668" height="484" viewBox="0 0 668 484" fill="none" xmlns="http://www.w3.org/2000/svg">
<rect x="1.00706" y="0.968" width="665.984" height="482.064" rx="238.128" fill="#E42350" stroke="#C1022F" stroke-width="1.936"/>
<path d="M242.36 46.2216H425.274C425.82 46.2216 426.437 46.2216 426.938 46.2216L428.467 46.2663L431.518 46.3468C433.548 46.4184 435.588 46.3916 437.618 46.5436L443.701 47.0088L446.742 47.2413L449.765 47.6349L455.812 48.3952C471.877 50.8282 487.593 55.3096 502.594 61.5174C510.009 64.8181 517.389 68.244 524.366 72.4212C527.935 74.3623 531.298 76.6522 534.733 78.8258L536.012 79.6487L537.255 80.5343L539.742 82.3054L542.229 84.0675C543.061 84.6489 543.893 85.2393 544.671 85.8833C547.846 88.4147 551.12 90.8388 554.135 93.5759C555.655 94.9177 557.238 96.2057 558.714 97.5922L563.124 101.805C563.849 102.512 564.618 103.183 565.316 103.925L567.418 106.135C568.813 107.61 570.235 109.06 571.613 110.553L575.602 115.169L577.597 117.477L579.475 119.874L583.25 124.668L586.783 129.633L588.555 132.111C589.136 132.942 589.655 133.819 590.209 134.669L593.501 139.794C597.634 146.78 601.605 153.891 604.852 161.334C608.296 168.695 610.997 176.361 613.511 184.081L615.166 189.939L615.997 192.864L616.677 195.834L618.055 201.765C618.466 203.75 618.779 205.763 619.146 207.758C619.96 211.738 620.363 215.79 620.899 219.815C621.212 221.828 621.284 223.858 621.454 225.889C621.597 227.919 621.785 229.941 621.91 231.972C622.161 240.102 622.259 248.26 621.552 256.364C621.382 258.386 621.284 260.425 621.06 262.438L620.291 268.485L619.915 271.508L619.379 274.505L618.314 280.498C617.921 282.492 617.411 284.451 616.972 286.437C616.498 288.405 616.123 290.409 615.514 292.35C614.387 296.25 613.377 300.185 611.981 303.996C609.512 311.733 606.239 319.184 602.857 326.564L600.076 331.985L598.689 334.695C598.206 335.589 597.678 336.457 597.177 337.342L594.145 342.629C593.09 344.364 591.963 346.055 590.871 347.772C582.123 361.476 571.47 373.927 559.6 385.028C558.16 386.468 556.585 387.756 555.056 389.089C553.508 390.404 552.006 391.781 550.431 393.06L545.637 396.826C544.832 397.443 544.054 398.105 543.231 398.696L540.744 400.458L535.771 403.982L530.636 407.265L528.078 408.911L525.439 410.431L520.162 413.473C505.868 421.183 490.661 427.194 474.936 431.228C459.175 435.146 442.958 437.168 426.67 437.239H243.755C243.21 437.239 242.592 437.239 242.091 437.239L240.562 437.194L237.512 437.114C235.481 437.042 233.442 437.069 231.411 436.917L225.329 436.452L222.287 436.22L219.264 435.826L213.217 435.066C197.152 432.633 181.436 428.151 166.435 421.943C159.02 418.643 151.641 415.217 144.664 411.04C141.094 409.099 137.731 406.809 134.296 404.635L133.017 403.812L131.774 402.927L129.287 401.155L126.801 399.393C125.969 398.812 125.137 398.222 124.359 397.578C121.183 395.046 117.909 392.622 114.895 389.885C113.374 388.543 111.791 387.255 110.315 385.869L105.905 381.656C105.181 380.949 104.411 380.278 103.714 379.536L101.612 377.326C100.216 375.85 98.794 374.401 97.4165 372.907L93.4271 368.292L91.4324 365.984L89.5539 363.587L85.7792 358.792L82.2459 353.828L80.4749 351.35C79.8934 350.518 79.3746 349.642 78.82 348.792L75.5283 343.667C71.3958 336.681 67.4242 329.569 64.1772 322.127C60.7334 314.766 58.0321 307.1 55.5186 299.38L53.8638 293.521L53.0319 290.596L52.3521 287.627L50.9746 281.696C50.5631 279.71 50.25 277.698 49.8833 275.703C49.0693 271.723 48.6668 267.671 48.1301 263.645C47.817 261.633 47.7454 259.602 47.5755 257.572C47.4324 255.541 47.2445 253.52 47.1193 251.489C46.8688 243.358 46.7704 235.201 47.4771 227.097C47.647 225.075 47.7454 223.036 47.9691 221.023L48.7383 214.976L49.114 211.953L49.6507 208.956L50.7151 202.963C51.1087 200.968 51.6186 199.01 52.0569 197.024C52.531 195.056 52.9067 193.052 53.5149 191.111C54.642 187.211 55.6527 183.275 57.0481 179.465C59.5169 171.728 62.7908 164.276 66.172 156.897L68.9538 151.476L70.3403 148.766C70.8233 147.872 71.3511 147.004 71.852 146.118L74.8843 140.832C75.9398 139.097 77.0668 137.406 78.1581 135.689C86.9062 121.985 97.5596 109.534 109.43 98.433C110.87 96.9929 112.444 95.7048 113.974 94.372C115.521 93.0571 117.024 91.6796 118.598 90.4005L123.393 86.6347C124.198 86.0175 124.976 85.3556 125.799 84.7652L128.285 83.0031L133.259 79.4788L138.393 76.196L140.951 74.5501L143.59 73.0295L148.868 69.9882C163.162 62.2777 178.368 56.2667 194.093 52.2326C209.854 48.3147 226.071 46.2932 242.36 46.2216V2.27529C222.493 2.34684 202.6 4.81564 183.279 9.64589C163.985 14.5835 145.316 21.9541 127.811 31.4178L121.335 35.1389L118.106 37.0084L114.957 39.021L108.678 43.0551L102.587 47.3666L99.5454 49.5312C98.5346 50.2558 97.5775 51.0519 96.5936 51.8122L90.7257 56.4277C88.7936 57.9931 86.951 59.6569 85.0546 61.2759C83.1852 62.9128 81.271 64.505 79.4999 66.2493C64.9733 79.8276 51.9585 95.0697 41.2336 111.841C39.9008 113.943 38.5232 116.019 37.2352 118.148L33.5141 124.615C32.8969 125.697 32.2618 126.77 31.6714 127.862L29.963 131.18L26.5639 137.826C22.3866 146.861 18.4151 156.011 15.3649 165.493C13.6743 170.18 12.3952 174.992 11.0355 179.787C10.311 182.166 9.82798 184.617 9.24656 187.032C8.70093 189.465 8.09267 191.88 7.60965 194.322L6.29475 201.675L5.64177 205.351L5.16769 209.055L4.22847 216.461C3.95118 218.93 3.81701 221.417 3.61127 223.894C2.77045 233.805 2.84201 243.752 3.18192 253.681C3.32504 256.159 3.53971 258.636 3.71861 261.123C3.92435 263.601 4.04063 266.087 4.40737 268.547C5.04246 273.485 5.57021 278.431 6.5452 283.315C6.99245 285.766 7.39497 288.217 7.89588 290.659L9.56858 297.94L10.4183 301.581L11.4291 305.177L13.4775 312.359C16.5367 321.832 19.891 331.233 24.0862 340.259C28.0935 349.382 32.9148 358.104 38.0044 366.655L42.0296 372.943C42.7095 373.981 43.3535 375.045 44.0691 376.065L46.2248 379.106L50.5631 385.18L55.1697 391.048L57.4775 393.982L59.9105 396.808L64.7944 402.444C66.4761 404.277 68.2114 406.057 69.9199 407.864L72.496 410.557C73.3458 411.46 74.276 412.292 75.1705 413.16L80.5732 418.303C82.3891 420.002 84.3122 421.586 86.1728 423.223C89.876 426.55 93.8475 429.547 97.7475 432.624C98.7135 433.411 99.7243 434.135 100.744 434.851L103.785 437.016L106.827 439.171L108.347 440.254L109.913 441.264C114.108 443.939 118.24 446.712 122.605 449.109C131.157 454.208 140.191 458.448 149.297 462.464C167.679 470.112 186.982 475.595 206.67 478.565L214.076 479.513L217.779 479.978L221.5 480.273L228.933 480.837C231.411 481.007 233.898 480.998 236.385 481.087L240.106 481.177L241.966 481.221C242.601 481.239 243.111 481.221 243.693 481.221H426.607C446.474 481.15 466.367 478.681 485.688 473.851C504.982 468.913 523.65 461.543 541.155 452.079L547.632 448.358L550.861 446.488L554.009 444.476L560.289 440.441L566.38 436.13L569.421 433.965C570.432 433.241 571.389 432.445 572.373 431.684L578.241 427.069C580.173 425.504 582.016 423.84 583.912 422.221C585.782 420.584 587.696 418.992 589.467 417.247C603.993 403.669 617.008 388.427 627.733 371.655C629.066 369.553 630.444 367.478 631.732 365.349L635.453 358.882C636.07 357.8 636.705 356.726 637.295 355.635L639.004 352.316L642.403 345.67C646.58 336.636 650.552 327.485 653.602 318.004C655.292 313.316 656.572 308.504 657.931 303.71C658.656 301.33 659.139 298.879 659.72 296.464C660.266 294.031 660.874 291.616 661.357 289.174L662.672 281.822L663.325 278.145L663.799 274.442L664.738 267.036C665.016 264.567 665.15 262.08 665.355 259.602C666.196 249.691 666.125 239.745 665.785 229.816C665.642 227.338 665.427 224.86 665.248 222.374C665.042 219.896 664.926 217.409 664.559 214.949C663.924 210.012 663.397 205.065 662.422 200.181C661.974 197.73 661.572 195.28 661.071 192.838L659.398 185.556L658.548 181.916L657.538 178.32L655.489 171.137C652.43 161.665 649.076 152.263 644.881 143.238C640.873 134.114 636.052 125.393 630.962 116.842L626.937 110.553C626.257 109.516 625.613 108.451 624.898 107.432L622.742 104.39L618.404 98.3167L613.797 92.4489L611.489 89.515L609.056 86.6884L604.172 81.0531C602.491 79.2194 600.755 77.4393 599.047 75.6325L596.471 72.94C595.621 72.0366 594.691 71.2047 593.796 70.3371L588.393 65.1938C586.578 63.4942 584.655 61.911 582.794 60.2741C579.091 56.9466 575.119 53.95 571.219 50.873C570.253 50.0858 569.242 49.3613 568.223 48.6457L565.181 46.481L562.14 44.3253L560.62 43.243L559.054 42.2322C554.859 39.5577 550.727 36.7847 546.361 34.3875C537.81 29.2978 528.776 25.049 519.67 21.0328C501.288 13.3849 481.985 7.90163 462.297 4.93192L454.891 3.98376L451.188 3.51863L447.466 3.22345L440.033 2.65992C437.556 2.48996 435.069 2.49891 432.582 2.40946L428.861 2.32001L427.001 2.27529C426.365 2.2574 425.856 2.27529 425.274 2.27529H242.36V46.2216Z" fill="#F42C5A"/>
<path d="M242.36 11.2649C223.227 11.3365 204.085 13.7158 185.488 18.3582C166.928 23.1169 148.966 30.2013 132.114 39.3072L125.888 42.8852L122.776 44.6831L119.752 46.6152L113.705 50.4973L107.847 54.6477L104.922 56.7319C103.947 57.4296 103.025 58.1988 102.077 58.9234L96.4328 63.3601C94.5723 64.8628 92.8012 66.4729 90.9764 68.0293C89.1785 69.6036 87.3269 71.1332 85.6274 72.8148C71.6465 85.8833 59.1147 100.562 48.7922 116.699C47.5131 118.72 46.1803 120.715 44.9459 122.763L41.359 128.989C40.7687 130.026 40.1515 131.055 39.579 132.111L37.9421 135.304L34.6682 141.7C30.652 150.394 26.8236 159.196 23.8896 168.329C22.2617 172.837 21.0362 177.47 19.7213 182.077C19.0147 184.367 18.5585 186.728 18.0039 189.054C17.4851 191.388 16.8947 193.714 16.4296 196.067L15.1683 203.142L14.5422 206.675L14.086 210.235L13.1826 217.364C12.9232 219.744 12.789 222.132 12.5922 224.52C11.7782 234.065 11.8587 243.645 12.1807 253.207C12.3239 255.595 12.5296 257.983 12.6996 260.372C12.8963 262.76 13.0037 265.148 13.3615 267.519C13.9787 272.268 14.4796 277.036 15.4188 281.732C15.8571 284.085 16.2328 286.455 16.7158 288.799L18.3259 295.802L19.1399 299.3L20.1149 302.762L22.0828 309.676C25.0256 318.791 28.2458 327.834 32.2978 336.52C36.1442 345.295 40.7955 353.694 45.6973 361.923L49.5705 367.97C50.2234 368.972 50.8496 370 51.5294 370.975L53.6046 373.9L57.7729 379.75L62.2096 385.395L64.4279 388.212L66.7715 390.931L71.4765 396.361C73.0956 398.123 74.7683 399.841 76.4141 401.576L78.8919 404.17C79.7148 405.047 80.6093 405.834 81.468 406.674L86.665 411.63C88.4092 413.267 90.2608 414.788 92.0588 416.371C95.6188 419.582 99.4473 422.453 103.204 425.423C104.134 426.174 105.1 426.881 106.084 427.57L109.009 429.654L111.934 431.738L113.401 432.776L114.913 433.751C118.947 436.327 122.928 438.992 127.132 441.3C135.361 446.211 144.055 450.281 152.813 454.154C170.506 461.507 189.075 466.784 208.021 469.647L215.15 470.559L218.71 471.006L222.288 471.284L229.444 471.829C231.832 471.999 234.229 471.981 236.617 472.071L240.204 472.16C241.403 472.187 242.61 472.223 243.711 472.214H426.625C445.758 472.142 464.9 469.763 483.497 465.121C502.057 460.362 520.019 453.277 536.871 444.172L543.097 440.594L546.209 438.796L549.233 436.864L555.28 432.981L561.139 428.831L564.064 426.747C565.039 426.049 565.96 425.28 566.908 424.555L572.552 420.119C574.413 418.616 576.184 417.006 578.009 415.449C579.807 413.875 581.658 412.346 583.358 410.664C597.339 397.595 609.87 382.917 620.193 366.78C621.472 364.759 622.805 362.764 624.039 360.716L627.626 354.49C628.216 353.452 628.834 352.424 629.406 351.368L631.043 348.175L634.317 341.779C638.333 333.085 642.162 324.283 645.095 315.15C646.723 310.642 647.949 306.009 649.264 301.402C649.97 299.112 650.427 296.751 650.981 294.425C651.5 292.09 652.09 289.765 652.555 287.412L653.817 280.337L654.443 276.803L654.899 273.243L655.802 266.114C656.062 263.735 656.196 261.347 656.393 258.958C657.207 249.414 657.126 239.834 656.804 230.272C656.661 227.884 656.455 225.495 656.285 223.107C656.089 220.719 655.981 218.331 655.624 215.96C655.006 211.21 654.505 206.443 653.566 201.747C653.128 199.394 652.752 197.024 652.269 194.68L650.659 187.676L649.845 184.179L648.87 180.717L646.902 173.803C643.959 164.688 640.739 155.645 636.687 146.959C632.841 138.184 628.19 129.785 623.288 121.556L619.415 115.509C618.762 114.507 618.135 113.478 617.456 112.503L615.38 109.578L611.212 103.728L606.775 98.0842L604.557 95.2665L602.214 92.5473L597.509 87.1177C595.89 85.3556 594.217 83.6382 592.571 81.9028L590.093 79.3088C589.27 78.4322 588.376 77.6451 587.517 76.8042L582.32 71.8488C580.576 70.2119 578.724 68.6912 576.926 67.108C573.366 63.8967 569.538 61.0254 565.781 58.0557C564.851 57.3044 563.885 56.5977 562.901 55.9089L559.976 53.8248L557.051 51.7406L555.584 50.703L554.072 49.728C550.038 47.1519 546.057 44.4863 541.853 42.1785C533.624 37.2678 524.93 33.1978 516.173 29.3247C498.48 21.972 479.91 16.6945 460.965 13.8321L453.835 12.9197L450.275 12.4725L446.697 12.1952L439.542 11.6496C437.153 11.4796 434.756 11.4975 432.368 11.408L428.781 11.3186C427.582 11.2918 426.375 11.256 425.274 11.2649H242.36Z" stroke="#E42350" stroke-width="1.936" stroke-miterlimit="10"/>
<path d="M242.359 2.5258C222.51 2.59736 202.635 5.06616 183.341 9.88746C164.064 14.825 145.423 22.1867 127.936 31.6415L121.469 35.3536L118.24 37.2231L115.1 39.2268L108.83 43.252L102.747 47.5545L99.7147 49.7191C98.704 50.4437 97.7469 51.2398 96.7629 52.0001L90.904 56.6067C88.9719 58.1721 87.1293 59.8358 85.2419 61.4459C83.3724 63.0828 81.4582 64.6661 79.696 66.4193C65.1874 79.9797 52.1815 95.2129 41.4655 111.967C40.1327 114.069 38.7641 116.135 37.4761 118.264L33.755 124.722C33.1378 125.805 32.5117 126.869 31.9123 127.96L30.2039 131.279L26.8048 137.916C22.6365 146.941 18.6649 156.083 15.6147 165.556C13.9331 170.243 12.654 175.046 11.2854 179.832C10.5609 182.211 10.0778 184.653 9.49641 187.077C8.95077 189.501 8.34252 191.916 7.85949 194.358L6.54459 201.702L5.90056 205.378L5.42648 209.073L4.48726 216.47C4.20997 218.939 4.0758 221.417 3.87006 223.894C3.02924 233.796 3.1008 243.734 3.44071 253.654C3.58383 256.132 3.7985 258.61 3.9774 261.087C4.18313 263.565 4.29942 266.043 4.66616 268.503C5.30125 273.431 5.829 278.378 6.80399 283.262C7.25124 285.704 7.65376 288.163 8.15467 290.597L9.82737 297.869L10.6682 301.5L11.679 305.087L13.7184 312.261C16.7686 321.725 20.123 331.108 24.3181 340.133C28.3165 349.248 33.1378 357.961 38.2275 366.503L42.2437 372.782C42.9235 373.82 43.5676 374.884 44.2742 375.904L46.4299 378.945L50.7593 385.01L55.3569 390.869L57.6647 393.794L60.0977 396.62L64.9817 402.247C66.6633 404.072 68.3986 405.852 70.1071 407.658L72.6832 410.351C73.533 411.254 74.4633 412.077 75.3488 412.954L80.7426 418.097C82.5584 419.797 84.4726 421.371 86.3421 423.017C90.0363 426.344 94.0079 429.332 97.9079 432.409C98.8739 433.187 99.8757 433.921 100.895 434.636L103.928 436.801L106.969 438.957L108.49 440.03L110.055 441.041C114.241 443.715 118.374 446.479 122.739 448.877C131.281 453.966 140.307 458.206 149.395 462.213C167.759 469.852 187.044 475.336 206.705 478.296L214.102 479.245L217.796 479.71L221.509 480.005L228.942 480.568C231.42 480.738 233.906 480.729 236.384 480.819L240.105 480.908L241.966 480.953C242.601 480.971 243.111 480.953 243.692 480.953H426.606C446.455 480.881 466.331 478.413 485.625 473.591C504.901 468.654 523.542 461.292 541.03 451.837L547.497 448.125L550.726 446.256L553.866 444.252L560.136 440.227L566.218 435.924L569.251 433.76C570.262 433.035 571.219 432.239 572.203 431.479L578.062 426.872C579.994 425.307 581.836 423.643 583.724 422.033C585.593 420.396 587.507 418.813 589.269 417.06C603.778 403.499 616.784 388.266 627.5 371.512C628.833 369.41 630.201 367.344 631.489 365.215L635.211 358.757C635.828 357.674 636.454 356.61 637.053 355.519L638.762 352.2L642.161 345.563C646.329 336.538 650.301 327.396 653.351 317.923C655.032 313.236 656.312 308.433 657.68 303.647C658.405 301.268 658.888 298.826 659.469 296.402C660.015 293.978 660.623 291.563 661.106 289.121L662.421 281.777L663.065 278.1L663.539 274.406L664.478 267.009C664.756 264.54 664.89 262.062 665.095 259.585C665.936 249.682 665.865 239.745 665.525 229.825C665.382 227.347 665.167 224.869 664.988 222.392C664.782 219.914 664.666 217.436 664.299 214.976C663.664 210.048 663.137 205.101 662.162 200.217C661.714 197.775 661.312 195.315 660.811 192.882L659.138 185.61L658.297 181.979L657.287 178.392L655.247 171.218C652.197 161.754 648.843 152.371 644.647 143.345C640.649 134.231 635.828 125.518 630.738 116.976L626.722 110.697C626.042 109.659 625.398 108.594 624.691 107.575L622.536 104.534L618.206 98.4689L613.609 92.61L611.301 89.685L608.868 86.8584L603.984 81.232C602.302 79.4073 600.567 77.6272 598.858 75.8204L596.282 73.1279C595.433 72.2245 594.502 71.4016 593.617 70.525L588.223 65.3817C586.407 63.6821 584.493 62.1078 582.623 60.462C578.929 57.1345 574.958 54.1469 571.058 51.0698C570.092 50.2916 569.09 49.5581 568.07 48.8425L565.038 46.6779L561.996 44.5221L560.476 43.4487L558.91 42.438C554.724 39.7634 550.592 36.9995 546.227 34.6022C537.684 29.5126 528.659 25.2727 519.571 21.2654C501.207 13.6264 481.922 8.1432 462.261 5.18244L454.863 4.23428L451.169 3.76915L447.457 3.47396L440.024 2.91043C437.546 2.74048 435.059 2.74943 432.582 2.65998L428.86 2.57053L427 2.5258C426.365 2.50791 425.855 2.5258 425.274 2.5258H242.359Z" stroke="#E42350" stroke-width="1.936" stroke-miterlimit="10"/>
<path d="M242.361 20.0041C223.934 20.0757 205.525 22.3656 187.636 26.8291C169.782 31.4089 152.509 38.2249 136.301 46.9819L130.308 50.4257L127.311 52.1521L124.404 54.0126L118.59 57.7427L112.955 61.741L110.137 63.7447C109.198 64.4156 108.321 65.158 107.4 65.8557L101.97 70.1224C100.181 71.5715 98.4728 73.1189 96.7196 74.6127C94.9843 76.1244 93.2042 77.6003 91.5762 79.2194C78.1231 91.7959 66.0564 105.911 56.1365 121.448C54.9021 123.398 53.623 125.312 52.4333 127.28L48.9895 133.273C48.4171 134.275 47.8267 135.268 47.2811 136.279L45.7068 139.356L42.5582 145.51C38.7029 153.874 35.0087 162.335 32.191 171.119C30.6257 175.458 29.4449 179.912 28.1837 184.349C27.5039 186.549 27.0745 188.821 26.5289 191.058C26.028 193.303 25.4555 195.539 25.0083 197.802L23.7917 204.609L23.1835 208.008L22.7452 211.434L21.8775 218.286C21.6271 220.576 21.5019 222.875 21.314 225.173C20.5269 234.36 20.6074 243.582 20.9115 252.786C21.0457 255.085 21.2514 257.384 21.4124 259.674C21.6092 261.973 21.7076 264.272 22.0475 266.553C22.6468 271.123 23.1209 275.703 24.0243 280.229C24.4447 282.492 24.8025 284.773 25.2677 287.027L26.8241 293.763L27.6023 297.126L28.5415 300.454L30.4289 307.1C33.2644 315.866 36.3593 324.56 40.2504 332.924C43.9446 341.368 48.426 349.445 53.14 357.361L56.87 363.175C57.4962 364.141 58.0955 365.125 58.7574 366.074L60.761 368.891L64.7684 374.518L69.0351 379.947L71.1729 382.666L73.427 385.287L77.9532 390.511C79.5096 392.202 81.1196 393.856 82.7029 395.529L85.0912 398.025C85.8783 398.866 86.746 399.626 87.5689 400.431L92.5691 405.199C94.2508 406.773 96.0308 408.231 97.7572 409.76C101.183 412.846 104.868 415.61 108.482 418.473C109.377 419.197 110.307 419.877 111.255 420.53L114.073 422.534L116.89 424.537L118.295 425.539L119.744 426.479C123.635 428.947 127.454 431.523 131.497 433.742C139.414 438.465 147.777 442.383 156.203 446.113C173.225 453.179 191.079 458.26 209.3 461.015L216.152 461.882L219.578 462.321L223.022 462.589L229.909 463.108C232.208 463.269 234.516 463.251 236.815 463.332C239.105 463.376 241.448 463.484 243.693 463.466H426.608C445.034 463.394 463.443 461.104 481.333 456.641C499.187 452.061 516.459 445.245 532.667 436.488L538.66 433.044L541.657 431.318L544.564 429.457L550.378 425.727L556.014 421.729L558.831 419.725C559.771 419.054 560.647 418.312 561.568 417.614L566.998 413.347C568.787 411.898 570.495 410.351 572.249 408.857C573.984 407.345 575.764 405.869 577.392 404.25C590.845 391.674 602.912 377.559 612.832 362.022C614.066 360.072 615.345 358.157 616.535 356.189L619.979 350.196C620.551 349.195 621.141 348.202 621.687 347.191L623.261 344.114L626.41 337.96C630.265 329.596 633.96 321.134 636.777 312.35C638.343 308.012 639.523 303.558 640.785 299.121C641.464 296.921 641.894 294.648 642.439 292.412C642.94 290.167 643.513 287.931 643.96 285.668L645.176 278.861L645.785 275.462L646.223 272.036L647.091 265.184C647.341 262.894 647.466 260.595 647.654 258.296C648.441 249.11 648.361 239.888 648.057 230.683C647.923 228.385 647.717 226.086 647.556 223.796C647.359 221.497 647.261 219.198 646.921 216.917C646.321 212.346 645.847 207.767 644.944 203.241C644.523 200.977 644.166 198.696 643.701 196.442L642.144 189.707L641.366 186.344L640.427 183.016L638.539 176.37C635.704 167.604 632.609 158.91 628.718 150.546C625.024 142.102 620.542 134.025 615.828 126.109L612.098 120.294C611.472 119.328 610.873 118.344 610.211 117.396L608.207 114.579L604.2 108.952L599.933 103.523L597.795 100.803L595.541 98.1826L591.015 92.9587C589.459 91.2682 587.849 89.6134 586.265 87.9407L583.877 85.445C583.09 84.6042 582.222 83.8439 581.399 83.0388L576.399 78.2712C574.717 76.6969 572.937 75.2389 571.211 73.7093C567.785 70.6233 564.1 67.8593 560.486 64.997C559.592 64.2724 558.661 63.5926 557.713 62.9396L554.896 60.936L552.078 58.9323L550.674 57.9305L549.224 56.9913C545.333 54.5225 541.514 51.9464 537.471 49.728C529.555 45.0051 521.191 41.0872 512.765 37.3572C495.743 30.2907 477.889 25.21 459.668 22.455L452.816 21.5873L449.39 21.149L445.947 20.8807L439.059 20.3619C436.76 20.2009 434.452 20.2188 432.154 20.1383C429.864 20.0935 427.52 19.9862 425.275 20.0041H242.361Z" stroke="#E42350" stroke-width="1.936" stroke-miterlimit="10"/>
<path d="M242.36 28.7433C224.65 28.8148 206.965 31.0153 189.791 35.2999C172.644 39.6918 156.06 46.2485 140.487 54.6567L134.735 57.9663L131.855 59.6211L129.064 61.4101L123.474 64.988L118.062 68.8254L115.361 70.7486C114.457 71.3926 113.616 72.1082 112.74 72.779L107.516 76.8848C105.799 78.2712 104.162 79.765 102.471 81.2052C100.807 82.6632 99.0899 84.0675 97.5245 85.6329C84.5991 97.7174 73.0065 111.278 63.4713 126.207C62.2905 128.076 61.0561 129.919 59.9112 131.806L56.6016 137.558C56.0559 138.524 55.4835 139.472 54.9557 140.438L53.444 143.39L50.4206 149.294C46.7264 157.326 43.1663 165.457 40.4739 173.892C38.9622 178.052 37.8441 182.336 36.6187 186.594C35.9657 188.705 35.5542 190.888 35.0354 193.034C34.5524 195.19 34.0067 197.337 33.5774 199.51L32.4146 206.049L31.8331 209.314L31.4127 212.606L30.5719 219.189C30.3304 221.39 30.2141 223.599 30.0352 225.809C29.2749 234.628 29.3643 243.502 29.6506 252.348C29.7847 254.557 29.9815 256.758 30.1336 258.967C30.3214 261.168 30.4109 263.386 30.7419 265.578C31.3143 269.97 31.7705 274.37 32.6471 278.709C33.0496 280.882 33.3985 283.074 33.8457 285.238L35.3395 291.706L36.082 294.944L36.9854 298.137L38.8012 304.524C41.5294 312.941 44.4902 321.295 48.2381 329.319C51.7892 337.432 56.1007 345.178 60.6089 352.79L64.1958 358.381C64.8041 359.311 65.3765 360.259 66.0027 361.163L67.9258 363.864L71.7811 369.267L75.8868 374.491L77.9352 377.103L80.0999 379.616L84.4471 384.634C85.9498 386.262 87.4973 387.845 89.0179 389.456L91.3078 391.862C92.0592 392.667 92.9 393.4 93.6872 394.178L98.4906 398.758C100.101 400.27 101.818 401.674 103.482 403.141C106.765 406.111 110.316 408.759 113.786 411.514C114.645 412.211 115.54 412.864 116.452 413.491L119.153 415.414L121.855 417.337L123.205 418.303L124.601 419.206C128.34 421.577 132.007 424.054 135.889 426.183C143.492 430.727 151.525 434.475 159.611 438.062C175.953 444.842 193.101 449.726 210.606 452.374L217.189 453.206L220.481 453.626L223.791 453.886L230.41 454.387C232.619 454.548 234.838 454.521 237.047 454.601C239.274 454.646 241.448 454.744 243.711 454.736H426.626C444.336 454.664 462.021 452.463 479.195 448.179C496.342 443.787 512.926 437.23 528.499 428.822L534.251 425.512L537.131 423.858L539.922 422.069L545.512 418.491L550.924 414.653L553.625 412.73C554.529 412.086 555.37 411.371 556.246 410.7L561.47 406.594C563.187 405.208 564.824 403.714 566.515 402.274C568.179 400.816 569.896 399.411 571.461 397.846C584.387 385.761 595.979 372.201 605.515 357.272C606.695 355.402 607.93 353.56 609.075 351.672L612.384 345.921C612.93 344.955 613.502 344.007 614.03 343.04L615.542 340.089L618.565 334.185C622.26 326.152 625.82 318.022 628.512 309.586C630.024 305.427 631.142 301.143 632.367 296.885C633.02 294.774 633.432 292.591 633.951 290.444C634.434 288.289 634.979 286.142 635.409 283.968L636.571 277.43L637.153 274.165L637.573 270.873L638.414 264.289C638.656 262.089 638.772 259.88 638.951 257.67C639.711 248.851 639.622 239.977 639.335 231.131C639.201 228.921 639.004 226.721 638.852 224.512C638.665 222.311 638.575 220.093 638.244 217.901C637.672 213.509 637.215 209.108 636.339 204.77C635.936 202.596 635.588 200.405 635.14 198.24L633.646 191.773L632.904 188.535L632.001 185.342L630.185 178.955C627.457 170.538 624.496 162.183 620.748 154.16C617.197 146.047 612.885 138.3 608.377 130.688L604.79 125.098C604.182 124.168 603.609 123.219 602.983 122.316L601.06 119.615L597.205 114.212L593.099 108.988L591.051 106.376L588.886 103.863L584.539 98.8445C583.036 97.2165 581.489 95.6333 579.968 94.0232L577.678 91.617C576.927 90.812 576.086 90.0785 575.299 89.3003L570.495 84.7205C568.885 83.2088 567.168 81.8045 565.504 80.3375C562.221 77.3678 558.67 74.7201 555.2 71.9651C554.341 71.2674 553.446 70.6144 552.534 69.9882L549.833 68.0651L547.131 66.1419L545.781 65.1759L544.385 64.2724C540.646 61.902 536.979 59.4243 533.097 57.2954C525.494 52.7514 517.461 49.0035 509.375 45.4166C493.032 38.6363 475.885 33.7524 458.38 31.1047L451.796 30.2729L448.505 29.8524L445.195 29.593L438.576 29.0921C436.367 28.9311 434.148 28.958 431.939 28.8775C429.712 28.8327 427.538 28.7343 425.275 28.7433H242.36Z" stroke="#E42350" stroke-width="1.936" stroke-miterlimit="10"/>
<path d="M242.359 37.4824C225.364 37.554 208.404 39.665 191.937 43.7707C175.505 47.9838 159.61 54.2631 144.672 62.3225L139.153 65.4979L136.398 67.0811L133.723 68.7986L128.365 72.2334L123.168 75.9187L120.574 77.7614C119.707 78.3786 118.902 79.0673 118.061 79.7113L113.052 83.6471C111.397 84.9799 109.832 86.4111 108.213 87.7886C106.611 89.184 104.974 90.5347 103.472 92.0374C91.0741 103.639 79.9466 116.636 70.8139 130.957C69.6779 132.755 68.4972 134.517 67.3969 136.333L64.2215 141.852C63.6938 142.773 63.1481 143.685 62.6472 144.616L61.1981 147.451L58.291 153.113C54.7578 160.824 51.3319 168.606 48.7558 176.692C47.3067 180.681 46.2333 184.787 45.0615 188.866C44.4264 190.897 44.0418 192.981 43.5409 195.047C43.0847 197.113 42.548 199.171 42.1365 201.255L41.0184 207.516L40.4549 210.647L40.0613 213.804L39.2563 220.12C39.0237 222.231 38.9164 224.35 38.7375 226.47C38.004 234.932 38.0934 243.448 38.3618 251.937C38.487 254.057 38.6749 256.168 38.8359 258.287C39.0148 260.398 39.0953 262.527 39.4173 264.629C39.9719 268.834 40.4012 273.064 41.242 277.224C41.6267 279.308 41.9576 281.41 42.387 283.485L43.8182 289.684L44.5338 292.788L45.4014 295.847L47.1367 301.965C49.7576 310.034 52.5931 318.048 56.18 325.732C59.5791 333.514 63.7206 340.938 68.041 348.237L71.4758 353.595C72.0572 354.481 72.6029 355.393 73.2111 356.27L75.0627 358.864L78.757 364.052L82.6927 369.061L84.6606 371.566L86.7448 373.972L90.9131 378.784C92.3532 380.341 93.8381 381.861 95.2961 383.4L97.4876 385.708C98.2121 386.486 99.0172 387.184 99.7686 387.926L104.375 392.318C105.923 393.776 107.569 395.109 109.161 396.513C112.309 399.367 115.717 401.898 119.045 404.546C119.868 405.216 120.726 405.843 121.603 406.442L124.197 408.285L126.791 410.127L128.088 411.049L129.43 411.907C133.017 414.179 136.532 416.568 140.262 418.598C147.552 422.963 155.263 426.55 163.009 429.994C178.681 436.488 195.112 441.175 211.893 443.715L218.208 444.511L221.366 444.914L224.541 445.155L230.892 445.638C233.012 445.791 235.141 445.773 237.261 445.844L240.445 445.925C241.501 445.952 242.556 445.987 243.71 445.978H426.624C443.62 445.907 460.579 443.796 477.047 439.69C493.479 435.477 509.374 429.198 524.312 421.138L529.831 417.963L532.586 416.38L535.26 414.662L540.618 411.227L545.815 407.542L548.409 405.699C549.277 405.082 550.082 404.394 550.923 403.75L555.932 399.814C557.587 398.481 559.152 397.05 560.771 395.672C562.372 394.277 564.009 392.926 565.512 391.423C577.91 379.822 589.037 366.825 598.17 352.504C599.306 350.706 600.486 348.944 601.587 347.128L604.753 341.609C605.281 340.688 605.827 339.776 606.328 338.845L607.777 336.01L610.684 330.348C614.217 322.637 617.643 314.855 620.219 306.769C621.668 302.779 622.741 298.674 623.913 294.595C624.548 292.564 624.933 290.48 625.434 288.414C625.89 286.348 626.427 284.29 626.838 282.206L627.956 275.945L628.52 272.814L628.913 269.656L629.718 263.341C629.951 261.23 630.058 259.11 630.237 256.99C630.971 248.529 630.881 240.013 630.613 231.524C630.488 229.404 630.3 227.293 630.139 225.173C629.96 223.062 629.879 220.934 629.557 218.831C629.003 214.627 628.573 210.396 627.733 206.237C627.348 204.153 627.017 202.051 626.588 199.976L625.157 193.777L624.441 190.673L623.573 187.614L621.838 181.495C619.217 173.427 616.382 165.412 612.795 157.729C609.396 149.947 605.254 142.522 600.934 135.223L597.499 129.865C596.917 128.98 596.372 128.068 595.764 127.191L593.912 124.597L590.218 119.409L586.282 114.4L584.314 111.895L582.23 109.489L578.062 104.677C576.621 103.12 575.137 101.6 573.679 100.061L571.487 97.7532C570.763 96.975 569.958 96.2773 569.206 95.5349L564.6 91.1429C563.052 89.6849 561.406 88.3521 559.814 86.9478C556.665 84.0944 553.257 81.5629 549.93 78.9153C549.107 78.2444 548.248 77.6182 547.372 77.0189L544.778 75.1763L542.184 73.3336L540.887 72.4123L539.545 71.5536C535.958 69.2816 532.443 66.8933 528.713 64.8628C521.422 60.4977 513.712 56.9108 505.966 53.467C490.294 46.973 473.862 42.2859 457.082 39.7455L450.767 38.9494L447.609 38.5469L444.434 38.3054L438.083 37.8224C435.963 37.6703 433.834 37.6882 431.714 37.6166L428.53 37.5361C427.474 37.5093 426.419 37.4735 425.265 37.4824H242.35" stroke="#E42350" stroke-width="1.936" stroke-miterlimit="10"/>
<path d="M242.36 46.2217C226.071 46.2932 209.845 48.3148 194.093 52.2327C178.368 56.2668 163.162 62.2778 148.868 69.9883L143.59 73.0296L140.951 74.5502L138.393 76.1961L133.259 79.4788L128.285 83.0031L125.799 84.7653C124.967 85.3556 124.198 86.0176 123.393 86.6348L118.598 90.4006C117.015 91.6797 115.521 93.0483 113.974 94.3721C112.444 95.7139 110.87 96.993 109.43 98.4331C97.5686 109.543 86.9062 121.985 78.1581 135.689C77.0758 137.406 75.9398 139.097 74.8843 140.832L71.852 146.118C71.351 147.004 70.8233 147.872 70.3403 148.766L68.9538 151.476L66.1719 156.897C62.7908 164.277 59.5169 171.719 57.0481 179.465C55.6527 183.284 54.642 187.211 53.5149 191.111C52.9066 193.052 52.5399 195.047 52.0569 197.024C51.6186 199.001 51.1087 200.969 50.7151 202.963L49.6507 208.956L49.114 211.953L48.7383 214.976L47.9691 221.023C47.7454 223.045 47.647 225.075 47.4771 227.097C46.7704 235.201 46.8599 243.358 47.1193 251.489C47.2445 253.52 47.4234 255.541 47.5755 257.572C47.7454 259.593 47.817 261.633 48.1301 263.646C48.6668 267.671 49.0693 271.723 49.8833 275.703C50.25 277.698 50.5631 279.711 50.9746 281.696L52.3521 287.627L53.0319 290.597L53.8638 293.522L55.5186 299.38C58.0321 307.091 60.7334 314.766 64.1772 322.127C67.4242 329.569 71.3958 336.681 75.5283 343.667L78.82 348.792C79.3746 349.642 79.8934 350.518 80.4748 351.35L82.2459 353.828L85.7792 358.792L89.5539 363.587L91.4324 365.984L93.4271 368.292L97.4165 372.908C98.794 374.401 100.216 375.85 101.612 377.326L103.714 379.536C104.402 380.278 105.172 380.949 105.905 381.656L110.315 385.869C111.791 387.264 113.374 388.543 114.895 389.885C117.909 392.622 121.174 395.037 124.359 397.578C125.146 398.222 125.969 398.812 126.801 399.393L129.287 401.156L131.774 402.927L133.017 403.812L134.296 404.635C137.731 406.809 141.094 409.099 144.663 411.04C151.641 415.217 159.02 418.643 166.435 421.944C181.436 428.16 197.152 432.642 213.217 435.066L219.264 435.826L222.287 436.22L225.329 436.452L231.411 436.917C233.442 437.06 235.481 437.043 237.512 437.114L240.562 437.195L242.091 437.239C242.592 437.257 243.201 437.239 243.755 437.239H426.67C442.958 437.168 459.184 435.146 474.936 431.228C490.661 427.194 505.868 421.183 520.162 413.473L525.439 410.431L528.078 408.911L530.636 407.265L535.771 403.982L540.744 400.458L543.231 398.696C544.063 398.105 544.832 397.443 545.637 396.826L550.431 393.06C552.015 391.781 553.508 390.413 555.056 389.089C556.585 387.747 558.16 386.468 559.6 385.028C571.461 373.918 582.123 361.476 590.871 347.772C591.954 346.055 593.09 344.364 594.145 342.629L597.177 337.343C597.678 336.457 598.206 335.589 598.689 334.695L600.075 331.985L602.857 326.564C606.239 319.184 609.512 311.742 611.981 303.996C613.377 300.177 614.387 296.25 615.514 292.35C616.123 290.409 616.489 288.414 616.972 286.437C617.411 284.46 617.921 282.492 618.314 280.498L619.379 274.505L619.915 271.508L620.291 268.485L621.06 262.438C621.284 260.416 621.382 258.386 621.552 256.364C622.259 248.26 622.169 240.103 621.91 231.972C621.785 229.941 621.606 227.92 621.454 225.889C621.284 223.868 621.212 221.828 620.899 219.815C620.363 215.79 619.96 211.738 619.146 207.758C618.779 205.763 618.466 203.75 618.055 201.765L616.677 195.834L615.997 192.864L615.166 189.939L613.511 184.081C610.997 176.37 608.296 168.695 604.852 161.334C601.605 153.892 597.634 146.78 593.501 139.794L590.209 134.669C589.655 133.819 589.136 132.943 588.554 132.111L586.783 129.633L583.25 124.669L579.475 119.874L577.597 117.477L575.602 115.169L571.613 110.553C570.235 109.06 568.813 107.611 567.418 106.135L565.316 103.925C564.627 103.183 563.858 102.512 563.124 101.805L558.714 97.5923C557.238 96.1969 555.655 94.9177 554.134 93.576C551.12 90.8389 547.855 88.4237 544.671 85.8834C543.884 85.2394 543.061 84.649 542.229 84.0676L539.742 82.3054L537.255 80.5343L536.012 79.6488L534.733 78.8259C531.298 76.6522 527.935 74.3624 524.366 72.4213C517.389 68.244 510.009 64.8181 502.594 61.5175C487.593 55.3008 471.877 50.8194 455.812 48.3953L449.765 47.635L446.742 47.2414L443.701 47.0088L437.618 46.5437C435.588 46.4006 433.548 46.4185 431.518 46.3469L428.467 46.2664L426.938 46.2217C426.446 46.2038 425.829 46.2217 425.274 46.2217H242.36Z" stroke="#E42350" stroke-width="1.936" stroke-miterlimit="10"/>
</svg>
