<svg width="14" height="14" viewBox="0 0 14 14" fill="none" xmlns="http://www.w3.org/2000/svg">
<path d="M13.2146 -6.10352e-05H0V13.2146H13.2146V-6.10352e-05Z" fill="white"/>
<path d="M13.2146 -6.10352e-05L12.548 0.666597H0.666658V12.5479L0 13.2146V-6.10352e-05H13.2146Z" fill="black"/>
<path d="M13.2146 -6.10352e-05V13.2146H0L0.666658 12.5479H12.548V0.664227L13.2146 -6.10352e-05Z" fill="black"/>
<path d="M6.90454 10.8091C9.06096 10.8091 10.8091 9.06096 10.8091 6.90454C10.8091 4.74812 9.06096 3 6.90454 3C4.74812 3 3 4.74812 3 6.90454C3 9.06096 4.74812 10.8091 6.90454 10.8091Z" fill="#CCCCCC"/>
<path d="M6.90454 10.8091C9.06096 10.8091 10.8091 9.06096 10.8091 6.90454C10.8091 4.74812 9.06096 3 6.90454 3C4.74812 3 3 4.74812 3 6.90454C3 9.06096 4.74812 10.8091 6.90454 10.8091Z" fill="black"/>
<path d="M6.90474 10.2083C8.7293 10.2083 10.2084 8.72917 10.2084 6.90461C10.2084 5.08005 8.7293 3.60095 6.90474 3.60095C5.08017 3.60095 3.60107 5.08005 3.60107 6.90461C3.60107 8.72917 5.08017 10.2083 6.90474 10.2083Z" fill="#C10230"/>
</svg>
