<svg width="487" height="486" viewBox="0 0 487 486" fill="none" xmlns="http://www.w3.org/2000/svg">
<g filter="url(#filter0_f_1_5699)">
<path d="M243.5 19L254.693 158.172L301.605 26.6326L276.316 163.953L355.75 49.0103L295.702 175.12L402.245 84.6081L311.531 190.914L437.923 131L322.724 210.257L460.35 185.025L328.518 231.832L468 243L328.518 254.168L460.35 300.975L322.724 275.743L437.923 355L311.531 295.086L402.245 401.392L295.702 310.88L355.75 436.99L276.316 322.047L301.605 459.367L254.693 327.828L243.5 467L232.307 327.828L185.395 459.367L210.684 322.047L131.25 436.99L191.298 310.88L84.7545 401.392L175.469 295.086L49.0773 355L164.276 275.743L26.6497 300.975L158.482 254.168L19 243L158.482 231.832L26.6497 185.025L164.276 210.257L49.0773 131L175.469 190.914L84.7545 84.6081L191.298 175.12L131.25 49.0103L210.684 163.953L185.395 26.6326L232.307 158.172L243.5 19Z" fill="#FFFA83"/>
</g>
<defs>
<filter id="filter0_f_1_5699" x="0.193399" y="0.193399" width="486.613" height="485.613" filterUnits="userSpaceOnUse" color-interpolation-filters="sRGB">
<feFlood flood-opacity="0" result="BackgroundImageFix"/>
<feBlend mode="normal" in="SourceGraphic" in2="BackgroundImageFix" result="shape"/>
<feGaussianBlur stdDeviation="4" result="effect1_foregroundBlur_1_5699"/>
</filter>
</defs>
</svg>
