<svg width="106" height="101" viewBox="0 0 106 101" fill="none" xmlns="http://www.w3.org/2000/svg">
<path d="M54.9217 100.829C82.7356 100.829 105.283 78.2819 105.283 50.468C105.283 22.6542 82.7356 0.106567 54.9217 0.106567C27.1079 0.106567 4.5603 22.6542 4.5603 50.468C4.5603 78.2819 27.1079 100.829 54.9217 100.829Z" fill="#721185"/>
<path d="M87.3069 26.136H7.92775C4.84649 26.136 2.34863 28.707 2.34863 31.8785V69.0575C2.34863 72.2289 4.84649 74.7999 7.92775 74.7999H87.3069C90.3882 74.7999 92.886 72.2289 92.886 69.0575V31.8785C92.886 28.707 90.3882 26.136 87.3069 26.136Z" fill="#0044FF" stroke="#1D1D1B" stroke-width="2.82929" stroke-linecap="round" stroke-linejoin="round"/>
<path fill-rule="evenodd" clip-rule="evenodd" d="M24.4399 44.2791C23.0914 44.1383 21.7321 44.415 20.5487 45.0711C19.3653 45.7272 18.4159 46.7305 17.8311 47.9431C17.2462 49.1557 17.0547 50.5181 17.2827 51.8431C17.5107 53.168 18.147 54.3904 19.1043 55.3423C20.0616 56.2942 21.2929 56.9288 22.6288 57.1589C23.9647 57.389 25.3397 57.2033 26.5648 56.6273C27.7899 56.0514 28.805 55.1134 29.4705 53.9424C30.136 52.7713 30.4193 51.4247 30.2815 50.0876C30.1298 48.6013 29.466 47.2123 28.402 46.1543C27.338 45.0964 25.9388 44.4341 24.4399 44.2791V44.2791ZM24.2272 54.192C23.502 54.2884 22.7645 54.1572 22.1184 53.8167C21.4723 53.4762 20.95 52.9436 20.6251 52.2937C20.3001 51.6438 20.1888 50.9093 20.3067 50.1934C20.4246 49.4776 20.7658 48.8163 21.2824 48.3026C21.799 47.7889 22.465 47.4486 23.1868 47.3295C23.9086 47.2104 24.65 47.3185 25.3066 47.6385C25.9632 47.9586 26.5022 48.4746 26.8477 49.114C27.1932 49.7534 27.3279 50.484 27.2329 51.2032C27.1332 51.9597 26.7847 52.6625 26.2413 53.2028C25.6979 53.7431 24.99 54.0908 24.2272 54.192V54.192ZM33.7918 44.5365C33.5642 44.5371 33.3396 44.5879 33.1342 44.6853C32.9289 44.7828 32.7481 44.9244 32.6049 45.0998C32.4618 45.2752 32.3599 45.4801 32.3066 45.6995C32.2534 45.9188 32.2502 46.1472 32.2972 46.368C32.4412 47.0833 33.1151 47.572 33.8493 47.572H38.11L31.4794 56.2699C31.4304 56.3341 31.4004 56.4106 31.3927 56.4908C31.3851 56.571 31.4001 56.6517 31.4361 56.7239C31.4722 56.7961 31.5278 56.8569 31.5967 56.8995C31.6657 56.9421 31.7452 56.9648 31.8265 56.9651H42.2271C42.9608 56.9651 43.6353 56.4766 43.7793 55.7612C43.8263 55.5405 43.8231 55.3121 43.7699 55.0927C43.7167 54.8734 43.6149 54.6685 43.4718 54.4931C43.3287 54.3176 43.148 54.176 42.9427 54.0785C42.7375 53.981 42.5129 53.9301 42.2853 53.9295H37.094L43.7195 45.2383C43.769 45.1734 43.7993 45.0962 43.807 45.0152C43.8147 44.9343 43.7995 44.8528 43.7631 44.7799C43.7267 44.707 43.6705 44.6457 43.6009 44.6027C43.5312 44.5597 43.4509 44.5368 43.3688 44.5365H33.7918V44.5365ZM75.3523 44.5715C75.008 44.6527 74.7019 44.8479 74.4847 45.1249C74.2674 45.4019 74.1521 45.7441 74.1577 46.0949V51.1488L65.8963 44.632C65.8315 44.581 65.7535 44.5492 65.6713 44.5402C65.589 44.5312 65.5059 44.5454 65.4315 44.5812C65.3571 44.6169 65.2943 44.6728 65.2505 44.7423C65.2067 44.8119 65.1835 44.8923 65.1837 44.9742V55.4095C65.1781 55.7603 65.2935 56.1025 65.5107 56.3795C65.7279 56.6565 66.034 56.8517 66.3784 56.9328C66.602 56.9816 66.8338 56.98 67.0566 56.9281C67.2795 56.8762 67.4878 56.7754 67.6662 56.6331C67.8445 56.4908 67.9883 56.3106 68.0871 56.1058C68.1858 55.9011 68.2369 55.677 68.2365 55.45V50.3524L76.4981 56.8693C76.5629 56.9203 76.6408 56.9521 76.723 56.961C76.8052 56.97 76.8883 56.9558 76.9627 56.9201C77.0371 56.8843 77.0998 56.8285 77.1436 56.759C77.1874 56.6895 77.2106 56.6091 77.2103 56.5272V46.0539C77.2106 45.827 77.1595 45.6029 77.0607 45.3982C76.962 45.1935 76.8181 45.0134 76.6398 44.8712C76.4615 44.7289 76.2533 44.6281 76.0304 44.5763C75.8076 44.5244 75.5758 44.5228 75.3523 44.5715V44.5715ZM53.8418 47.2814C57.3361 47.2814 59.9471 49.1119 59.9471 50.7493C59.9471 52.3867 57.3361 54.2172 53.8418 54.2172C50.3474 54.2172 47.7365 52.3867 47.7365 50.7493C47.7365 49.1119 50.3474 47.2814 53.8418 47.2814M53.8418 44.2461C48.7838 44.2461 44.6837 47.1577 44.6837 50.7493C44.6837 54.3409 48.7838 57.2525 53.8418 57.2525C58.8997 57.2525 62.9998 54.3409 62.9998 50.7493C62.9998 47.1577 58.8996 44.2461 53.8418 44.2461V44.2461Z" fill="white"/>
</svg>
