<svg width="101" height="101" viewBox="0 0 101 101" fill="none" xmlns="http://www.w3.org/2000/svg">
<path d="M50.3624 100.83C78.1763 100.83 100.724 78.282 100.724 50.4681C100.724 22.6543 78.1763 0.106689 50.3624 0.106689C22.5486 0.106689 0.000976562 22.6543 0.000976562 50.4681C0.000976562 78.282 22.5486 100.83 50.3624 100.83Z" fill="#721185"/>
<path fill-rule="evenodd" clip-rule="evenodd" d="M62.7391 76.3944L36.668 76.2599C36.0424 76.2603 35.4286 76.0891 34.8936 75.7649C34.3585 75.4407 33.9226 74.976 33.6333 74.4212C33.3441 73.8665 33.2125 73.243 33.253 72.6187C33.2935 71.9944 33.5045 71.3931 33.863 70.8804L65.89 24.9245C66.2422 24.4303 66.6945 24.0158 67.2175 23.7079C67.7405 23.4001 68.3225 23.2059 68.9255 23.1378L95.8228 20.352C96.4522 20.2833 97.0882 20.3916 97.6594 20.6649C98.2305 20.9381 98.714 21.3653 99.0555 21.8985C99.397 22.4316 99.5828 23.0496 99.5921 23.6826C99.6014 24.3157 99.4337 24.9388 99.1081 25.4817L72.2108 71.0534C71.2397 72.6966 69.8531 74.0552 68.1905 74.9927C66.5279 75.9303 64.6478 76.4137 62.7391 76.3944V76.3944Z" fill="#878787" stroke="#1D1D1B" stroke-width="1.61384" stroke-linecap="round" stroke-linejoin="round"/>
<path fill-rule="evenodd" clip-rule="evenodd" d="M62.8923 69.5356L40.0104 69.1898C39.6173 69.179 39.2342 69.0633 38.9007 68.8549C38.5672 68.6465 38.2953 68.3529 38.1132 68.0044C37.9311 67.6558 37.8453 67.265 37.8648 66.8722C37.8842 66.4794 38.0081 66.0989 38.2237 65.77L63.6608 27.9217C64.2543 27.0408 65.0362 26.3028 65.95 25.7612C66.8637 25.2196 67.8865 24.8879 68.9442 24.7901L92.3064 22.6191C92.7127 22.582 93.1212 22.6592 93.486 22.8419C93.8508 23.0245 94.1574 23.3054 94.3711 23.653C94.5848 24.0005 94.6972 24.4008 94.6956 24.8088C94.694 25.2168 94.5785 25.6162 94.3621 25.9621L69.0787 66.1735C68.424 67.2189 67.5106 68.0777 66.4269 68.6667C65.3431 69.2557 64.1256 69.555 62.8923 69.5356V69.5356Z" fill="#FAC913" stroke="#1D1D1B" stroke-width="1.61384" stroke-linecap="round" stroke-linejoin="round"/>
<path d="M44.4683 72.5519L53.9399 72.6096" stroke="#1D1D1B" stroke-width="1.61384" stroke-linecap="round" stroke-linejoin="round"/>
<path d="M42.0663 39.622C43.098 37.7162 43.6394 35.5836 43.6417 33.4164C43.6357 32.9539 43.6037 32.492 43.5456 32.0331C43.0845 25.8083 39.7032 22.2349 34.0547 21.9851H33.7089C33.201 21.9515 32.6908 21.9838 32.1911 22.0811C31.64 22.1929 31.0813 22.2636 30.5197 22.2925H30.2507H30.0778C29.6127 22.1809 29.1331 22.142 28.6561 22.1772C28.2729 22.2564 27.9352 22.4804 27.7132 22.8025C27.4913 23.1247 27.4023 23.5202 27.4649 23.9063C27.4816 24.2327 27.4816 24.5598 27.4649 24.8862C27.4649 26.9995 27.4649 30.1695 27.3688 33.4164C27.3688 33.8199 27.3688 34.2042 27.3688 34.6076C27.3688 35.0111 27.3688 35.4337 27.3688 35.8756C27.3688 36.3175 27.3688 36.7209 27.3688 37.1628C27.3688 37.6047 27.3688 38.0658 27.3688 38.5269C27.4649 42.1388 27.6186 45.9236 27.7915 49.7469L23.949 49.9198C23.6866 49.9135 23.4256 49.9589 23.1808 50.0535C22.9359 50.1481 22.7121 50.29 22.5221 50.4711C22.3321 50.6522 22.1796 50.8689 22.0734 51.1089C21.9672 51.3489 21.9092 51.6075 21.9029 51.8699C21.8966 52.1323 21.9421 52.3933 22.0367 52.6382C22.1312 52.883 22.2731 53.1068 22.4542 53.2968C22.6353 53.4868 22.852 53.6392 23.092 53.7455C23.332 53.8517 23.5906 53.9097 23.853 53.916H24.3141L28.1565 53.7431C28.1565 55.8756 28.2718 57.7584 28.2718 59.353C28.2652 60.6654 28.4997 61.9678 28.9635 63.1955C28.9942 63.2784 29.049 63.3502 29.121 63.4015C29.1929 63.4529 29.2786 63.4816 29.3669 63.4837H30.5773C30.8803 63.4838 31.1804 63.4251 31.4611 63.3108C32.3833 62.9842 32.9212 62.0813 33.1133 60.4866C32.9788 59.2763 32.8828 58.1043 32.8444 56.9707C32.8059 55.8372 32.7291 54.7421 32.7099 53.6086L38.9539 53.3204C39.2175 53.3078 39.4761 53.2433 39.7149 53.1308C39.9536 53.0182 40.1679 52.8598 40.3454 52.6644C40.5229 52.4691 40.6602 52.2407 40.7494 51.9923C40.8387 51.7439 40.8781 51.4803 40.8655 51.2167C40.8529 50.953 40.7885 50.6944 40.6759 50.4557C40.5634 50.2169 40.4049 50.0027 40.2095 49.8252C40.0142 49.6476 39.7858 49.5103 39.5374 49.4211C39.289 49.3318 39.0254 49.2924 38.7618 49.305L32.6907 49.574C32.6907 49.036 32.6907 48.4981 32.6907 47.9217C32.6907 47.3454 32.6907 46.8458 32.6907 46.2695C37.4169 44.8862 40.2795 42.8689 42.0663 39.622ZM32.633 41.9275C32.633 41.3704 32.633 40.8132 32.633 40.2752C32.633 39.7373 32.633 38.7767 32.633 38.0658C32.633 35.2992 32.633 32.5134 32.633 29.6508C32.633 28.3444 32.633 26.9611 32.633 25.5394C33.0122 25.4607 33.3985 25.4221 33.7857 25.4241C34.6037 25.4039 35.4104 25.6173 36.1114 26.0392C36.8123 26.4612 37.3785 27.0742 37.7435 27.8064C38.6095 29.4669 39.0579 31.3132 39.0499 33.1859C39.0672 35.157 38.5493 37.0959 37.5514 38.7959C37.0457 39.6765 36.3341 40.4214 35.4775 40.9668C34.6209 41.5122 33.6449 41.8419 32.633 41.9275V41.9275Z" fill="white"/>
<path d="M69.1553 46.3847L44.1409 46.8842" stroke="white" stroke-width="3.01634" stroke-linecap="round" stroke-linejoin="round"/>
<path fill-rule="evenodd" clip-rule="evenodd" d="M59.8761 51.5337L70.5389 46.2695L59.5303 41.8506" fill="white"/>
<path d="M59.8761 51.5337L70.5389 46.2695L59.5303 41.8506" stroke="white" stroke-width="3.01634" stroke-linecap="round" stroke-linejoin="round"/>
</svg>
