<svg width="104" height="101" viewBox="0 0 104 101" fill="none" xmlns="http://www.w3.org/2000/svg">
<path d="M53.6398 100.83C81.4536 100.83 104.001 78.282 104.001 50.4681C104.001 22.6542 81.4536 0.106659 53.6398 0.106659C25.8259 0.106659 3.27832 22.6542 3.27832 50.4681C3.27832 78.282 25.8259 100.83 53.6398 100.83Z" fill="#721185"/>
<path d="M87.3924 26.3516H7.60762C4.51062 26.3516 2 28.9357 2 32.1234V69.4923C2 72.68 4.51062 75.2641 7.60762 75.2641H87.3924C90.4894 75.2641 93 72.68 93 69.4923V32.1234C93 28.9357 90.4894 26.3516 87.3924 26.3516Z" fill="#F1F3F5" stroke="#1D1D1B" stroke-width="2.84376" stroke-linecap="round" stroke-linejoin="round"/>
<path d="M13.8738 55.1961H15.3427V46.7377H13.2001C11.048 46.7377 9.91589 47.8418 9.91589 49.4792C9.91589 50.7798 10.5334 51.547 11.6469 52.333L9.72876 55.1961H11.3194L13.4621 51.9962L12.7229 51.5003C11.8153 50.8921 11.3755 50.4149 11.3755 49.395C11.3755 48.4968 12.0118 47.8886 13.2094 47.8886H13.8644V55.1961H13.8738ZM42.2525 55.3178C42.9168 55.3178 43.394 55.1961 43.7495 54.9435V53.7646C43.3846 54.0172 42.9449 54.1763 42.3367 54.1763C41.2981 54.1763 40.877 53.3716 40.877 52.1084C40.877 50.7798 41.401 50.0968 42.346 50.0968C42.9074 50.0968 43.4501 50.2933 43.7402 50.471V49.2453C43.4408 49.0769 42.8981 48.9553 42.187 48.9553C40.3344 48.9553 39.38 50.2839 39.38 52.1459C39.38 54.1856 40.3156 55.3178 42.2525 55.3178ZM33.2046 54.7844V53.6055C32.7555 53.9049 31.9976 54.1763 31.2958 54.1763C30.2385 54.1763 29.8362 53.6804 29.7801 52.6605H33.2701V51.8932C33.2701 49.7599 32.3344 48.9646 30.8841 48.9646C29.1157 48.9553 28.2736 50.3026 28.2736 52.1552C28.2736 54.2885 29.3216 55.3178 31.1648 55.3178C32.0912 55.3178 32.7742 55.0745 33.2046 54.7844ZM19.9462 49.0769V51.5003H18.0094V49.0769H16.5591V55.1961H18.0094V52.6418H19.9462V55.1961H21.3965V49.0769H19.9462ZM27.9181 54.0546H27.2725V49.0769H23.0526V49.6009C23.0526 51.0979 22.9591 53.0348 22.4444 54.0546H21.9953V56.5996H23.3333V55.1961H26.5801V56.5903H27.9181V54.0546ZM37.8268 55.1961H39.4642L37.1437 51.9026L39.1835 49.0769H37.7239L35.6841 51.9026V49.0769H34.2338V55.1961H35.6841V52.1927L37.8268 55.1961ZM30.8561 50.0968C31.5765 50.0968 31.7917 50.6956 31.7917 51.4628V51.5845H29.7707C29.8081 50.6114 30.1637 50.0968 30.8561 50.0968ZM25.8316 54.0546H23.7824C24.1848 53.1283 24.2971 51.4628 24.2971 50.4055V50.2278H25.8316V54.0546Z" fill="black"/>
<path d="M51.9265 56.5999C55.027 56.5999 57.5405 54.0864 57.5405 50.9859C57.5405 47.8854 55.027 45.3719 51.9265 45.3719C48.826 45.3719 46.3125 47.8854 46.3125 50.9859C46.3125 54.0864 48.826 56.5999 51.9265 56.5999Z" fill="white"/>
<path fill-rule="evenodd" clip-rule="evenodd" d="M57.5405 50.9859C57.5405 54.0864 55.027 56.5999 51.9265 56.5999C48.826 56.5999 46.3125 54.0864 46.3125 50.9859C46.3125 47.8854 48.826 45.3719 51.9265 45.3719C52.5323 45.3719 53.1157 45.4679 53.6623 45.6454L52.3827 49.5824H48.6461L48.1895 50.9859H51.9266L50.8319 54.3543H52.3757L53.4704 50.9859H57.5405ZM57.3636 49.5824H53.9266L54.998 46.2859C56.1518 47.0414 57.0105 48.2104 57.3636 49.5824Z" fill="url(#paint0_linear_162_48828)"/>
<path d="M65.9182 46.7432H60.3473V55.1969H61.8191V47.8865H64.4464V55.1969H65.9182V46.7432Z" fill="url(#paint1_linear_162_48828)"/>
<path d="M66.5678 53.944L66.653 54.0048C66.7097 54.0373 66.7908 54.0535 66.8962 54.0535C67.1314 54.0535 67.2855 53.9319 67.3585 53.6886C67.4314 53.4453 67.4801 52.9993 67.5044 52.3506L67.6261 49.0786H71.7739V55.1969H70.3264V50.222H68.8546L68.7694 52.4114C68.7451 53.0845 68.6843 53.6359 68.587 54.0657C68.4897 54.4954 68.3275 54.8117 68.1004 55.0144C67.8734 55.2172 67.5531 55.3185 67.1395 55.3185C66.9692 55.3185 66.8314 55.2982 66.7259 55.2577L66.5678 55.1969V53.944Z" fill="url(#paint2_linear_162_48828)"/>
<path d="M84.1142 55.3185C83.1492 55.3185 82.4275 55.0469 81.949 54.5036C81.4787 53.9521 81.2435 53.1656 81.2435 52.1438C81.2435 51.5194 81.349 50.968 81.5598 50.4896C81.7706 50.0111 82.0828 49.6381 82.4964 49.3705C82.9181 49.0948 83.437 48.9569 84.0533 48.9569C84.4101 48.9569 84.7183 48.9853 84.9778 49.0421C85.2454 49.0907 85.4562 49.1597 85.6103 49.2489V50.4774C85.4643 50.3882 85.2657 50.303 85.0143 50.222C84.7629 50.1409 84.4953 50.1003 84.2115 50.1003C83.7411 50.1003 83.3762 50.2706 83.1167 50.6112C82.8654 50.9437 82.7397 51.4424 82.7397 52.1073C82.7397 52.7398 82.8532 53.2426 83.0802 53.6156C83.3073 53.9886 83.6803 54.1751 84.1993 54.1751C84.5075 54.1751 84.775 54.1386 85.0021 54.0657C85.2292 53.9927 85.4319 53.8913 85.6103 53.7616V54.9414C85.2616 55.1928 84.7629 55.3185 84.1142 55.3185Z" fill="url(#paint3_linear_162_48828)"/>
<path fill-rule="evenodd" clip-rule="evenodd" d="M79.7539 49.7841C79.2674 49.2326 78.6349 48.9569 77.8564 48.9569C77.1671 48.9569 76.5873 49.1759 76.117 49.6138C75.6467 50.0436 75.3588 50.672 75.2534 51.4991H74.4262V49.0786H72.9788V55.1969H74.4262V52.6425H75.2412C75.3223 53.5102 75.598 54.1751 76.0683 54.6374C76.5468 55.0915 77.1428 55.3185 77.8564 55.3185C78.6349 55.3185 79.2674 55.0469 79.7539 54.5036C80.2486 53.9521 80.4959 53.1615 80.4959 52.1316C80.4959 51.1099 80.2486 50.3274 79.7539 49.7841ZM78.7078 53.6886C78.5213 54.013 78.2375 54.1751 77.8564 54.1751C77.4753 54.1751 77.1874 54.013 76.9928 53.6886C76.8063 53.3642 76.713 52.8493 76.713 52.1438C76.713 51.4302 76.8063 50.9112 76.9928 50.5869C77.1874 50.2625 77.4753 50.1003 77.8564 50.1003C78.2375 50.1003 78.5213 50.2625 78.7078 50.5869C78.9025 50.9112 78.9998 51.4262 78.9998 52.1316C78.9998 52.8452 78.9025 53.3642 78.7078 53.6886Z" fill="url(#paint4_linear_162_48828)"/>
<defs>
<linearGradient id="paint0_linear_162_48828" x1="46.3125" y1="50.2374" x2="57.5405" y2="50.2374" gradientUnits="userSpaceOnUse">
<stop stop-color="#FF5C4D"/>
<stop offset="0.4" stop-color="#EB469F"/>
<stop offset="1" stop-color="#8341EF"/>
</linearGradient>
<linearGradient id="paint1_linear_162_48828" x1="60.3473" y1="50.4592" x2="85.6103" y2="50.4592" gradientUnits="userSpaceOnUse">
<stop stop-color="#8341EF"/>
<stop offset="1" stop-color="#3F68F9"/>
</linearGradient>
<linearGradient id="paint2_linear_162_48828" x1="60.3473" y1="50.4592" x2="85.6103" y2="50.4592" gradientUnits="userSpaceOnUse">
<stop stop-color="#8341EF"/>
<stop offset="1" stop-color="#3F68F9"/>
</linearGradient>
<linearGradient id="paint3_linear_162_48828" x1="60.3473" y1="50.4592" x2="85.6103" y2="50.4592" gradientUnits="userSpaceOnUse">
<stop stop-color="#8341EF"/>
<stop offset="1" stop-color="#3F68F9"/>
</linearGradient>
<linearGradient id="paint4_linear_162_48828" x1="60.3473" y1="50.4592" x2="85.6103" y2="50.4592" gradientUnits="userSpaceOnUse">
<stop stop-color="#8341EF"/>
<stop offset="1" stop-color="#3F68F9"/>
</linearGradient>
</defs>
</svg>
